<svg viewBox="0 0 500 250" xmlns:xlink="http://www.w3.org/1999/xlink" xmlns="http://www.w3.org/2000/svg" width="500" height="250" fill="none"><path fill="#FFFAEB" d="M323.331 242.263c0 3.149-1.894 5.861-4.602 7.067H480.04c3.895 0 7.067-3.172 7.067-7.067 0-3.896-3.172-7.068-7.067-7.068H371.292l-.259.116v-.116h-52.299c2.707 1.206 4.601 3.918 4.601 7.068h-.004Z"/><path fill="#0B996E" d="M377.233 112.755c12.281 1.376 23.646 6.88 32.429 15.797 8.613 8.742 13.902 19.915 15.229 31.945 1.327-12.03 6.616-23.203 15.229-31.945 8.787-8.917 20.152-14.421 32.432-15.797-12.28-1.376-23.645-6.88-32.432-15.796-8.613-8.743-13.902-19.916-15.229-31.946-1.327 12.03-6.616 23.208-15.229 31.946-8.788 8.916-20.148 14.42-32.429 15.796Z"/><path fill="#E8FEDF" d="M351.685 166.533c0 10.708 8.715 19.424 19.423 19.424h.242c10.583-.134 19.182-8.846 19.182-19.42 0-10.574-8.711-19.424-19.424-19.424-10.712 0-19.423 8.716-19.423 19.424v-.004Z"/><path fill="#006A43" d="M388.004 208.995c-9.761 4.637-16.096 14.46-16.297 25.276 9.761-4.633 16.096-14.461 16.297-25.276Z"/><path fill="#FFFAEB" d="m300.659 113.43-6.616 11.624 56.913 98.272H160.608l-8.965-15.484L65.58 59.228a3.14 3.14 0 0 1 0-3.145 3.157 3.157 0 0 1 2.72-1.573h42.382a42.613 42.613 0 0 1-1.595-11.289h-46.75a12.093 12.093 0 0 0-10.463 6.045 12.092 12.092 0 0 0-1.617 6.044c0 2.117.567 4.208 1.626 6.04l50.19 86.666 34.327 59.281h.143v.246l15.622 26.973h218.626l-70.128-121.095-.004.009Z"/><path fill="#006A43" d="M365.967 185.952c-8.595-2.278-14.952-10.123-14.952-19.424s6.357-17.145 14.952-19.424h-45.035l22.497 38.848h22.538Z"/><path fill="#E8FEDF" d="M353.548 19.13h-34.162l-28.43 49.957h34.162l28.43-49.958Z"/><path fill="#006A43" d="M160.993 222.66h188.798l-8.435-14.563H152.554l8.439 14.563Z"/><path fill="#F9FFF6" d="m340.968 207.427-47.309-81.699-46.487 81.699h93.796Z"/><path fill="#006A43" d="M324.738 69.757h-34.166l-24.271 42.654h34.166l24.271-42.654Z"/><path fill="#D7FEC8" d="M322.661 242.263c0-3.896-3.172-7.068-7.068-7.068H150.276c-3.896 0-7.068 3.172-7.068 7.068 0 3.895 3.172 7.067 7.068 7.067h165.317c3.896 0 7.068-3.172 7.068-7.067Z"/><path fill="#0B996E" d="m236.973 163.955-22.323-39.232h-34.608l47.058 82.704h19.299l46.965-82.539 6.719-11.807h-34.162l-28.948 50.874Z"/><path fill="#FAF5E3" d="M249.468 54.515a6.472 6.472 0 0 1 5.593 3.23l20.97 36.212 6.616-11.624-17.418-30.079a18.155 18.155 0 0 0-15.663-9.028h-54.711a42.89 42.89 0 0 1-1.595 11.289h56.213-.005Z"/><path fill="#F9FFF6" d="m226.327 207.427-47.443-83.37h36.15l21.934 38.544 38.678-67.97L254.48 58.08a5.806 5.806 0 0 0-5.016-2.895h-56.405c-2.573 8.622-7.943 16.382-15.148 21.858-7.425 5.647-16.275 8.658-25.616 8.73v121.649h74.028l.004.005Z"/><path fill="#006A43" d="M151.964 69.422c-19.348 0-35.685-12.915-40.849-30.596-.295-1.001-.549-2.02-.768-3.052a42.457 42.457 0 0 0-.603 7.112c0 4.048.567 8.037 1.693 11.866 2.506 8.586 7.826 16.31 14.983 21.755 7.394 5.625 16.225 8.6 25.54 8.6 9.314 0 18.15-2.975 25.544-8.6 7.157-5.445 12.482-13.174 14.983-21.755a42.034 42.034 0 0 0 1.693-11.866c0-2.425-.21-4.797-.603-7.112a40.583 40.583 0 0 1-.768 3.052c-5.16 17.681-21.497 30.596-40.854 30.596h.009Z"/><path fill="#F9FFF6" d="M66.156 56.422a2.485 2.485 0 0 0 0 2.475l85.473 147.596V85.777c-9.341-.072-18.191-3.082-25.611-8.73-7.201-5.48-12.571-13.236-15.148-21.858H68.296c-.88 0-1.702.474-2.144 1.238l.004-.005Z"/><path fill="#D7FEC8" d="M8.26 167.824a92.009 92.009 0 0 0 75.877 39.897h33.84l-17.74-30.632a92.025 92.025 0 0 0-40.264-9.265H8.26Z"/><path fill="#0B996E" d="M151.964.67c-20.858 0-38.227 15.202-41.617 35.104.219 1.032.473 2.05.768 3.051 5.16 17.682 21.497 30.597 40.849 30.597 19.353 0 35.69-12.915 40.854-30.597.295-1 .549-2.019.768-3.05-3.391-19.907-20.764-35.11-41.622-35.11V.67Z"/><path fill="#006A43" d="M135.851 207.721a92.057 92.057 0 0 0-35.614-30.632l17.74 30.632h17.874Z"/><path fill="#004228" d="M301.231 113.081h69.882v-.67H301.24l-.197.344.188.326ZM300.275 112.746l.192-.335h-34.166l-.188.335h34.162ZM265.921 113.081h34.162l.192-.335h-34.161l-.193.335ZM325.024 69.257l.094-.17h-34.162l-.192.335h34.166l.094-.165ZM324.93 69.422h-34.166l-.192.335h34.166l.192-.335ZM134.462 204.634l-32.683-56.44-50.19-86.666a12.404 12.404 0 0 1-.009-12.424 12.425 12.425 0 0 1 10.752-6.213h46.746v-.335h-46.75a12.75 12.75 0 0 0-12.75 12.759c0 2.233.599 4.44 1.716 6.374l50.19 86.666 31.369 54.171a92.491 92.491 0 0 1 1.604 2.104l.005.004Z"/><path fill="#004228" d="m136.391 207.301-34.326-59.281-50.19-86.666a12.157 12.157 0 0 1-1.627-6.04c0-2.122.559-4.212 1.617-6.044a12.035 12.035 0 0 1 4.423-4.423 12.06 12.06 0 0 1 6.04-1.621h46.75c0-.112-.004-.224-.004-.335H62.328a12.425 12.425 0 0 0-10.753 6.214 12.425 12.425 0 0 0-1.662 6.214c0 2.144.563 4.288 1.67 6.21l50.191 86.665 32.683 56.44c.652.88 1.296 1.765 1.917 2.672h.017v-.005ZM136.445 208.056v.335h-.192l15.131 26.134h.388l-15.327-26.469Z"/><path fill="#004228" d="M136.539 207.552v.089h-.335l.044.08h.197v.335l15.327 26.469h.384l-15.617-26.973Z"/><path fill="#004228" d="M136.235 207.721h.013l-.044-.08v.031l.031.049Z"/><path fill="#004228" d="M136.204 207.721h.031l-.031-.049v.049ZM249.566 42.89a18.428 18.428 0 0 1 15.953 9.199l17.32 29.909.192-.336-17.222-29.738a18.826 18.826 0 0 0-16.243-9.364h-54.711v.335h54.707l.004-.004Z"/><path fill="#004228" d="M194.851 43.226h54.711a18.147 18.147 0 0 1 15.662 9.028l17.418 30.079.192-.34-17.319-29.908a18.445 18.445 0 0 0-15.953-9.199h-54.707c0 .112-.004.224-.004.335v.005ZM388.343 208.467c0 11.495-6.696 21.412-16.408 26.063h.759c9.753-4.954 15.984-15.042 15.984-26.063v-.518l-.473.215c-8.51 3.851-14.559 11.516-16.502 20.429v1.8c1.496-9.797 7.907-17.968 16.64-21.921v-.005ZM371.292 235.195h-.259v.121l.259-.121Z"/><path fill="#004228" d="M371.935 234.525c9.712-4.65 16.408-14.563 16.408-26.062-8.733 3.953-15.144 12.124-16.64 21.921v4.137h.232v.004Zm16.069-25.535c-.201 10.815-6.536 20.639-16.297 25.276.201-10.811 6.536-20.639 16.297-25.276ZM351.35 166.533c0 9.676 6.96 17.726 16.149 19.424h3.61c-10.713 0-19.424-8.712-19.424-19.424 0-10.713 8.715-19.424 19.424-19.424h-3.61c-9.189 1.697-16.149 9.748-16.149 19.424Z"/><path fill="#004228" d="M351.015 166.533c0 9.301 6.357 17.145 14.952 19.424h1.532c-9.189-1.698-16.149-9.748-16.149-19.424s6.96-17.727 16.149-19.424h-1.532c-8.595 2.278-14.952 10.123-14.952 19.424ZM367.481 146.769a20.3 20.3 0 0 1 3.632-.335h-50.566l.193.335h46.741ZM371.113 146.769c10.909 0 19.759 8.845 19.759 19.759s-8.711 19.616-19.504 19.755h.335v.317c10.784-.313 19.504-9.248 19.504-20.076 0-10.829-9.015-20.094-20.094-20.094v.339Z"/><path fill="#004228" d="M371.113 147.104c10.708 0 19.424 8.716 19.424 19.424s-8.599 19.286-19.183 19.42h-.241v.335h.255c10.793-.134 19.504-8.926 19.504-19.755 0-10.829-8.845-19.759-19.759-19.759v.335ZM367.481 186.292h-23.855l.192.335h27.21a20.777 20.777 0 0 1-3.551-.335h.004ZM365.967 147.104c.496-.129 1-.241 1.514-.335H320.74l.192.335h45.035ZM365.967 185.952h-22.538l.192.335h23.856a21.149 21.149 0 0 1-1.515-.335h.005ZM371.113 146.769v-.335c-1.241 0-2.452.121-3.632.335h3.632ZM371.104 186.287h.005v-.335h-3.61a19.91 19.91 0 0 0 3.605.335ZM371.113 146.769c-1.233 0-2.439.121-3.61.335h3.61v-.335Z"/><path fill="#004228" d="M371.033 186.622v-.33h-3.552c1.153.209 2.341.326 3.552.33ZM371.033 186.292h.076c-1.233 0-2.435-.121-3.606-.335h-1.532a21.09 21.09 0 0 0 1.515.335h3.551-.004ZM367.499 147.104a20.063 20.063 0 0 1 3.61-.335h-3.632c-.509.094-1.014.206-1.515.335h1.537ZM290.376 69.427v-.34h.192l28.622-50.293h34.934l-28.81 50.628v.335h-.192l-24.271 42.654h.389l53.461-93.952h-35.708l-35.962 63.2.197.334 7.148-12.566ZM293.654 125.058l.291-.17.098.17 6.616-11.628-.192-.331-6.813 11.959Z"/><path fill="#004228" d="M319.386 19.129h34.162l-28.43 49.958h.196v.335l28.81-50.628H319.19l-28.623 50.293h.389l28.43-49.958ZM293.659 125.728l-.197-.335-46.674 82.033h.384l46.487-81.698ZM300.467 112.411h.384l24.271-42.654h-.384l-24.271 42.654ZM283.036 82.328l-6.809 11.964.099.165-.286.165v.005l-10.123 17.784h.384l24.271-42.654h-.192l-.004-.33-7.148 12.566.098.17-.29.165ZM180.042 124.723h34.608l22.323 39.232 28.948-50.874h-.196v-.335l-.384.679-28.368 49.851-22.131-38.888h-35.377l47.247 83.038h.388l-47.058-82.703Z"/><path fill="#004228" d="M246.399 207.427h.389l46.674-82.034-.098-.17.29-.165 6.813-11.959-.014-.018h-.37l-6.719 11.807-46.965 82.539ZM276.227 94.292l6.808-11.964-.29.17-.098-.165-6.612 11.624.192.335ZM276.04 94.627v-.005l-.005.005h.005ZM275.745 94.792l-.094-.16-38.678 67.965-21.934-38.544h-36.15l47.439 83.373h.384l-47.247-83.038h35.377l22.131 38.888 28.368-49.851.384-.679v-.335h.192l10.123-17.784h-.005l-.29.165ZM300.659 112.746v.014l.286-.166.098.161.197-.344h-.389l-.192.335Z"/><path fill="#004228" d="m266.113 112.746.188-.335h-.384l-.192.335h.388ZM300.275 112.746h.384l.192-.335h-.384l-.192.335ZM300.083 113.081h.371l-.085-.152.29-.169v-.014h-.384l-.192.335ZM265.921 113.081l.192-.335h-.388v.335h.196Z"/><path fill="#004228" d="m265.725 112.746.192-.335h-.192v.335ZM325.314 69.757v-.335l-.192.335h.192ZM290.568 69.087h-.193v.34l.005-.005.188-.335ZM290.764 69.422l.192-.335h-.388l-.188.335h.384ZM324.93 69.422h.384v-.335h-.196l-.094.17-.094.165Z"/><path fill="#004228" d="m324.93 69.422-.192.335h.384l.192-.335h-.384ZM290.572 69.757l.192-.335h-.384l-.005.005.005.33h.192ZM283.035 82.328l.193-.335-.197-.335-.192.335.196.335Z"/><path fill="#004228" d="m283.326 82.163-.098-.17-.192.335.29-.165ZM282.745 82.498l.291-.17-.197-.335-.192.34.098.165ZM246.886 207.927l-.29-.166h-19.692l-.29.166-.094-.166h-74.158l.192.336h188.803l-.192-.336H246.98l-.094.166Z"/><path fill="#004228" d="M246.98 207.762h94.184l-.196-.335h-93.796l-.192.335ZM226.904 207.762h19.692l-.291-.166.094-.169H227.1l.094.169-.29.166ZM152.299 207.65v.004l.063.108h74.157l-.192-.335h-74.028v.223ZM246.98 207.761h-.384l.29.166.094-.166ZM226.904 207.761h-.384l.093.166.291-.166Z"/><path fill="#004228" d="M246.596 207.762h.384l.192-.335h-.384l-.192.335Z"/><path fill="#004228" d="m246.596 207.762.192-.335h-.389l-.094.169.291.166ZM227.194 207.596l-.094-.169h-.389l.192.335.291-.166Z"/><path fill="#004228" d="m226.903 207.762-.192-.335h-.384l.192.335h.384ZM152.17 207.426h.129V85.776c-.111 0-.223.01-.335.01v121.287l.206.353Z"/><path fill="#004228" d="M151.964 207.069V85.781c-.111 0-.223-.004-.335-.009v120.716l.335.581ZM152.299 207.427h-.129l.129.223v-.223ZM118.174 208.056H84.142c-31.852 0-59.912-16.078-76.512-40.567h52.348c14.318 0 27.863 3.256 39.951 9.059a92.677 92.677 0 0 1 34.264 28.287l-1.335-2.305a92.74 92.74 0 0 0-72.88-35.376H7l.353.522a92.677 92.677 0 0 0 76.789 40.715h52.111l-.192-.335h-17.887ZM136.204 207.641l.29-.17.045.076v-.245h-.143l.098.165-.29.17v.004Z"/><path fill="#004228" d="M84.137 207.721A92.003 92.003 0 0 1 8.26 167.824h51.714a92.066 92.066 0 0 1 40.263 9.265l-.312-.541c-12.089-5.803-25.634-9.059-39.951-9.059H7.625c16.601 24.489 44.665 40.567 76.512 40.567h34.032l-.192-.335h-33.84ZM136.204 207.641h-.009l-.005.004v.005l.014-.009Z"/><path fill="#004228" d="m136.19 207.65-.277.156-1.719-2.971a92.689 92.689 0 0 0-34.265-28.287l.313.541a92.083 92.083 0 0 1 35.613 30.632h-17.873l.192.335h17.887l-.143-.245.277-.161h-.005Z"/><path fill="#004228" d="M136.114 207.516c.027.04.058.08.085.12l-1.742-3.006a92.491 92.491 0 0 0-1.604-2.104l1.336 2.305c.656.885 1.3 1.774 1.925 2.68v.005Z"/><path fill="#004228" d="M136.391 207.301h-.017a94.793 94.793 0 0 0-1.917-2.671l1.742 3.006.291-.169-.099-.166ZM136.186 207.641l.005.004.004-.004h-.009Z"/><path fill="#004228" d="M136.195 207.641h.004c-.027-.045-.058-.085-.085-.125l.072.125h.009Z"/><path fill="#004228" d="m136.19 207.645-.071-.125a88.71 88.71 0 0 0-1.926-2.68l1.72 2.971.277-.161v-.005ZM136.445 208.056h-.389l.197.335h.192v-.335ZM136.445 207.721h-.196l.196.335v-.335ZM136.204 207.641h.335v-.089l-.045-.076-.29.165Z"/><path fill="#004228" d="M136.248 207.721h-.013l.192.335h.018l-.197-.335ZM136.19 207.65l.014.022v-.031l-.014.009Z"/><path fill="#004228" d="M136.203 207.721v-.049l-.013-.022-.277.161.143.245h.371l-.192-.335h-.032ZM323.331 242.263c0-3.15-1.894-5.862-4.601-7.068h-.93a7.404 7.404 0 0 1 0 14.135h.93c2.707-1.206 4.601-3.918 4.601-7.067Z"/><path fill="#004228" d="M322.996 242.263c0-3.32-2.185-6.13-5.196-7.068h-2.207c3.896 0 7.067 3.172 7.067 7.068 0 3.895-3.171 7.067-7.067 7.067h2.207a7.404 7.404 0 0 0 5.196-7.067ZM151.965 249.665h-1.689a7.403 7.403 0 0 1 0-14.805h1.3l-.192-.335h-1.108c-4.266 0-7.737 3.471-7.737 7.738 0 4.266 3.471 7.737 7.737 7.737h165.318v-.335H151.965Z"/><path fill="#004228" d="M480.04 234.525H372.69a25.25 25.25 0 0 1-.683.335H480.04a7.404 7.404 0 0 1 0 14.805h-162.2a7.78 7.78 0 0 1-2.247.335H480.04c4.266 0 7.737-3.471 7.737-7.737 0-4.267-3.471-7.738-7.737-7.738Z"/><path fill="#004228" d="M317.84 234.86c.304.094.599.206.889.335h52.299v-.245l-.053-.09h-53.139.004Z"/><path fill="#004228" d="M371.292 235.195H480.04c3.895 0 7.067 3.172 7.067 7.068 0 3.895-3.172 7.067-7.067 7.067H318.729a7.99 7.99 0 0 1-.889.335h162.2a7.403 7.403 0 0 0 0-14.805H372.007c-.17.081-.336.161-.505.237l-.215.094.005.004ZM315.593 234.86v-.335H152.156l.099.17-.291.165h163.629ZM370.979 234.86l-.192-.335h-55.189a7.79 7.79 0 0 1 2.247.335h53.138-.004Z"/><path fill="#004228" d="M150.276 249.33c-3.896 0-7.067-3.172-7.067-7.067 0-3.896 3.171-7.068 7.067-7.068h165.317v-.335H151.965l-.291.17-.098-.17h-1.3a7.403 7.403 0 0 0 0 14.805h165.317v-.335H150.276Z"/><path fill="#004228" d="m151.965 234.86-.193-.335h-.388l.196.335h.385ZM152.157 234.525h-.385l.193.335.29-.165-.098-.17ZM151.964 234.86h-.384l.094.17.29-.17ZM371.703 234.637v.223h-.335.643c.228-.107.46-.219.683-.335h-.759l-.232.112ZM371.368 234.86l-.291.17-.044-.076v.246h.259l.214-.094c.17-.076.335-.161.505-.237h-.643v-.009Z"/><path fill="#004228" d="M371.703 234.637c.076-.036.156-.072.232-.112h-.232v.112ZM371.368 234.86h.335v-.067h-.224l-.111.067ZM315.593 249.665V250c.782 0 1.533-.121 2.247-.335h-2.247ZM317.8 235.195h.929a7.702 7.702 0 0 0-.889-.335h-2.247c.769 0 1.51.117 2.207.335Z"/><path fill="#004228" d="M317.804 249.33a7.342 7.342 0 0 1-2.206.335h2.247c.304-.094.603-.205.889-.335h-.93ZM317.84 234.86a7.78 7.78 0 0 0-2.247-.335v.335h2.247Z"/><path fill="#004228" d="M315.593 249.33v.335c.769 0 1.51-.116 2.207-.335h-2.207ZM315.593 234.86v.335h2.207a7.38 7.38 0 0 0-2.207-.335ZM109.409 42.89c0-2.742.263-5.418.759-8.018C113.916 15.202 131.205.335 151.964.335c20.76 0 38.053 14.867 41.801 34.537a43.06 43.06 0 0 1 .76 8.014v-.33h.33C194.672 19.062 175.507 0 151.964 0c-23.542 0-42.703 19.058-42.886 42.556h.331v.335ZM109.083 43.226c.031 3.846.567 7.639 1.594 11.289h.349a42.466 42.466 0 0 1-1.613-11.624v.335h-.33ZM194.851 43.226h-.331v-.33c0 4.029-.563 7.929-1.613 11.623h.349a42.612 42.612 0 0 0 1.595-11.289v-.004ZM177.915 77.043c7.206-5.481 12.571-13.236 15.149-21.858h-.242v-.335c-5.133 17.578-21.309 30.44-40.518 30.592v.335c9.341-.072 18.191-3.083 25.615-8.73l-.004-.004Z"/><path fill="#004228" d="M111.115 54.515v.335c5.133 17.579 21.309 30.44 40.514 30.592v-.264h.67v.264c19.205-.147 35.386-13.013 40.519-30.592v-.335h.089a42.441 42.441 0 0 0 1.613-11.624v-.01a42.76 42.76 0 0 0-.759-8.014c-.059.304-.117.604-.179.903.393 2.314.603 4.69.603 7.112a42.01 42.01 0 0 1-1.693 11.865c-2.506 8.582-7.827 16.31-14.984 21.756-7.393 5.624-16.225 8.6-25.544 8.6-9.319 0-18.146-2.976-25.539-8.6-7.157-5.446-12.478-13.174-14.984-21.756a42.034 42.034 0 0 1-1.693-11.865c0-2.426.21-4.798.603-7.112-.062-.3-.12-.603-.178-.903a42.688 42.688 0 0 0 .853 19.643h.089v.005Z"/><path fill="#004228" d="M111.115 54.85v.335h-.241c2.573 8.622 7.943 16.381 15.149 21.858 7.42 5.647 16.274 8.658 25.611 8.73v-.336c-19.201-.147-35.381-13.013-40.514-30.592l-.005.005ZM151.964.67c20.858 0 38.227 15.203 41.622 35.109.063-.3.121-.603.179-.903C190.012 15.206 172.728.34 151.964.34c-20.764 0-38.048 14.867-41.796 34.536.058.304.116.604.179.903C113.737 15.872 131.106.675 151.964.675V.67ZM109.409 42.89v-.334h-.331v.335h.335-.004ZM109.083 43.226h.33v-.335h-.335c0 .111.005.223.005.335ZM194.524 42.886h.335v-.335h-.33v.33l-.005.005ZM194.524 43.226h.331c0-.112.004-.224.004-.335h-.335v.335ZM151.964 85.781c.112 0 .224-.004.335-.009v-.335c-.111 0-.223.01-.335.01v.334Z"/><path fill="#004228" d="M152.299 85.442v-.263h-.67v.263c.112 0 .224.009.335.009.112 0 .224-.004.335-.009Z"/><path fill="#004228" d="M151.964 85.781v-.335c-.111 0-.223-.004-.335-.008v.334c.112 0 .224.01.335.01ZM479.017 59.308h-.67v13.523h.67V59.308ZM479.017 45.111h-.67v13.527h.67V45.111ZM478.342 58.638H464.82v.67h13.522v-.67ZM492.544 58.638h-13.527v.67h13.527v-.67ZM479.017 58.638h-.67v.67h.67v-.67ZM300.851 113.095l19.5 33.674v-.335h.196l-19.316-33.353h-.375l-.005.014ZM343.818 186.622h-.384l27.599 47.662v-.67l-27.215-46.992Z"/><path fill="#004228" d="M370.787 234.525h.246v-.241l-27.599-47.662h-.192v-.33h-.005l-22.689-39.188h-.197v-.335l-19.5-33.674-.192.335 70.128 121.095Z"/><path fill="#004228" d="m343.429 185.952-22.493-38.848h-.389l22.69 39.188h.004v-.34h.188ZM300.855 113.081h.376l-.188-.326-.188.326ZM320.351 146.769h.389l-.192-.335h-.197v.335ZM343.626 186.292h-.384l.192.33h.384l-.192-.33Z"/><path fill="#004228" d="m320.548 147.104-.197-.335v.335h.197ZM343.242 186.292v.33h.192l-.192-.33Z"/><path fill="#004228" d="m320.936 147.104-.196-.335h-.389l.197.335h.388ZM343.626 186.292l-.197-.34h-.187v.34h.384ZM300.851 113.095l.005-.014h-.014l.009.014ZM300.476 113.081l-.009.018.192.331.192-.335-.009-.014h-.366Z"/><path fill="#004228" d="M300.476 113.081h-.022l.013.018.009-.018ZM300.856 113.081l.187-.326-.098-.161-.286.166.183.321h.014Z"/><path fill="#004228" d="M300.476 113.081h.366l-.183-.321-.183.321ZM300.659 112.76l-.29.169.085.152h.022l.183-.321ZM370.979 234.86l.054.09v-.09h-.054ZM371.033 234.86v-.335h-.246l.192.335h.054ZM371.033 234.95l.044.08.291-.17h-.335v.09ZM371.368 234.793v.067l.111-.067h-.111ZM371.368 234.793h-.04l.04.067v-.067Z"/><path fill="#004228" d="M371.033 234.793v.067h.335l-.04-.067h-.295ZM254.771 57.91l21.068 36.382.192-.335-20.97-36.212a6.483 6.483 0 0 0-5.593-3.23h-56.212c-.031.111-.058.223-.094.335h56.302a6.134 6.134 0 0 1 5.307 3.06Z"/><path fill="#004228" d="m254.485 58.08 21.166 36.551.192-.34-21.068-36.381a6.128 6.128 0 0 0-5.307-3.06h-56.301l-.027.093c-.022.08-.054.161-.076.242h56.404a5.811 5.811 0 0 1 5.017 2.895ZM276.325 94.457l-.098-.165-.187.33.285-.165Z"/><path fill="#004228" d="m275.843 94.292.192.335.005-.005.187-.33-.192-.335-.192.335Z"/><path fill="#004228" d="m275.745 94.792.29-.165-.192-.335-.192.34.094.16ZM192.818 54.85h.344l.094-.335h-.349c-.031.107-.058.214-.089.321v.014ZM193.162 54.85h-.344v.335h.241c.022-.08.054-.161.076-.242l.027-.093Z"/><path fill="#004228" d="M192.818 54.515v.321c.031-.107.058-.214.089-.321h-.089ZM375.433 112.92c-1.143.09-2.291.148-3.448.166h-.009c14.094.223 27.308 5.883 37.208 15.935 9.913 10.06 15.372 23.382 15.372 37.512 0-1.43.058-2.85.165-4.262-2.059-26.286-23.015-47.26-49.292-49.351h.004ZM371.976 112.42c-.291 0-.577-.009-.867-.009v.014c.29 0 .576 0 .867-.009v.004Z"/><path fill="#004228" d="M424.725 162.271c.045-.594.103-1.184.17-1.774-1.327-12.03-6.616-23.207-15.229-31.945-8.787-8.917-20.148-14.421-32.428-15.797-.599.067-1.197.121-1.8.17 26.276 2.091 47.232 23.065 49.292 49.35l-.005-.004ZM375.433 112.585c26.277-2.09 47.233-23.064 49.293-49.35a55.848 55.848 0 0 1-.166-4.262c0 14.126-5.459 27.447-15.372 37.512-9.899 10.052-23.118 15.712-37.208 15.935h.004a55.53 55.53 0 0 1 3.449.165ZM371.113 113.081v.014c.291 0 .577 0 .867-.009-.286 0-.576-.009-.862-.009l-.005.004Z"/><path fill="#004228" d="M409.666 96.954c8.613-8.742 13.902-19.915 15.229-31.946a57.7 57.7 0 0 1-.169-1.773c-2.06 26.286-23.016 47.26-49.293 49.35.603.049 1.202.103 1.8.17 12.281-1.376 23.646-6.88 32.429-15.796l.004-.005Z"/><path fill="#004228" d="M371.113 112.424v.657c.291 0 .577 0 .862.009h.009a55.53 55.53 0 0 0 3.449-.165 54.74 54.74 0 0 0-3.453-.17 51.894 51.894 0 0 0 3.453-.17 55.53 55.53 0 0 0-3.449-.165h-.004c-.29 0-.576.009-.867.009v-.005Z"/><path fill="#004228" d="M375.433 112.585a54.74 54.74 0 0 1-3.453.17c1.161.018 2.31.076 3.453.17a59.624 59.624 0 0 0 1.801-.17 63.055 63.055 0 0 0-1.801-.17ZM474.357 112.92c-26.276 2.091-47.237 23.065-49.296 49.351.107 1.412.165 2.832.165 4.257 0-14.125 5.459-27.447 15.372-37.512 9.904-10.051 23.118-15.711 37.213-15.935h-.005a55.566 55.566 0 0 1-3.449-.165v.004ZM478.682 112.425v-.014c-.291 0-.577 0-.867.009.286 0 .576.009.862.009l.005-.004Z"/><path fill="#004228" d="M440.124 128.552c-8.613 8.742-13.902 19.915-15.229 31.945.067.59.121 1.18.17 1.774 2.059-26.286 23.02-47.26 49.297-49.351a59.622 59.622 0 0 1-1.801-.169c-12.28 1.376-23.645 6.879-32.432 15.796l-.005.005ZM424.895 166.533c0-1.434-.058-2.855-.17-4.262a56.348 56.348 0 0 0-.165 4.262h.67c0-1.43-.058-2.851-.165-4.258a53.67 53.67 0 0 0-.17 4.258Z"/><path fill="#004228" d="M424.726 162.271c.111 1.407.169 2.828.169 4.262 0-1.434.058-2.855.17-4.258a47.262 47.262 0 0 0-.17-1.773 57.49 57.49 0 0 0-.169 1.773v-.004ZM477.815 113.09c.29 0 .576.009.867.009v-.013c-.291 0-.577 0-.867.009v-.005ZM474.357 112.585a55.566 55.566 0 0 1 3.449-.165h.009c-14.094-.223-27.309-5.883-37.213-15.935-9.913-10.06-15.372-23.382-15.372-37.512 0 1.43-.058 2.85-.165 4.258 2.059 26.285 23.02 47.259 49.297 49.35l-.005.004Z"/><path fill="#004228" d="M472.557 112.755a59.254 59.254 0 0 1 1.8-.17c-26.277-2.09-47.237-23.064-49.297-49.35a45.383 45.383 0 0 1-.169 1.773c1.326 12.03 6.616 23.204 15.229 31.946 8.787 8.917 20.152 14.421 32.432 15.797l.005.004ZM424.895 58.973h-.335c0 1.43.058 2.85.165 4.262.112-1.407.17-2.828.17-4.262ZM425.23 58.973h-.335c0 1.434.058 2.855.17 4.258a56.34 56.34 0 0 0 .165-4.258Z"/><path fill="#004228" d="M424.895 65.008c.067-.59.121-1.179.17-1.773a53.666 53.666 0 0 1-.17-4.258c0 1.434-.058 2.855-.169 4.262.044.595.102 1.184.169 1.774v-.005ZM474.357 112.585c1.144.09 2.292.152 3.454.17-1.162.018-2.31.076-3.454.17 1.144.089 2.292.147 3.449.165h.005c.29 0 .576-.009.866-.009v-.657c-.29 0-.576 0-.862-.008h-.009a54.058 54.058 0 0 0-3.449.165v.004Z"/><path fill="#004228" d="M474.357 112.92a54.774 54.774 0 0 1 3.454-.169 51.924 51.924 0 0 1-3.454-.17c-.603.049-1.201.103-1.8.17.599.067 1.197.12 1.8.169ZM65.576 56.087a3.162 3.162 0 0 0 0 3.145l86.062 148.614 8.966 15.484h190.348l-56.913-98.272-.193.335 47.506 82.033h.192v.335l8.823 15.234H160.792l-8.631-14.899h-.192v-.335l-.009-.017h-.335v-.577L65.862 59.071a2.812 2.812 0 0 1 2.435-4.217h42.47l-.094-.335H68.292a3.152 3.152 0 0 0-2.72 1.573l.004-.005Z"/><path fill="#004228" d="M341.548 208.097h-.192l8.435 14.563H160.993l-8.439-14.563h-.384l8.626 14.898h189.575l-8.823-15.234v.336ZM340.968 207.426h.388l-47.505-82.033-.192.335 47.309 81.698ZM151.964 207.739v.005l.009.018v-.023h-.009ZM66.156 58.897a2.474 2.474 0 0 1 2.144-3.712h42.574c-.022-.08-.054-.161-.076-.242l-.027-.093h-42.47a2.812 2.812 0 0 0-2.435 4.217l85.763 148.096v-.67L66.156 58.897Z"/><path fill="#004228" d="m293.654 125.058.197.335.192-.335-.098-.17-.291.17Z"/><path fill="#004228" d="m293.654 125.058-.192.335.197.335.192-.335-.197-.335Z"/><path fill="#004228" d="m293.364 125.223.098.17.192-.335-.29.165ZM151.974 207.761v.336h.196l-.196-.336ZM341.549 207.427h-.193l.193.335v-.335ZM341.548 208.097v-.336h-.384l.192.336h.192Z"/><path fill="#004228" d="M152.362 207.761h-.388l.196.336h.384l-.192-.336ZM341.164 207.762h.384l-.192-.335h-.388l.196.335Z"/><path fill="#004228" d="m152.362 207.762-.062-.108v.085h-.326v.023h.388ZM151.629 207.739h.335l-.335-.576v.576ZM152.17 207.426l-.206-.357v.67h.009v-.313h.197Z"/><path fill="#004228" d="m151.964 207.069-.335-.576v.67l.335.576v-.67ZM152.17 207.427h-.196v.312h.326V207.65l-.13-.223ZM111.116 54.85v-.014c-.032-.107-.059-.214-.09-.321h-.348c.031.111.058.223.094.335h.344Z"/><path fill="#004228" d="M111.115 54.515h-.089c.031.107.058.214.089.321v-.321ZM110.869 55.185h.242v-.335h-.344l.026.093c.023.08.054.161.076.242ZM371.368 186.622v43.78c.093-.608.205-1.215.335-1.814v-41.979c-.112 0-.219.009-.331.013h-.004Z"/><path fill="#004228" d="M371.033 186.622v46.987l.022.041c.045-1.095.147-2.18.313-3.253v-43.779h-.335v.004ZM371.368 234.195l.009.017c.026-1.295.134-2.573.326-3.824v-1.8c-.13.599-.242 1.206-.335 1.814V234.195Z"/><path fill="#004228" d="M371.703 234.525v-4.136a29.044 29.044 0 0 0-.327 3.824l.184.312h.143ZM371.368 234.195v-3.789a29.292 29.292 0 0 0-.313 3.252l.313.537ZM371.368 186.287v.331c.111 0 .219-.009.33-.014v-.317h-.335.005Z"/><path fill="#004228" d="M371.113 186.292v.335h.255v-.331h-.255v-.004ZM371.033 186.622h.08v-.335h-.08v.335ZM371.658 234.695l-.174.103h.219v-.161s-.04.018-.063.031l.018.027ZM371.56 234.525l.08.139s.041-.018.063-.032v-.111h-.143v.004ZM371.055 233.654l-.022-.04v.67l.009.018c0-.215.004-.429.013-.644v-.004Z"/><path fill="#004228" d="m371.042 234.297-.009-.017v.241h.004v-.228l.005.004ZM371.372 234.525c0-.107 0-.21.005-.313l-.009-.017v.335h.004v-.005Z"/><path fill="#004228" d="m371.56 234.525-.183-.313c0 .103-.005.21-.005.313h.188ZM371.042 234.297l.134.228h.192v-.335l-.313-.536c-.009.214-.009.429-.013.643ZM371.171 234.525l-.134-.228v.228h.134ZM371.037 234.525h-.004v.268c0-.089 0-.179.004-.268ZM371.479 234.793l.175-.102-.018-.027c-.09.044-.183.089-.273.129h.116Z"/><path fill="#004228" d="M371.368 234.793c0-.089 0-.179.004-.268h-.004v.268Z"/><path fill="#004228" d="M371.368 234.793c.093-.04.183-.085.272-.129l-.08-.139h-.188c0 .089-.004.179-.004.268ZM371.368 234.793v-.268h-.197l.157.268h.04Z"/><path fill="#004228" d="M371.033 234.793h.295l-.157-.268h-.134c0 .089-.004.179-.004.268Z"/></svg>