<svg xmlns:xlink="http://www.w3.org/1999/xlink" width="120" height="140.38" viewBox="0 0 106 124" fill="none" xmlns="http://www.w3.org/2000/svg"><g id="Group 53803" fill="none"><path id="Vector" d="M105.037 33.2881C94.1641 35.7132 86.2555 44.255 84.1133 54.4675C94.9859 52.0424 102.895 43.5006 105.037 33.2881Z" fill="#0B996E" stroke="#2C2C2C" stroke-width="0.73px" stroke-linecap="round" stroke-linejoin="round"></path><path id="Vector_2" d="M94.5819 16.46C94.5819 16.46 83.588 43.554 85.0026 69.4894" stroke="#2C2C2C" stroke-width="0.73px" stroke-linecap="round" stroke-linejoin="round" fill="none"></path><path id="Vector_3" d="M93.2203 7.86466C97.0332 6.54431 101.196 8.55178 102.53 12.3646C103.864 16.1775 101.843 20.3406 98.0167 21.6744C94.1904 23.0082 90.0407 20.9873 88.7069 17.1744C87.3866 13.3616 89.4075 9.19848 93.2203 7.86466Z" fill="#0B996E" stroke="#2C2C2C" stroke-width="0.73px" stroke-linecap="round" stroke-linejoin="round"></path><g id="Group" fill="none"><path id="Vector_4" d="M7.50586 34.9307C7.50586 34.9307 18.5941 53.1056 20.5207 96.9465" stroke="#2C2C2C" stroke-width="0.73px" stroke-linecap="round" stroke-linejoin="round" fill="none"></path><path id="Vector_5" d="M8.70458 29.8383C12.0998 30.6332 14.215 34.0418 13.4066 37.437C12.5983 40.8322 9.20307 42.9474 5.8079 42.1391C2.41272 41.3307 0.297472 37.9355 1.10585 34.5403C1.91422 31.1451 5.3094 29.0299 8.70458 29.8383Z" fill="#0B996E" stroke="#2C2C2C" stroke-width="0.73px" stroke-linecap="round" stroke-linejoin="round"></path></g><path id="Vector_6" d="M98.6101 59.3311H4.35352V123.018H98.6101V59.3311Z" fill="#006A43" stroke="#2C2C2C" stroke-width="1.37791px" stroke-linecap="round" stroke-linejoin="round"></path><path id="Vector_7" d="M4.35352 59.331H98.5966L51.2797 13.5635L4.35352 59.331Z" fill="#D7FEC8" stroke="#2C2C2C" stroke-width="0.73px" stroke-linecap="round" stroke-linejoin="round"></path><path id="Vector_8" d="M85.0418 76.0236L51.4134 109.436L17.9062 74.7706V29.542H85.0418V76.0236Z" fill="#FFFDF6" stroke="#2C2C2C" stroke-width="0.73px" stroke-linecap="round" stroke-linejoin="round"></path><path id="Vector_9" d="M98.5966 123.383C98.7982 123.383 98.9616 123.219 98.9616 123.018V59.3311C98.9616 59.1824 98.8715 59.0486 98.7338 58.9928C98.596 58.937 98.4382 58.9702 98.3347 59.0769L51.4818 107.363L4.61543 59.0768C4.51192 58.9702 4.35408 58.937 4.21636 58.9928C4.07863 59.0487 3.98852 59.1824 3.98852 59.3311V123.018C3.98852 123.219 4.15193 123.383 4.35352 123.383H98.5966Z" fill="#D7FEC8" stroke="#2C2C2C" stroke-width="0.73px" stroke-linecap="round" stroke-linejoin="round"></path><path id="Vector_10" d="M34.6797 80.1738C42.3593 89.6453 44.717 98.4835 47.1287 107.052" stroke="#2C2C2C" stroke-width="0.73px" stroke-linecap="round" stroke-linejoin="round" fill="none"></path><path id="Vector_11" d="M4.35352 123.018H98.6101L59.9563 84.3638C55.2812 79.6886 47.6959 79.6886 43.0073 84.3638L4.35352 123.018Z" fill="#0B996E" stroke="#2C2C2C" stroke-width="0.73px" stroke-linecap="round" stroke-linejoin="round"></path><path id="Vector_12" d="M9.56641 71.6454C20.5334 69.7323 31.1231 74.596 36.9973 83.2187C26.0303 85.1318 15.4541 80.2681 9.56641 71.6454Z" fill="#D7FEC8" stroke="#2C2C2C" stroke-width="0.73px" stroke-linecap="round" stroke-linejoin="round"></path><path id="Vector_13" d="M17.3535 8.21469C21.6783 8.21469 25.1678 11.7042 25.1678 16.029C25.1678 11.7042 28.6573 8.21469 32.9821 8.21469C28.6573 8.21469 25.1678 4.71173 25.1678 0.400391C25.1678 4.7252 21.6649 8.21469 17.3535 8.21469Z" fill="#FAF5E3" stroke="#2C2C2C" stroke-width="0.73px" stroke-linecap="round" stroke-linejoin="round"></path></g></svg>