<svg width="148" height="48" viewBox="0 0 148 48" fill="none" xmlns="http://www.w3.org/2000/svg">
<path d="M35.016 26.7191C35.3248 24.4348 36.7513 22.9463 38.7808 22.9463C40.9279 22.9463 42.2368 24.4053 42.178 26.7191H35.016ZM38.9132 20.2493C33.9865 20.2493 31.207 24.0516 31.207 29.1655C31.207 35.1195 34.0895 37.8459 39.3544 37.8459C41.428 37.8459 43.5016 37.4775 45.1928 36.7553L44.8546 33.8668C43.4575 34.5447 41.6633 34.9574 39.9279 34.9574C36.5602 34.9574 34.8395 33.1889 34.9425 29.2834H45.7075C45.7811 28.635 45.8105 28.0602 45.8105 27.5739C45.8105 23.5505 43.7369 20.2493 38.9132 20.2493ZM58.208 20.2493C55.3549 20.2493 53.3254 21.7378 52.3401 23.919L52.3107 23.8895C52.4725 22.9316 52.546 21.4726 52.546 20.5883H49.0753V37.5069H52.7078V29.3276C52.7078 25.9675 54.5755 23.2705 57.1197 23.2705C59.0609 23.2705 59.6345 24.4937 59.6345 26.6012V37.4922H63.2375V25.6433C63.2375 22.6663 62.0463 20.2493 58.208 20.2493ZM70.1201 26.7191C70.429 24.4348 71.8555 22.9463 73.885 22.9463C76.0321 22.9463 77.341 24.4053 77.2821 26.7191H70.1201ZM74.032 20.2493C69.1054 20.2493 66.3259 24.0516 66.3259 29.1655C66.3259 35.1195 69.2083 37.8459 74.4732 37.8459C76.5468 37.8459 78.6204 37.4775 80.3117 36.7553L79.9734 33.8668C78.5763 34.5447 76.7821 34.9574 75.0468 34.9574C71.679 34.9574 69.9584 33.1889 70.0466 29.2834H80.8117C80.8852 28.635 80.9146 28.0602 80.9146 27.5739C80.9293 23.5505 78.8557 20.2493 74.032 20.2493ZM87.3707 24.3316H87.3119C87.5472 23.0347 87.6501 21.5315 87.6501 20.5883H84.1794V37.5069H87.8119V30.6393C87.8119 25.5696 89.4443 23.2116 92.8121 23.8306L92.9739 20.2641C89.8267 19.9399 88.1207 22.0473 87.3707 24.3316ZM105.768 34.4268C105.048 34.6184 104.165 34.751 103.283 34.751C100.106 34.751 97.9152 32.7467 97.9152 29.1213C97.9152 25.2601 100.459 23.2558 103.636 23.2558C105.268 23.2558 106.813 23.58 108.313 24.1695L108.945 21.0894C107.18 20.5588 105.415 20.3083 103.607 20.3083C97.6946 20.3083 94.1651 24.3022 94.1651 29.4161C94.1651 34.9868 97.8564 37.8754 102.959 37.8754C105.283 37.8754 107.342 37.4775 109.298 36.7259V28.6939H105.768V34.4268ZM112.754 37.5069H116.386V20.5883H112.754V37.5069Z" fill="#3ABDFA"/>
<mask id="mask0_408_4577" style="mask-type:luminance" maskUnits="userSpaceOnUse" x="133" y="20" width="15" height="19">
<path d="M133.285 20.146H147.565V38.1257H133.285V20.146Z" fill="white"/>
</mask>
<g mask="url(#mask0_408_4577)">
<path d="M143.815 29.4309C143.815 31.8478 142.153 35.0016 139.668 35.0016C139.065 35.0016 138.58 34.9132 138.227 34.7216C137.3 34.2206 136.359 31.8036 138.153 30.3593C138.609 29.9909 139.3 29.6962 140.05 29.5046C140.888 29.2982 142.05 29.0919 143.815 29.0919V29.4309ZM147.55 37.5365C147.477 36.107 147.447 34.3679 147.447 32.9089V25.9823C147.447 22.519 146.021 20.2642 140.859 20.2642C138.682 20.2642 136.579 20.7358 134.918 21.3842L135.256 24.4791C136.682 23.5948 138.727 23.1232 140.285 23.1232C142.933 23.1232 143.815 24.5528 143.815 26.6455C140.315 26.6455 136.874 27.515 135.094 29.3277C134.609 29.8288 134.256 30.3446 133.976 31.0078C133.138 32.9237 133.697 34.6774 134.462 35.8122C135.506 37.3744 136.653 37.9197 138.594 37.8902C141.286 37.8312 143.389 36.387 144.197 34.3827L144.227 34.4269C144.094 35.3406 144.05 36.4607 144.05 37.5512H147.55" fill="#3ABDFA"/>
</g>
<path d="M123.565 24.921C123.565 23.6388 125.3 23.064 127.33 23.064C128.433 23.064 129.638 23.2556 130.653 23.6535L130.815 20.8682C129.977 20.5292 128.624 20.3671 127.624 20.3818C122.976 20.3818 119.8 22.3861 119.785 25.2747C119.756 31.0518 128.035 29.7696 128.021 33.1297C128.021 34.5003 126.785 34.7361 124.785 34.7361C123.476 34.7361 121.418 34.2203 120.241 33.6898L120.123 36.9173C121.226 37.3594 123.3 37.7573 124.565 37.7573C129.138 37.7573 131.859 35.9004 131.874 32.776C131.889 27.22 123.55 28.1485 123.565 24.921ZM35.1058 26.66C35.4147 24.3757 36.8412 22.8872 38.8707 22.8872C41.0031 22.8872 42.3267 24.3462 42.2531 26.66H35.1058ZM39.003 20.1902C34.0764 20.1902 31.2969 23.9925 31.2969 29.1064C31.2969 35.0604 34.1793 37.7721 39.4442 37.7721C41.5178 37.7721 43.5914 37.4036 45.2826 36.6815L44.9444 33.7929C43.5473 34.4709 41.7531 34.8835 40.0178 34.8835C36.65 34.8835 34.9294 33.115 35.0176 29.2096H45.7827C45.8415 28.5611 45.8856 27.9864 45.8856 27.5148C45.8856 23.4914 43.8267 20.1902 39.003 20.1902ZM58.2831 20.1902C55.43 20.1902 53.4006 21.6935 52.4152 23.8599L52.3858 23.8304C52.5476 22.8872 52.6211 21.4134 52.6211 20.5292H49.1651V37.4331H52.7976V29.2685C52.7976 25.8936 54.6653 23.2114 57.2095 23.2114C59.1361 23.2114 59.7243 24.4346 59.7243 26.5421V37.4331H63.298V25.5989C63.298 22.6072 62.1067 20.1902 58.2831 20.1902ZM70.1953 26.66C70.5041 24.3757 71.9306 22.8872 73.9601 22.8872C76.0925 22.8872 77.4161 24.3462 77.3573 26.66H70.1953ZM74.0925 20.1902C69.1658 20.1902 66.3863 23.9925 66.3863 29.1064C66.3863 35.0604 69.2688 37.7721 74.5336 37.7721C76.6072 37.7721 78.6661 37.4036 80.3721 36.6815L80.0338 33.7929C78.6367 34.4709 76.8425 34.8835 75.1072 34.8835C71.7541 34.8835 70.0188 33.115 70.1217 29.2096H80.8868C80.9456 28.5611 80.9897 27.9864 80.9897 27.5148C80.975 23.4914 78.9161 20.1902 74.0925 20.1902ZM87.4311 24.2725H87.3576C87.5929 22.9756 87.6959 21.4724 87.6959 20.5292H84.2399V37.4331H87.8723V30.5507C87.8723 25.481 89.5047 23.1377 92.8578 23.742L93.0343 20.1755C89.8724 19.8955 88.1812 22.0029 87.4311 24.2725ZM105.814 34.3677C105.094 34.574 104.211 34.6919 103.329 34.6919C100.167 34.6919 97.9609 32.7024 97.9609 29.0622C97.9609 25.201 100.52 23.1967 103.682 23.1967C105.314 23.1967 106.844 23.5209 108.344 24.1104L108.976 21.0303C107.211 20.4997 105.446 20.2492 103.652 20.2492C97.7403 20.2492 94.2108 24.243 94.2108 29.3569C94.2108 34.9277 97.9021 37.8015 103.005 37.8015C105.329 37.8015 107.388 37.4036 109.344 36.652V28.6348H105.814V34.3677ZM112.8 37.4478H116.432V20.5292H112.8V37.4478Z" fill="#3ABDFA"/>
<mask id="mask1_408_4577" style="mask-type:luminance" maskUnits="userSpaceOnUse" x="133" y="20" width="15" height="19">
<path d="M133.285 20.146H147.565V38.1257H133.285V20.146Z" fill="white"/>
</mask>
<g mask="url(#mask1_408_4577)">
<path d="M143.83 29.3718C143.83 31.7887 142.169 34.9426 139.698 34.9426C139.095 34.9426 138.61 34.8541 138.257 34.6478C137.33 34.1467 136.389 31.7298 138.183 30.2855C138.639 29.9171 139.33 29.6371 140.08 29.4307C140.904 29.2244 142.08 29.0181 143.845 29.0181V29.3718H143.83ZM147.566 37.4774C147.492 36.0479 147.463 34.3089 147.463 32.8498V25.9232C147.463 22.4599 146.036 20.2051 140.874 20.2051C138.698 20.2051 136.595 20.6767 134.933 21.3251L135.271 24.42C136.698 23.5357 138.727 23.0642 140.301 23.0642C142.933 23.0642 143.816 24.4789 143.816 26.5864C140.316 26.5864 136.889 27.4412 135.095 29.2539C134.595 29.755 134.257 30.2708 133.977 30.934C133.139 32.8498 133.698 34.6036 134.448 35.7384C135.492 37.3006 136.654 37.8459 138.58 37.8016C141.257 37.7427 143.36 36.2984 144.183 34.2941L144.227 34.3236C144.095 35.2373 144.051 36.3574 144.051 37.4479H147.566" fill="#3ABDFA"/>
</g>
<path d="M123.593 24.8623C123.593 23.5802 125.328 23.0054 127.358 23.0054C128.461 23.0054 129.652 23.197 130.682 23.5949L130.843 20.8095C130.005 20.4706 128.652 20.3084 127.652 20.3232C123.019 20.3232 119.828 22.3275 119.828 25.216C119.799 30.9931 128.064 29.6962 128.064 33.0564C128.064 34.427 126.828 34.6628 124.828 34.6628C123.52 34.6628 121.461 34.147 120.284 33.6164L120.166 36.8439C121.269 37.286 123.343 37.684 124.608 37.684C129.181 37.684 131.902 35.8418 131.902 32.7174C131.902 27.1614 123.578 28.0898 123.593 24.8623Z" fill="#3ABDFA"/>
<mask id="mask2_408_4577" style="mask-type:luminance" maskUnits="userSpaceOnUse" x="4" y="13" width="32" height="35">
<path d="M4.08984 13.6616H35.6645V48H4.08984V13.6616Z" fill="white"/>
</mask>
<g mask="url(#mask2_408_4577)">
<path d="M16.4134 13.8975C5.16301 18.5545 -4.41085 30.7424 16.9281 48H35.0758C35.0758 48 -1.49899 26.3506 16.4134 13.8975Z" fill="#C3CC25"/>
</g>
<mask id="mask3_408_4577" style="mask-type:luminance" maskUnits="userSpaceOnUse" x="0" y="29" width="17" height="19">
<path d="M0.5 29.4897H16.2947V48H0.5V29.4897Z" fill="white"/>
</mask>
<g mask="url(#mask3_408_4577)">
<path d="M1.57228 30.1089C1.57228 30.1089 -1.76607 38.7008 3.38116 48.0002H15.8522C9.61667 45.1853 1.30756 37.3303 1.57228 30.1089Z" fill="#C3CC25"/>
</g>
<path d="M23.1038 0H3.19141C3.19141 0 26.0157 7.53086 16.0889 22.8284C16.0889 22.8284 32.9718 10.9794 23.1038 0Z" fill="#3ABDFA"/>
</svg>
