<svg width="75" height="24" viewBox="0 0 75 24" fill="none" xmlns="http://www.w3.org/2000/svg">
<g clip-path="url(#clip0_573_12)">
<path d="M17.758 13.3596C17.9124 12.2174 18.6257 11.4732 19.6404 11.4732C20.714 11.4732 21.3684 12.2027 21.339 13.3596H17.758ZM19.7066 10.1247C17.2433 10.1247 15.8535 12.0258 15.8535 14.5828C15.8535 17.5597 17.2947 18.923 19.9272 18.923C20.964 18.923 22.0008 18.7387 22.8464 18.3777L22.6773 16.9334C21.9787 17.2724 21.0816 17.4787 20.214 17.4787C18.5301 17.4787 17.6698 16.5944 17.7212 14.6417H23.1038C23.1405 14.3175 23.1552 14.0301 23.1552 13.7869C23.1552 11.7753 22.1184 10.1247 19.7066 10.1247ZM29.354 10.1247C27.9275 10.1247 26.9127 10.8689 26.4201 11.9595L26.4053 11.9448C26.4862 11.4658 26.523 10.7363 26.523 10.2942H24.7876V18.7535H26.6039V14.6638C26.6039 12.9837 27.5377 11.6353 28.8098 11.6353C29.7805 11.6353 30.0672 12.2469 30.0672 13.3006V18.7461H31.8688V12.8216C31.8688 11.3331 31.2732 10.1247 29.354 10.1247ZM35.3101 13.3596C35.4645 12.2174 36.1777 11.4732 37.1925 11.4732C38.266 11.4732 38.9205 12.2027 38.8911 13.3596H35.3101ZM37.266 10.1247C34.8027 10.1247 33.4129 12.0258 33.4129 14.5828C33.4129 17.5597 34.8542 18.923 37.4866 18.923C38.5234 18.923 39.5602 18.7387 40.4058 18.3777L40.2367 16.9334C39.5382 17.2724 38.6411 17.4787 37.7734 17.4787C36.0895 17.4787 35.2292 16.5944 35.2733 14.6417H40.6558C40.6926 14.3175 40.7073 14.0301 40.7073 13.7869C40.7147 11.7753 39.6779 10.1247 37.266 10.1247ZM43.9354 12.1658H43.9059C44.0236 11.5174 44.0751 10.7658 44.0751 10.2942H42.3397V18.7535H44.156V15.3196C44.156 12.7848 44.9722 11.6058 46.656 11.9153L46.7369 10.132C45.1633 9.96993 44.3104 11.0237 43.9354 12.1658ZM53.1342 17.2134C52.7739 17.3092 52.3327 17.3755 51.8915 17.3755C50.3032 17.3755 49.2076 16.3734 49.2076 14.5607C49.2076 12.63 50.4797 11.6279 52.068 11.6279C52.8842 11.6279 53.6563 11.79 54.4063 12.0848L54.7225 10.5447C53.8401 10.2794 52.9577 10.1541 52.0533 10.1541C49.0973 10.1541 47.3325 12.1511 47.3325 14.708C47.3325 17.4934 49.1782 18.9377 51.7297 18.9377C52.8915 18.9377 53.921 18.7387 54.899 18.3629V14.347H53.1342V17.2134ZM56.627 18.7535H58.4432V10.2942H56.627V18.7535Z" fill="#FAFAFA"/>
<mask id="mask0_573_12" style="mask-type:luminance" maskUnits="userSpaceOnUse" x="66" y="10" width="9" height="10">
<path d="M66.8926 10.073H74.0325V19.0629H66.8926V10.073Z" fill="white"/>
</mask>
<g mask="url(#mask0_573_12)">
<path d="M72.1575 14.7154C72.1575 15.9239 71.3266 17.5008 70.0839 17.5008C69.7824 17.5008 69.5398 17.4566 69.3633 17.3608C68.9 17.1103 68.4294 15.9018 69.3265 15.1797C69.5545 14.9955 69.9001 14.8481 70.2751 14.7523C70.6942 14.6491 71.2751 14.546 72.1575 14.546V14.7154ZM74.0252 18.7682C73.9885 18.0535 73.9737 17.184 73.9737 16.4545V12.9912C73.9737 11.2595 73.2605 10.1321 70.6795 10.1321C69.5912 10.1321 68.5397 10.3679 67.7088 10.6921L67.8779 12.2395C68.5912 11.7974 69.6133 11.5616 70.3927 11.5616C71.7163 11.5616 72.1575 12.2764 72.1575 13.3227C70.4074 13.3227 68.6868 13.7575 67.7971 14.6639C67.5544 14.9144 67.3779 15.1723 67.2382 15.5039C66.8191 16.4618 67.0985 17.3387 67.4809 17.9061C68.003 18.6872 68.5765 18.9598 69.5471 18.9451C70.8928 18.9156 71.9443 18.1935 72.3487 17.1913L72.3634 17.2134C72.2972 17.6703 72.2752 18.2303 72.2752 18.7756H74.0252" fill="#FAFAFA"/>
</g>
<path d="M62.0324 12.4605C62.0324 11.8194 62.9 11.532 63.9148 11.532C64.4663 11.532 65.0692 11.6278 65.5766 11.8268L65.6575 10.4341C65.2383 10.2646 64.5619 10.1835 64.0618 10.1909C61.7382 10.1909 60.1499 11.1931 60.1426 12.6373C60.1279 15.5259 64.2677 14.8848 64.2604 16.5649C64.2604 17.2502 63.6427 17.3681 62.6427 17.3681C61.9882 17.3681 60.9588 17.1102 60.3705 16.8449L60.3117 18.4586C60.8632 18.6797 61.9 18.8787 62.5324 18.8787C64.8192 18.8787 66.1796 17.9502 66.1869 16.388C66.1943 13.61 62.025 14.0742 62.0324 12.4605ZM17.8029 13.33C17.9573 12.1878 18.6706 11.4436 19.6853 11.4436C20.7515 11.4436 21.4133 12.1731 21.3766 13.33H17.8029ZM19.7515 10.0951C17.2882 10.0951 15.8984 11.9963 15.8984 14.5532C15.8984 17.5302 17.3397 18.886 19.9721 18.886C21.0089 18.886 22.0457 18.7018 22.8913 18.3407L22.7222 16.8965C22.0236 17.2354 21.1266 17.4418 20.2589 17.4418C18.575 17.4418 17.7147 16.5575 17.7588 14.6048H23.1413C23.1707 14.2806 23.1928 13.9932 23.1928 13.7574C23.1928 11.7457 22.1634 10.0951 19.7515 10.0951ZM29.3915 10.0951C27.965 10.0951 26.9503 10.8467 26.4576 11.9299L26.4429 11.9152C26.5238 11.4436 26.5606 10.7067 26.5606 10.2646H24.8326V18.7165H26.6488V14.6343C26.6488 12.9468 27.5827 11.6057 28.8548 11.6057C29.818 11.6057 30.1122 12.2173 30.1122 13.271V18.7165H31.899V12.7994C31.899 11.3036 31.3034 10.0951 29.3915 10.0951ZM35.3476 13.33C35.502 12.1878 36.2153 11.4436 37.23 11.4436C38.2963 11.4436 38.958 12.1731 38.9286 13.33H35.3476ZM37.2962 10.0951C34.8329 10.0951 33.4432 11.9963 33.4432 14.5532C33.4432 17.5302 34.8844 18.886 37.5168 18.886C38.5536 18.886 39.5831 18.7018 40.436 18.3407L40.2669 16.8965C39.5684 17.2354 38.6713 17.4418 37.8036 17.4418C36.1271 17.4418 35.2594 16.5575 35.3109 14.6048H40.6934C40.7228 14.2806 40.7449 13.9932 40.7449 13.7574C40.7375 11.7457 39.7081 10.0951 37.2962 10.0951ZM43.9656 12.1363H43.9288C44.0465 11.4878 44.0979 10.7362 44.0979 10.2646H42.3699V18.7165H44.1862V15.2753C44.1862 12.7405 45.0024 11.5689 46.6789 11.871L46.7671 10.0877C45.1862 9.94774 44.3406 11.0015 43.9656 12.1363ZM53.1571 17.1838C52.7968 17.287 52.3556 17.346 51.9144 17.346C50.3334 17.346 49.2305 16.3512 49.2305 14.5311C49.2305 12.6005 50.5099 11.5983 52.0908 11.5983C52.9071 11.5983 53.6718 11.7605 54.4218 12.0552L54.738 10.5151C53.8556 10.2499 52.9732 10.1246 52.0761 10.1246C49.1202 10.1246 47.3554 12.1215 47.3554 14.6785C47.3554 17.4639 49.201 18.9008 51.7526 18.9008C52.9144 18.9008 53.9438 18.7018 54.9218 18.326V14.3174H53.1571V17.1838ZM56.6498 18.7239H58.4661V10.2646H56.6498V18.7239Z" fill="#FAFAFA"/>
<mask id="mask1_573_12" style="mask-type:luminance" maskUnits="userSpaceOnUse" x="66" y="10" width="9" height="10">
<path d="M66.8926 10.073H74.0325V19.0629H66.8926V10.073Z" fill="white"/>
</mask>
<g mask="url(#mask1_573_12)">
<path d="M72.1652 14.6859C72.1652 15.8944 71.3343 17.4713 70.0989 17.4713C69.7975 17.4713 69.5548 17.4271 69.3783 17.3239C68.9151 17.0734 68.4445 15.8649 69.3416 15.1428C69.5695 14.9585 69.9151 14.8185 70.2901 14.7154C70.7019 14.6122 71.2902 14.509 72.1725 14.509V14.6859H72.1652ZM74.0329 18.7387C73.9961 18.0239 73.9814 17.1544 73.9814 16.4249V12.9616C73.9814 11.23 73.2682 10.1025 70.6872 10.1025C69.5989 10.1025 68.5474 10.3383 67.7165 10.6626L67.8856 12.21C68.5989 11.7679 69.6136 11.5321 70.4004 11.5321C71.7166 11.5321 72.1578 12.2395 72.1578 13.2932C70.4078 13.2932 68.6945 13.7206 67.7974 14.6269C67.5474 14.8775 67.3783 15.1354 67.2385 15.467C66.8194 16.4249 67.0988 17.3018 67.4738 17.8692C67.9959 18.6503 68.5768 18.9229 69.5401 18.9008C70.8784 18.8713 71.9299 18.1492 72.3417 17.1471L72.3637 17.1618C72.2975 17.6187 72.2755 18.1787 72.2755 18.724H74.0329" fill="#FAFAFA"/>
</g>
<path d="M62.0465 12.4312C62.0465 11.7901 62.9142 11.5027 63.9289 11.5027C64.4804 11.5027 65.076 11.5985 65.5908 11.7975L65.6716 10.4048C65.2525 10.2353 64.576 10.1542 64.076 10.1616C61.7597 10.1616 60.1641 11.1637 60.1641 12.608C60.1494 15.4966 64.2819 14.8481 64.2819 16.5282C64.2819 17.2135 63.6642 17.3314 62.6642 17.3314C62.0098 17.3314 60.9803 17.0735 60.3921 16.8082L60.3332 18.422C60.8847 18.643 61.9215 18.842 62.5539 18.842C64.8407 18.842 66.2011 17.9209 66.2011 16.3587C66.2011 13.5807 62.0392 14.0449 62.0465 12.4312Z" fill="#FAFAFA"/>
<mask id="mask2_573_12" style="mask-type:luminance" maskUnits="userSpaceOnUse" x="2" y="6" width="17" height="18">
<path d="M2.29492 6.83081H18.0822V24H2.29492V6.83081Z" fill="white"/>
</mask>
<g mask="url(#mask2_573_12)">
<path d="M8.4567 6.94873C2.8315 9.27725 -1.95543 15.3712 8.71406 24H17.7879C17.7879 24 -0.499493 13.1753 8.4567 6.94873Z" fill="#C3CC25"/>
</g>
<mask id="mask3_573_12" style="mask-type:luminance" maskUnits="userSpaceOnUse" x="0" y="14" width="9" height="10">
<path d="M0.5 14.7449H8.39733V24H0.5V14.7449Z" fill="white"/>
</mask>
<g mask="url(#mask3_573_12)">
<path d="M1.03614 15.0544C1.03614 15.0544 -0.633036 19.3504 1.94058 24.0001H8.17609C5.05834 22.5927 0.903781 18.6651 1.03614 15.0544Z" fill="#C3CC25"/>
</g>
<path d="M11.8019 0H1.8457C1.8457 0 13.2579 3.76543 8.29445 11.4142C8.29445 11.4142 16.7359 5.48971 11.8019 0Z" fill="#FAFAFA"/>
</g>
<defs>
<clipPath id="clip0_573_12">
<rect width="73.5319" height="24" fill="white" transform="translate(0.5)"/>
</clipPath>
</defs>
</svg>
