<svg xmlns:xlink="http://www.w3.org/1999/xlink" xmlns="http://www.w3.org/2000/svg" width="125" height="62.5" fill="currentColor" viewBox="0 0 450 225"><path fill="#E8FEDF" d="M185.809 40.532c0 14.21-11.52 25.73-25.73 25.73s-25.73-11.52-25.73-25.73 11.52-25.73 25.73-25.73 25.73 11.52 25.73 25.73Z"></path><path fill="#006A43" d="M401.675 223.822c11.517-9.581 18.172-23.573 18.342-38.56-11.517 9.585-18.171 23.577-18.342 38.56Z"></path><path fill="#F9FFF6" d="M401.393 184.637a9.522 9.522 0 0 0 9.522-9.522 9.522 9.522 0 0 0-9.522-9.522 9.522 9.522 0 0 0-9.522 9.522 9.522 9.522 0 0 0 9.522 9.522Z"></path><path fill="#FAF5E3" d="M321.86 194.275a387.266 387.266 0 0 0-30.71-6.673 393.746 393.746 0 0 0-12.331-1.95 392.038 392.038 0 0 0-27.861-2.932 393.695 393.695 0 0 0-49.996-.256 388.293 388.293 0 0 0-31.84 3.173 386.89 386.89 0 0 0-49.662 10.399 385.656 385.656 0 0 0-14.564 4.38 387.073 387.073 0 0 0-23.257 8.333 387.86 387.86 0 0 0-34.02 15.382h352.603a385.288 385.288 0 0 0-75.899-29.206c-.821-.223-1.642-.438-2.466-.654l.003.004Z"></path><path fill="#FFFFFF" d="M331.724 117.644c1.408-8.345 8.01-14.947 16.355-16.355-8.345-1.408-14.947-8.01-16.355-16.354-1.408 8.344-8.01 14.946-16.354 16.354 8.344 1.408 14.946 8.01 16.354 16.355Zm-53.827 55.688 3.002 4.7c1.386 2.169 5.168 7.389 10.37 9.02a387.328 387.328 0 0 1 30.309 6.573c-.728-3.857-2.772-5.291-5.989-7.249l-.743-.449c-3.381-2.04-8.014-4.83-13.802-11.042-1.609-1.724-4.184-5.32-7.658-10.682a1424.07 1424.07 0 0 1-12.037 7.115l-3.452 2.01v.004Z"></path><path fill="#0B996E" d="M257.939 156.74c.758-6.108.81-10.548.81-10.593.007-.587.004-1.17 0-1.757l-17.558-27.493.468-.301 35.934 56.268 3.474-2.021c4.484-2.612 10.057-5.934 12.015-7.1-3.214-4.982-7.171-11.428-11.767-19.175-8.337-14.032-16.926-29.176-21.303-36.955-1.007-1.787-2.352-3.181-4.001-4.15-2.136-1.256-8.27-3.638-19.019 1.333l-.46.212.713-5.39c-.059 0-.119 0-.178.007-5.261.26-9.597 2.34-11.596 5.562-1.776 2.864-1.772 6.527.008 10.885 3.139-6.368 5.718-10.369 5.744-10.41l.468.301c-.026.041-2.735 4.247-5.982 10.901-3.659 7.482-6.52 14.957-8.508 22.224a257.424 257.424 0 0 1 8.493 13.372c14.011-.238 25.208 2.169 32.238 4.276l.007.004Z"></path><path fill="#FFFFFF" d="m280.431 178.336-4.38-6.858a1183.026 1183.026 0 0 1-7.003 4.139c.483.791.943 1.553 1.378 2.262 2.196 3.6 5.372 6.301 8.497 7.227 3.314.468 6.646.988 9.942 1.541-4.202-2.218-7.219-6.408-8.434-8.311Z"></path><path fill="#02835C" d="M259.306 146.151c0 .045-.052 4.674-.854 10.982-.037.305-.078.621-.123.937 3.637 5.94 7.446 12.178 10.429 17.071 2.593-1.523 5.183-3.057 6.996-4.135l-16.444-25.75v.895h-.004Z"></path><path fill="#D7FEC8" d="m239.166 59.585-.026.476c-.004.067-.316 6.505 4.744 12.513.832-.654 3.883-2.872 6.699-2.549 1.218.141 2.229.74 3.006 1.787 1.084 1.464 1.333 3.2.713 5.023-1.1 3.233-4.767 6.25-9.158 7.553.015 1.412.516 9.43 10.072 12.06.516-.464 2.916-2.697 8.318-8.641 2.229-2.453 9.381-11.18 7.817-20.472-.884-5.253-4.428-9.603-10.533-12.936-3.778-2.058-7.549-3.262-11.205-3.57l-.093-.008-.07-.06a10.318 10.318 0 0 0-6.799-2.556c-5.688 0-10.317 4.63-10.317 10.318 0 1.906.52 3.752 1.504 5.36 2.408-2.852 4.789-4.03 4.893-4.082l.427-.208.008-.008Z"></path><path fill="#E8FEDF" d="M172.31 163.531c1.23-2.036 2.522-3.897 3.96-5.944l.219-.313c2.549-3.618 4.953-7.04 6.506-11.142a27.29 27.29 0 0 0 1.222-4.239l.546.112a27.85 27.85 0 0 1-1.218 4.239c.732 3.058 1.798 6.509 3.094 9.986 2.226 5.993 7.056 17.273 14.431 25.677a393.417 393.417 0 0 1 49.743.252c4.08-7.661 6.03-17.302 6.948-24.056.037-.271.07-.535.104-.799-6.929-2.084-17.986-4.48-31.836-4.284 5.093 8.609 8.363 15.151 8.396 15.218l-.498.249c-.033-.067-3.399-6.799-8.623-15.597a258.87 258.87 0 0 0-8.63-13.59c-5.443-7.969-10.678-14.482-15.564-19.36-6.029-6.023-11.543-9.563-16.384-10.526-12.609-2.504-19.955 16.054-27.051 34.003-2.716 6.869-5.524 13.969-8.56 19.594l19.87 7.126c.646-1.828 1.675-3.875 3.321-6.599l.004-.007Z"></path><path fill="#FFFFFF" d="m244.586 84.166.008-.205.197-.055c4.313-1.223 7.924-4.14 8.983-7.256.558-1.643.338-3.203-.631-4.51-.68-.918-1.564-1.442-2.623-1.565-2.987-.342-6.457 2.567-6.491 2.597l-.212.178-.182-.208c-4.558-5.272-5.023-10.948-5.056-12.624-.81.48-2.712 1.742-4.548 4.005a19.299 19.299 0 0 0-2.916 4.99c-2.188 5.472-4.941 7.846-6.015 8.608l2.181.947-.049.223c-1.077 5.057-.535 9.08 1.609 11.956 1.91 2.56 5.09 4.087 9.192 4.414.784.063 1.62.081 2.481.055l.015.558c-.787.022-1.545.003-2.27-.041l-1.04 7.85c10.009-4.492 16.069-2.664 18.599-1.36l-.784-5.75c-10.667-2.958-10.455-12.703-10.451-12.804l.003-.003Zm-41.945-22.281a4.198 4.198 0 1 0 0-8.395 4.198 4.198 0 0 0 0 8.395Z"></path><path fill="#D7FEC8" d="M176.657 158.003c-1.405 1.998-2.672 3.826-3.872 5.818-1.701 2.82-2.741 4.904-3.366 6.758-1.326 3.934-.936 7.256-.156 13.873l.071.601a389.14 389.14 0 0 1 31.041-3.102c-7.193-8.337-11.934-19.319-14.178-25.319-1.671.208-4.963.646-9.54 1.374v-.003Z"></path><path fill="#FFFFFF" d="m168.81 170.661-19.962-7.156c-2.775 5.045-5.502 8.4-8.326 10.239-2.118 1.379-4.135 2.66-5.911 3.794-12.297 7.835-17.439 11.116-15.036 17.896a387.556 387.556 0 0 1 49.205-10.302l-.07-.613c-.773-6.558-1.163-9.92.1-13.858Z"></path><path fill="#D7FEC8" d="M105.015 199.799c4.67-1.501 9.385-2.92 14.022-4.216-2.523-7.175 3.094-10.76 15.273-18.517 1.776-1.133 3.79-2.415 5.907-3.79 2.686-1.746 5.291-4.926 7.955-9.7-18.082 4.179-35.058 9.329-50.454 15.314l-.07.026c3.351 6.81 5.788 14.839 7.248 20.412l.123.471h-.004Z"></path><path fill="#FFFFFF" d="M104.354 199.469c-1.453-5.562-3.886-13.58-7.23-20.356l-.691.26c-4.18 1.579-6.94 2.623-9.753 2.556-3.098-.078-6.178-1.534-10.982-5.194-4.845-3.693-8.824-4.224-11.31-4.024-2.08.171-3.484.873-4 1.174l20.433 32.951c.275.446.554.881.833 1.315a387.207 387.207 0 0 1 22.826-8.181l-.13-.501h.004Z"></path><path fill="#004228" d="M322.209 194.007h-.274c.821.216 1.642.431 2.463.654l-.249-.122c.033-.067.07-.134.104-.205-.691-.185-1.386-.368-2.081-.55l.034.182v.045l.003-.004ZM46.47 224.413a385.864 385.864 0 0 1 34.808-15.816c-.052-.078-.1-.16-.152-.238a389.587 389.587 0 0 0-34.786 15.805l-1.022.528h72.285v-.279H46.466h.004Zm354.644-.279v-.174a385.574 385.574 0 0 0-76.311-29.477c-.041.085-.089.167-.13.252a385.015 385.015 0 0 1 76.17 29.399h.271Z"></path><path fill="#004228" d="M47.626 224.134a387.852 387.852 0 0 1 34.02-15.381 386.475 386.475 0 0 1 23.258-8.333 383.27 383.27 0 0 1 14.564-4.38 386.562 386.562 0 0 1 81.501-13.572 393.617 393.617 0 0 1 22.968-.673c8.987 0 18.082.312 27.029.929a389.748 389.748 0 0 1 40.191 4.882 389.619 389.619 0 0 1 30.711 6.672 385.437 385.437 0 0 1 78.366 29.86h.616a384.768 384.768 0 0 0-76.17-29.399l-.026.048-.249-.122c-.821-.223-1.638-.439-2.463-.65h-.015l-.268.041a4.965 4.965 0 0 0-.022-.119 385.762 385.762 0 0 0-30.428-6.602l-.119.252a12.419 12.419 0 0 1-1.322-.498 392.484 392.484 0 0 0-10.908-1.705l-.078.268a11.044 11.044 0 0 1-1.23-.446 389.195 389.195 0 0 0-26.271-2.731c-.011.022-.022.048-.037.071l-.055.104-.383-.208a393.354 393.354 0 0 0-49.855-.246l-.205.183-.137-.16a385.137 385.137 0 0 0-31.238 3.117l-.279.037a385.444 385.444 0 0 0-49.699 10.406 383.358 383.358 0 0 0-14.307 4.299v.015l-.268.067a382.242 382.242 0 0 0-23.276 8.341l-.234.152-.03-.045a385.864 385.864 0 0 0-34.808 15.816h71.136v-.279H47.622l.004-.011Z"></path><path fill="#004228" d="M291.269 187.056s.007 0 .015.004l.04.015-.115.249a385.703 385.703 0 0 1 30.428 6.602l-.055-.301a389.288 389.288 0 0 0-30.31-6.573l-.003.004Zm-12.342-1.95s.011 0 .014.003l-.078.268c3.656.516 7.29 1.088 10.909 1.705a16.268 16.268 0 0 1-.903-.435 388.924 388.924 0 0 0-9.942-1.541Zm-27.508-2.906c-.048.089-.089.182-.138.268 8.843.616 17.603 1.53 26.271 2.73a13.434 13.434 0 0 1-.814-.393 395.611 395.611 0 0 0-25.319-2.609v.004Zm-.665.075c.022-.041.041-.082.063-.119a393.65 393.65 0 0 0-49.744-.253c.03.033.056.067.086.1l-.208.186a392.487 392.487 0 0 1 22.982-.669c9.032 0 17.993.309 26.873.918l-.108-.059.056-.101v-.003Zm-81.42 2.775.033.278a388.807 388.807 0 0 1 31.238-3.117l-.23-.263a389.884 389.884 0 0 0-31.041 3.102Zm-.554.078a387.73 387.73 0 0 0-49.205 10.302c.019.056.037.112.06.171l-.26.097.018.074a385.977 385.977 0 0 1 49.699-10.406l-.275.033-.029-.267-.008-.004Z"></path><path fill="#004228" d="M119.111 195.794c-.026-.07-.048-.141-.074-.211a380.219 380.219 0 0 0-14.022 4.216l.071.272a381.476 381.476 0 0 1 14.307-4.299l-.018-.074-.261.096h-.003Zm-14.627 4.176a384.232 384.232 0 0 0-22.827 8.181l.123.193-.234.153a385.558 385.558 0 0 1 23.276-8.341l-.271.067-.063-.253h-.004Zm296.63-15.061c-5.283-.149-9.522-4.477-9.522-9.794 0-5.316 4.388-9.801 9.801-9.801s9.801 4.388 9.801 9.801-4.239 9.649-9.522 9.794v.278c5.428-.148 9.8-4.607 9.8-10.072 0-5.465-4.521-10.079-10.079-10.079-5.558 0-10.08 4.521-10.08 10.079 0 5.558 4.373 9.924 9.801 10.072v-.278Z"></path><path fill="#004228" d="M401.672 184.808v.101c5.283-.149 9.522-4.477 9.522-9.794 0-5.316-4.388-9.801-9.801-9.801s-9.801 4.388-9.801 9.801 4.239 9.649 9.522 9.794v-.101h.558Zm-9.801-9.693c0-5.249 4.272-9.522 9.522-9.522s9.522 4.273 9.522 9.522c0 5.25-4.272 9.522-9.522 9.522s-9.522-4.272-9.522-9.522Zm9.522 9.801h.279v-.007c-.093 0-.186.007-.279.007Zm-.279 0h.279c-.093 0-.186-.004-.279-.007v.007Z"></path><path fill="#004228" d="M401.672 184.808h-.558v.101c.093 0 .186.007.279.007.093 0 .186-.004.279-.007v-.101ZM401.114 225l.379-.308h-.379V225Zm19.464-40.333v-.587l-.453.368c-10.094 8.211-16.588 19.732-18.453 32.382v2.248c1.43-13.866 8.381-26.085 18.628-34.415 0 15.894-7.226 30.083-18.573 39.468h.435c11.714-9.812 18.42-24.15 18.42-39.468l-.004.004Z"></path><path fill="#004228" d="M420.3 184.667c-10.247 8.33-17.198 20.549-18.628 34.415v5.052h.055c11.347-9.384 18.573-23.569 18.573-39.467Zm-18.625 39.152c.171-14.984 6.829-28.976 18.342-38.561-.17 14.987-6.828 28.979-18.342 38.561Zm-.899.594h-283.17v.279h283.508v-.108c-.111-.06-.226-.115-.338-.171Zm-283.17-.279v.279h283.17l-.55-.279h-282.62Zm206.792-29.473c.041-.085.089-.167.13-.252-.019-.004-.037-.012-.056-.015-.074-.019-.145-.037-.219-.06-.034.067-.071.134-.104.205l.249.122Z"></path><path fill="#004228" d="M400.776 224.413c.112.059.227.115.338.171v-.171h-.338Zm.067-.279.271.138v-.138h-.271Zm-76.445-29.473c.093.026.182.052.275.074.041-.085.089-.167.13-.252-.093-.026-.182-.052-.275-.074-.041.085-.089.167-.13.252Zm76.716 29.611-.271-.138h-.617l.55.279h.338v-.141Z"></path><path fill="#004228" d="M324.673 194.735c-.093-.026-.182-.052-.275-.074l.249.123s.015-.034.026-.049Zm77.155 29.678h-.435l-.127.249c-.048-.026-.1-.052-.152-.078v.108h.379l.078-.064c.089-.07.171-.144.26-.215h-.003Zm-.101-.279-.055.045v.234h.156l.334-.279h-.435Z"></path><path fill="#004228" d="m401.672 224.179.055-.045h-.055v.045Zm-.558.405.152.078.127-.249h-.279v.171Zm-69.668-103.608h.278c0-10.874-8.816-19.691-19.691-19.691v.279c10.704 0 19.413 8.709 19.413 19.412Z"></path><path fill="#004228" d="M331.724 81.595h-.278c0 10.703-8.709 19.412-19.413 19.412v.278c10.875 0 19.691-8.816 19.691-19.69Zm0 39.381h.279c0-10.703 8.708-19.412 19.412-19.412v-.279c-10.874 0-19.691 8.817-19.691 19.691Zm19.691-19.691v-.278c-10.704 0-19.412-8.709-19.412-19.412h-.279c0 10.874 8.817 19.69 19.691 19.69Z"></path><path fill="#004228" d="M331.724 120.976c0-10.874 8.817-19.691 19.691-19.691-10.874 0-19.691-8.816-19.691-19.69 0 10.874-8.816 19.69-19.691 19.69 10.875 0 19.691 8.817 19.691 19.691Zm0-36.045c1.408 8.344 8.01 14.946 16.355 16.354-8.345 1.409-14.947 8.011-16.355 16.355-1.408-8.344-8.01-14.946-16.354-16.355 8.344-1.408 14.946-8.01 16.354-16.354ZM185.514 40.53c0 14.207-11.517 25.728-25.728 25.728a25.633 25.633 0 0 1-16.188-5.733l-.011.015c-.056.063-.119.127-.178.193a26.036 26.036 0 0 0 16.377 5.807c14.341 0 26.006-11.666 26.006-26.007 0-8.95-4.488-17.116-12.022-21.923-.071.063-.141.13-.212.197 7.185 4.562 11.956 12.587 11.956 21.73v-.007Zm-51.456 0c0-14.207 11.521-25.728 25.728-25.728 4.859 0 9.403 1.348 13.282 3.693l.063-.056c.052-.045.1-.093.152-.141a25.902 25.902 0 0 0-13.494-3.775c-14.34 0-26.006 11.666-26.006 26.007 0 7.672 3.354 14.883 9.202 19.843.063-.067.127-.134.186-.2-5.573-4.719-9.11-11.767-9.11-19.64l-.003-.003Z"></path><path fill="#004228" d="M173.343 18.996c7.449 4.696 11.888 12.729 11.888 21.537 0 14.033-11.417 25.45-25.449 25.45a25.497 25.497 0 0 1-16.005-5.666c-.064.07-.119.142-.183.212a25.635 25.635 0 0 0 16.188 5.733c14.211 0 25.728-11.521 25.728-25.729 0-9.143-4.77-17.168-11.956-21.73-.018.018-.037.033-.055.052-.052.048-.108.093-.16.141h.004Zm-29.99 40.961a25.379 25.379 0 0 1-9.017-19.427c0-14.033 11.417-25.45 25.45-25.45 4.621 0 9.128 1.249 13.062 3.608.075-.067.145-.13.22-.193a25.581 25.581 0 0 0-13.282-3.693c-14.207 0-25.728 11.52-25.728 25.728 0 7.872 3.54 14.92 9.109 19.639 0 0 0-.004.004-.008.063-.067.119-.14.178-.208l.004.004Zm29.964-41.31.241.156c.071-.063.141-.13.212-.197l-.242-.156a9.5 9.5 0 0 0-.211.197Z"></path><path fill="#004228" d="M143.598 60.525c-.07-.06-.149-.115-.219-.174a9.33 9.33 0 0 1-.19.204c.004 0 .008.008.012.011.066.056.137.108.208.164.059-.063.118-.127.178-.194.004-.003.007-.01.011-.014v.003Z"></path><path fill="#004228" d="M143.167 60.172c-.059.067-.126.134-.186.201.071.06.138.123.208.182.064-.067.127-.137.19-.204-.071-.06-.141-.123-.212-.182v.003Zm30.112-41.871c-.052.045-.1.093-.152.142l-.063.055c.082.052.167.1.253.149a9.5 9.5 0 0 0 .211-.197 1.277 1.277 0 0 0-.063-.04c-.059-.038-.123-.072-.182-.109h-.004Zm-29.718 41.842c-.063.07-.119.14-.182.211.071.06.145.116.219.175.063-.07.119-.141.182-.212-.07-.06-.148-.115-.219-.174Z"></path><path fill="#004228" d="M173.168 18.88c.059.038.115.075.175.112.052-.048.107-.093.159-.14.019-.02.037-.034.056-.053l-.242-.156c-.07.067-.144.13-.219.193l.071.045Z"></path><path fill="#004228" d="M172.845 18.692c.085.052.167.1.252.148.075-.067.145-.13.22-.193-.082-.052-.168-.1-.253-.149-.071.067-.145.13-.219.194Zm-29.288 41.447c-.07-.06-.133-.123-.204-.178-.059.067-.119.14-.178.208 0 0 0 .003-.004.007.07.06.141.123.212.182.063-.07.122-.141.182-.212l-.004-.003-.004-.004Zm59.084 2.307a4.76 4.76 0 0 0 4.756-4.755 4.76 4.76 0 0 0-4.756-4.756 4.76 4.76 0 0 0-4.755 4.756 4.76 4.76 0 0 0 4.755 4.755Zm0-9.236a4.477 4.477 0 1 1 0 8.954 4.477 4.477 0 0 1 0-8.954Z"></path><path fill="#004228" d="M202.641 62.167a4.477 4.477 0 1 0 0-8.954 4.477 4.477 0 0 0 0 8.954Zm0-8.678a4.203 4.203 0 0 1 4.198 4.198 4.203 4.203 0 0 1-4.198 4.198 4.204 4.204 0 0 1-4.198-4.198 4.204 4.204 0 0 1 4.198-4.198Zm81.167-37.792h-.557v10.02h.557v-10.02Zm0 10.577h-.557v10.02h.557v-10.02Zm-.557-.557h-10.02v.557h10.02v-.557Zm10.578 0h-10.021v.557h10.021v-.557Zm-10.021 0h-.557v.557h.557v-.557Zm-24.78 120.434c.003-.442 0-.884 0-1.326l-.279-.435v1.757c0 .045-.052 4.485-.81 10.593l.271.081c.777-6.219.818-10.67.818-10.67Z"></path><path fill="#004228" d="M258.281 157.992c.015.026.033.052.048.081.045-.315.086-.631.123-.936.802-6.312.854-10.938.854-10.982v-.896l-.278-.434v1.326s-.045 4.451-.818 10.67c.015.004.03.008.045.015l-.078.264v.282l-.037-.003c-.034.252-.063.505-.101.761l.238-.145.004-.003Zm-.305.575c-1.007 7.208-2.983 16.281-6.858 23.611l.301.022c3.89-7.415 5.829-16.574 6.787-23.257l-.23-.376Z"></path><path fill="#004228" d="M258.039 158.136v.004l.004-.004h-.004Z"></path><path fill="#004228" d="m257.805 158.281.234-.145c.038-.26.067-.509.101-.761l-.045-.008-.226-.066c-.034.263-.067.527-.104.798-.918 6.755-2.869 16.396-6.948 24.057l.182.011c.041 0 .078.007.119.007 3.875-7.33 5.851-16.403 6.858-23.61-.059-.093-.115-.19-.174-.283h.003Zm-6.999 24.153.382.208.056-.104c.011-.022.023-.048.037-.07l-.301-.023a10.482 10.482 0 0 1-.171-.011h-.003Z"></path><path fill="#004228" d="M251.118 182.178c-.041.078-.078.156-.119.23l-.019.037.301.023c.049-.089.093-.179.138-.268l-.301-.022Z"></path><path fill="#004228" d="M250.999 182.408c.041-.074.078-.156.119-.23-.041 0-.078-.008-.119-.008a11.102 11.102 0 0 1-.182-.011c-.022.041-.041.082-.063.119l-.056.101.108.059.171.011.018-.037.004-.004Zm-25.535-65.663-.256.111c-.019-.041-.03-.078-.049-.115-3.57 7.323-6.379 14.634-8.359 21.753.067.1.134.197.204.293 2.363-8.556 5.629-16.246 8.464-22.042h-.004Z"></path><path fill="#004228" d="M217.209 139.092c1.987-7.263 4.848-14.738 8.508-22.225 3.247-6.654 5.951-10.859 5.981-10.9l-.468-.301c-.026.041-2.604 4.042-5.744 10.41.075.186.149.371.234.561l-.256.111c-2.835 5.8-6.1 13.491-8.463 22.043.044.063.089.126.133.193.026.037.049.075.075.108Z"></path><path fill="#004228" d="M225.319 116.403c-4.945-11.807 3.797-16.667 11.737-17.057.078-.004.156-.004.23-.007l.037-.279c-.093 0-.189.004-.282.011-5.443.268-9.946 2.445-12.041 5.826-1.94 3.128-1.888 7.114.152 11.848l.056-.119.107-.219.004-.004Z"></path><path fill="#004228" d="M225.479 105.187c1.999-3.225 6.334-5.306 11.595-5.562.059 0 .119-.004.178-.008l.038-.278c-.078 0-.156.003-.231.007-7.939.39-16.681 5.25-11.736 17.057.055-.112.107-.223.163-.331-1.776-4.358-1.783-8.021-.007-10.885Zm-.019 11.558c-.052-.115-.092-.227-.141-.342l-.108.219-.055.119c.018.037.029.078.048.115l.256-.111Z"></path><path fill="#004228" d="M225.483 116.072c-.056.108-.108.219-.164.331.049.115.089.227.141.342l.257-.112c-.082-.189-.156-.375-.234-.561Zm30.688-12.869-.012.018c1.624.951 3.025 2.341 4.102 4.254 4.689 8.333 13.13 23.198 21.303 36.948 4.169 7.022 8.271 13.751 11.767 19.171 0 0 .003 0 .007-.004l.145.242c3.288 5.086 6.03 8.998 7.772 10.871 6.194 6.646 11.031 9.344 14.482 11.443 3.37 2.051 5.425 3.537 6.142 7.56l.126.034.171.044c-.713-4.198-2.861-5.788-6.294-7.876l-.743-.45c-3.355-2.021-7.947-4.788-13.679-10.945-1.609-1.724-4.213-5.368-7.743-10.83-3.236-5.008-7.245-11.536-11.911-19.397-8.333-14.025-16.919-29.169-21.3-36.945-1.025-1.824-2.396-3.258-4.068-4.272l.015.096-.275.038h-.007Zm-18.599-3.875.412-3.11c-.092-.008-.185-.019-.278-.026l-.379 2.868c.082 0 .16-.007.241-.007v.278l.004-.003Z"></path><path fill="#004228" d="M293.39 164.207c3.474 5.361 6.049 8.958 7.657 10.682 5.789 6.211 10.418 9.002 13.803 11.041l.743.45c3.217 1.958 5.26 3.388 5.988 7.248l.298.075c-.717-4.024-2.772-5.51-6.142-7.561-3.455-2.099-8.288-4.796-14.482-11.443-1.746-1.872-4.484-5.781-7.772-10.871l.141.238-.23.137-.004.004Zm-37.498-60.967-.022-.179c-5.28-2.89-12.762-1.4-18.989 1.479l.654-4.938c-.093 0-.19.008-.282.012l-.714 5.39.461-.211c10.748-4.971 16.882-2.59 19.018-1.334 1.65.966 2.995 2.363 4.002 4.15 4.38 7.78 12.97 22.923 21.303 36.956 4.596 7.742 8.552 14.188 11.766 19.174l.238-.141c-3.496-5.424-7.598-12.149-11.766-19.171-8.17-13.754-16.611-28.615-21.304-36.948-1.077-1.914-2.478-3.299-4.101-4.254l-.026-.015-.238.033v-.003Z"></path><path fill="#004228" d="m237.535 99.61-.654 4.937c6.227-2.879 13.706-4.372 18.989-1.478l-.048-.342c-2.531-1.304-8.59-3.132-18.599 1.36l1.04-7.85c-.089-.008-.182-.008-.271-.015h-.007l-.413 3.11v.278h-.037Zm18.624 3.615.012-.019h-.038l.026.019Zm65.716 90.481c.019.101.041.197.056.301h.278v-.044l-.033-.182-.171-.045-.126-.033-.004.003Z"></path><path fill="#004228" d="m321.656 194.048.267-.041h.015-.003l-.298-.074.023.119-.004-.004Zm-.022-.119.297.075c-.015-.104-.037-.201-.056-.301-.1-.026-.197-.052-.297-.075l.056.301Zm-84.062-94.601-.004-.28c-.081 0-.159.008-.241.008l-.037.279c.093 0 .189-.007.282-.011v.004Zm-.037.282.037-.279c-.093 0-.189.008-.282.011l-.037.28c.093 0 .189-.008.282-.012Z"></path><path fill="#004228" d="M237.576 99.606v-.278h-.004l-.037.278h.041Zm43.327 78.429-3.002-4.699-.241.141 3.009 4.711c2.2 3.444 5.447 6.966 9.207 8.634l1.374.234c.008 0 .015 0 .022.004-5.201-1.631-8.983-6.851-10.369-9.021v-.004Zm-21.872-33.73h.279v.434l16.682 26.122s.003 0 .007-.003l.067-.041h.078v.282l1.367 2.136-.141-.241.23-.134-35.934-56.268-.468.301 17.558 27.493v-.081h.279-.004Z"></path><path fill="#004228" d="m280.665 178.184-3.009-4.711-.011.007-.141-.241-1.368-2.136.142.237c-.075.045-.153.093-.231.138l4.381 6.858c1.214 1.903 4.235 6.093 8.433 8.311.335.056.669.116 1.007.171-3.756-1.668-7.007-5.19-9.206-8.634h.003Zm-4.911-7.178.238-.141-16.682-26.122v.516l16.444 25.751v-.004Zm14.014 16.076c.431.19.869.357 1.322.498l.119-.253h-.007l-1.43-.245h-.004Z"></path><path fill="#004228" d="M291.284 187.063s-.008 0-.015-.003c-.008 0-.015 0-.023-.004l-1.374-.234c.438.193.877.368 1.326.509h.008l.115-.249-.041-.015.004-.004Z"></path><path fill="#004228" d="M289.872 186.818c-.334-.055-.669-.115-1.007-.171.293.156.594.301.903.435.475.082.955.16 1.43.245a12.564 12.564 0 0 1-1.326-.509Zm-30.841-42.513h-.278v.081l.278.435v-.516Zm.279 0h-.279l.279.438v-.438Zm0 .438-.279-.435v.517l.279.434v-.516Zm-110.588 18.138v.275s.007-.008.007-.015l.089-.245.037.015c10.834-20.059 18.097-57.316 35.927-53.775 10.629 2.114 22.485 15.942 31.918 29.703.03-.115.067-.23.1-.345-12.286-17.885-23.038-27.857-31.962-29.629-13.074-2.594-20.497 16.183-27.679 34.344-2.738 6.925-5.573 14.088-8.623 19.709.041-.011.082-.019.122-.03l.064-.007Zm76.827-10.139v-.275h.153a258.298 258.298 0 0 0-8.493-13.371 5.55 5.55 0 0 0-.034.122l-.267-.074a255.038 255.038 0 0 1 8.641 13.605h.004l-.004-.007Z"></path><path fill="#004228" d="m148.722 163.159.007-.014s-.004.011-.007.014Zm8.953-19.746c7.096-17.949 14.438-36.506 27.051-34.002 4.841.962 10.355 4.503 16.384 10.525 4.886 4.878 10.121 11.391 15.564 19.36a254.697 254.697 0 0 1 8.63 13.591l.238-.141c-2.493-4.199-5.424-8.895-8.642-13.606l-.267-.074c.018-.074.044-.149.063-.223-9.433-13.761-21.288-27.589-31.918-29.703-17.829-3.541-25.093 33.712-35.926 53.774l.263.097c3.032-5.625 5.841-12.721 8.56-19.594v-.004ZM140.37 173.51c-16.333 10.626-23.889 13.984-21.062 21.998h.011c.085-.022.171-.048.256-.07-2.407-6.781 2.739-10.061 15.036-17.897 1.776-1.133 3.793-2.415 5.911-3.793 2.827-1.839 5.551-5.194 8.326-10.239l-.145-.052c-.056.011-.111.026-.167.041-2.478 4.484-5.142 8.051-8.17 10.02l.004-.008Z"></path><path fill="#004228" d="M140.217 173.276c-2.117 1.379-4.131 2.66-5.907 3.79-12.179 7.757-17.796 11.342-15.273 18.517l.267-.078c-2.827-8.014 4.73-11.373 21.062-21.999 3.024-1.969 5.692-5.535 8.17-10.02-.123.03-.245.056-.368.086-2.664 4.774-5.268 7.954-7.954 9.7l.003.004Z"></path><path fill="#004228" d="M119.308 195.505c.022.063.041.126.063.193l.26-.097c-.022-.056-.037-.111-.059-.171-.086.023-.171.049-.257.071h-.011l.004.004Z"></path><path fill="#004228" d="M119.037 195.583c.026.07.044.141.074.211l.26-.096c-.026-.067-.041-.127-.063-.193l-.268.078h-.003Zm97.867-56.443c.034-.115.067-.23.097-.349a7.653 7.653 0 0 0-.205-.293l-.1.345c.067.1.137.197.204.297h.004Z"></path><path fill="#004228" d="M217.209 139.092c-.026-.037-.049-.074-.075-.108-.044-.063-.089-.126-.133-.193-.034.115-.067.23-.097.349l.267.075.034-.123h.004Zm-.305.048c-.067-.1-.137-.197-.204-.297a3.72 3.72 0 0 0-.063.223l.267.074Zm8.645 13.602-.237.141c5.22 8.798 8.589 15.526 8.623 15.597l.498-.249c-.034-.067-3.303-6.606-8.397-15.218-.16 0-.319 0-.479.008v-.279h-.008Zm-49.093 4.729c.089-.014.178-.029.268-.04 2.444-3.474 4.792-6.818 6.36-10.756l-.093-.383.271-.063.272-.063c.007.026.015.052.018.078.52-1.393.933-2.82 1.219-4.239l-.546-.112a27.517 27.517 0 0 1-1.223 4.239c-1.553 4.102-3.96 7.524-6.505 11.143l-.219.312.226.159v-.007l-.041-.268h-.007Z"></path><path fill="#004228" d="m183.195 147.121-.111-.446c-1.568 3.938-3.916 7.282-6.36 10.756.13-.019.256-.041.382-.06 2.344-3.329 4.548-6.516 6.089-10.247v-.003Zm-14.032 23.35c.658-1.954 1.735-4.064 3.384-6.799 1.267-2.099 2.62-4.038 3.95-5.929l-.227-.16c-1.438 2.047-2.73 3.908-3.96 5.944-1.646 2.724-2.675 4.774-3.322 6.599l.264.092-.089.249v.004Z"></path><path fill="#004228" d="M169.419 170.575c.624-1.854 1.661-3.938 3.366-6.758 1.204-1.988 2.467-3.815 3.872-5.818-.038.007-.075.011-.112.019h-.045v-.279c-1.33 1.891-2.682 3.83-3.949 5.929-1.649 2.735-2.727 4.845-3.384 6.799v.015c-1.394 4.113-.933 7.531-.104 14.601.092-.015.185-.026.274-.037l-.07-.602c-.777-6.617-1.17-9.942.156-13.873l-.004.004Z"></path><path fill="#004228" d="m169.155 170.486-.092.26-.253-.089c-1.263 3.938-.873 7.3-.1 13.858l.07.613c.089-.011.178-.026.268-.041h.007c-.828-7.07-1.289-10.488.1-14.601Zm-.067 14.88.279-.034a3.442 3.442 0 0 0-.275.034h-.004Z"></path><path fill="#004228" d="m169.059 185.087.033.279c.093-.015.186-.026.275-.038l-.033-.278c-.093.011-.186.026-.275.037Zm0 0h-.007c-.09.011-.179.026-.268.041l.03.267.275-.033-.034-.279.004.004Zm14.493-38.843c-.011.026-.019.056-.03.085-.044.123-.1.238-.148.361.687 2.801 1.668 5.996 2.912 9.373a.348.348 0 0 0 .064-.007l.033.275c3.24 8.723 8.215 18.55 14.345 25.598.07-.004.137-.007.208-.015.048 0 .093-.004.141-.007-7.375-8.404-12.205-19.684-14.43-25.676-1.293-3.478-2.363-6.929-3.095-9.987Z"></path><path fill="#004228" d="M186.417 156.602c-.067.007-.145.019-.22.026 2.244 6 6.981 16.979 14.178 25.32l.353-.023c-6.13-7.048-11.105-16.874-14.345-25.598l.034.275Zm-.417-.509c.101-.011.194-.026.283-.037-1.245-3.374-2.226-6.569-2.913-9.374l-.178.435c.702 2.79 1.664 5.866 2.808 8.972v.004Zm14.743 26.278.204-.182-.342.022.138.16Z"></path><path fill="#004228" d="M200.728 181.925c.074.086.148.179.223.264l.208-.186c-.03-.033-.056-.067-.086-.1-.044 0-.093.004-.141.007-.07.004-.137.008-.208.015h.004Z"></path><path fill="#004228" d="M200.951 182.189c-.075-.085-.149-.175-.223-.264l-.353.023c.078.089.152.178.23.263l.342-.022h.004Zm-17.964-35.897.093.383.179-.446-.272.063Zm.272-.063.111.457c.048-.123.1-.238.149-.36.011-.026.018-.056.03-.086a.553.553 0 0 1-.019-.078l-.271.063v.004Z"></path><path fill="#004228" d="m183.084 146.675.111.446c.06-.145.123-.29.179-.435-.037-.152-.078-.308-.112-.457-.055.149-.118.297-.178.446Zm-102.5 60.306L60 173.796s1.587-1.133 4.362-1.36c2.775-.226 6.743.454 11.499 4.08 4.755 3.626 7.78 5.06 10.818 5.138 2.965.074 5.948-1.144 10.578-2.887l.249-.122.01.026.094-.034c17.889-6.955 35.7-11.918 50.735-15.381l.123-.219c.018-.037.037-.074.059-.108-18.294 4.206-35.458 9.403-51.01 15.448l-1.286.487c-4.116 1.557-6.843 2.593-9.544 2.519-2.969-.074-5.96-1.497-10.66-5.079-4.985-3.797-9.11-4.343-11.691-4.135-2.82.23-4.436 1.363-4.503 1.412l-.212.152 20.72 33.404c.257.416.52.825.78 1.233.09-.033.175-.07.264-.104a59.41 59.41 0 0 1-.806-1.274l.004-.011Z"></path><path fill="#004228" d="M97.718 178.89c15.396-5.985 32.368-11.135 50.454-15.314l.182-.331c-15.036 3.466-32.847 8.43-50.736 15.381l-.093.034c.041.081.082.167.123.252l.07-.026v.004Zm-16.061 29.261c-.278-.434-.56-.869-.832-1.315l-20.434-32.951c.517-.301 1.921-1.003 4.002-1.174 2.485-.2 6.464.331 11.309 4.024 4.804 3.66 7.884 5.116 10.982 5.194 2.816.067 5.577-.973 9.753-2.556l.69-.26-.11-.227.248-.122c-4.629 1.746-7.612 2.961-10.577 2.886-3.043-.074-6.064-1.512-10.819-5.138-4.756-3.626-8.724-4.306-11.499-4.079-2.775.226-4.362 1.36-4.362 1.36l20.583 33.184c.264.431.535.851.806 1.275a.242.242 0 0 1 .049-.019c.07-.03.145-.056.215-.085l-.004.003Zm-.115.342c-.052-.078-.1-.16-.152-.238-.09.034-.175.071-.264.104.052.078.1.16.152.238.09-.033.175-.07.264-.104Z"></path><path fill="#004228" d="M81.542 208.493c-.089.034-.174.071-.264.104l.03.045.234-.153v.004Zm.234-.152-.123-.193c-.07.029-.144.055-.215.085a.321.321 0 0 1-.048.019c.052.078.1.159.152.237l.234-.152v.004Zm66.578-45.096c.122-.03.245-.06.368-.086v-.274l-.064.007-.122.03c-.019.037-.037.074-.06.107l-.122.22v-.004Zm.353.204-.078-.026.093-.26v-.004c-.06.112-.123.22-.182.331.055-.011.111-.026.167-.041Z"></path><path fill="#004228" d="M148.536 163.49c.059-.111.122-.219.182-.331-.119.026-.245.056-.368.086-.059.111-.123.219-.182.331.123-.03.245-.056.368-.086Zm27.961-5.747v.003h.004l-.004-.003Zm.226.163-.066.097a301.538 301.538 0 0 1 9.54-1.375l-.078-.208-.022-.063c-1.887.238-5.045.665-9.217 1.322l-.157.22v.007Z"></path><path fill="#004228" d="M177.106 157.367a43.07 43.07 0 0 1-.156.223l-.067.093a303.964 303.964 0 0 1 9.218-1.322c-.034-.09-.063-.179-.097-.268a306.95 306.95 0 0 0-8.894 1.274h-.004Zm-.383.06c-.089.015-.178.026-.267.041l.041.267v.008c.074-.104.148-.212.223-.316h.003Zm.004.479.156-.219c-.126.018-.252.041-.382.059l.226.16Z"></path><path fill="#004228" d="M177.106 157.367c-.126.019-.253.041-.383.06-.074.104-.148.212-.223.316.131-.023.257-.041.383-.06l.067-.093.156-.223Zm-.609.379v.279h.044c.038-.011.075-.015.112-.022.022-.034.045-.063.067-.097l-.227-.16h.004Zm9.853-1.698a.35.35 0 0 0-.064.008c.034.089.064.178.097.267l-.033-.275Zm-.249.313.022.063.078.208c.074-.011.149-.019.219-.026l-.033-.275c-.089.011-.186.022-.283.037l-.003-.007Z"></path><path fill="#004228" d="m186.101 156.361.282-.038c-.033-.089-.063-.178-.097-.267-.089.011-.182.022-.282.037.034.089.063.178.097.268Zm-81.353 43.524c.089-.03.178-.056.267-.086l-.122-.471c-1.461-5.573-3.894-13.606-7.249-20.412l-.26.1c3.303 6.703 5.722 14.59 7.237 20.386.041.163.082.323.127.483Z"></path><path fill="#004228" d="m104.484 199.97.249-.081c.004 0 .011 0 .015-.004-.041-.16-.086-.323-.127-.483-1.515-5.796-3.934-13.683-7.237-20.386l-.26.1c3.344 6.777 5.777 14.795 7.23 20.356l.13.502v-.004Zm.605.101c-.092.029-.182.055-.271.085l.271-.067v-.018Z"></path><path fill="#004228" d="M104.748 199.885c.022.089.048.178.07.271.089-.03.179-.056.268-.085l-.071-.272c-.089.03-.178.056-.267.086Z"></path><path fill="#004228" d="M104.748 199.885s-.011 0-.015.004l-.249.081.063.253.271-.067c-.022-.089-.044-.182-.07-.271Zm-7.234-21.248-.249.123.26-.1-.01-.026v.003Zm.134.279a15.082 15.082 0 0 1-.123-.253l-.26.101c.041.081.082.167.123.252l.26-.1Zm-.524.197.26-.101c-.041-.081-.082-.167-.123-.252l-.249.122.112.227v.004Zm71.864-8.984-19.869-7.126c-.044.082-.089.168-.134.249l19.911 7.137c.029-.085.063-.174.092-.263v.003Zm-20.14-6.628 19.962 7.156c.03-.086.052-.175.082-.26v-.004l-19.91-7.137-.023.041c-.037.071-.078.137-.115.208l.004-.004Zm-.03-.602-.089.246c.041-.078.082-.156.126-.234l-.037-.015v.003Z"></path><path fill="#004228" d="m148.985 163.256.134-.249-.264-.096c-.041.078-.081.156-.126.234l-.007.014.263.093v.004Z"></path><path fill="#004228" d="m148.963 163.293.022-.041-.263-.093v.008l.059.264-.078.018.145.052c.037-.07.078-.137.115-.208Zm20.2 7.178.089-.249-.264-.093c-.029.086-.067.175-.093.264l.264.093s0-.011.004-.015Zm-.008.015.001-.015-.001.015Zm0 0-.263-.093v.004c-.03.089-.056.174-.082.26l.253.089.092-.26Z"></path><path fill="#004228" d="m148.722 163.167-.093.256.078.026.078-.018-.06-.264h-.003Zm121.708 14.712c-.435-.709-.895-1.471-1.378-2.262l-.242.141c.483.795.947 1.557 1.382 2.266 1.739 2.85 4.373 5.577 7.438 6.903.424.06.851.115 1.271.175h.026c-3.125-.925-6.301-3.623-8.497-7.226v.003Z"></path><path fill="#004228" d="M270.192 178.024c-.435-.709-.899-1.475-1.382-2.266h-.004l-.067.037h-.074v-.279l-.238.145 1.527 2.504c1.795 2.943 4.236 5.302 6.788 6.636l.888.122c-3.061-1.322-5.699-4.049-7.438-6.902v.003Zm8.59 7.62.078-.267c-.435-.063-.873-.119-1.308-.179.409.179.817.327 1.23.446Z"></path><path fill="#004228" d="M278.927 185.106h-.026c-.424-.06-.847-.116-1.271-.175.405.175.814.327 1.233.449l.078-.267s-.011 0-.014-.004v-.003Z"></path><path fill="#004228" d="M276.742 184.805c.271.141.542.275.814.393l1.307.179a10.923 10.923 0 0 1-1.233-.45l-.888-.122Zm-8.077-9.289-.141-.237.234-.138c-2.987-4.893-6.792-11.131-10.429-17.071-.004.033-.007.066-.015.104l-.048.33c3.641 5.948 7.438 12.164 10.395 17.012h.004Z"></path><path fill="#004228" d="M258.207 158.939c3.585 5.859 7.307 11.956 10.217 16.726l.237-.145a10831.24 10831.24 0 0 0-10.395-17.012c-.019.141-.041.29-.063.435l.004-.004Zm-.164-.803c.074.123.153.246.227.368l.048-.33c.004-.034.008-.067.015-.104-.015-.026-.033-.052-.048-.082l-.238.145-.004.003Z"></path><path fill="#004228" d="M258.043 158.136c-.018.142-.041.287-.059.431.078.123.152.249.23.376l.063-.435c-.074-.123-.152-.245-.226-.368l-.008-.004Zm-.238.145c.06.093.115.19.175.283.018-.141.041-.286.059-.428l-.234.145Zm19.944 14.817.148.234 3.452-2.01c4.499-2.619 10.094-5.956 12.038-7.115a8.007 8.007 0 0 1-.145-.226s-.001-.008-.004-.008a1429.516 1429.516 0 0 1-12.026 7.107l-3.463 2.018Z"></path><path fill="#004228" d="m277.6 172.864.149.234 3.463-2.018c3.871-2.255 8.823-5.194 12.026-7.107-.049-.078-.1-.156-.152-.234-1.958 1.17-7.531 4.492-12.016 7.1l-3.473 2.021.003.004Zm15.879-9.032-.145-.242s-.003 0-.007.004c.048.078.1.156.152.234v.004Z"></path><path fill="#004228" d="M293.238 163.973s0 .008.004.008c.048.078.096.148.145.226.081-.048.159-.096.23-.137l-.141-.238c-.078.045-.16.097-.238.141Z"></path><path fill="#004228" d="M293.238 163.973c.078-.048.163-.096.238-.141a10.377 10.377 0 0 0-.153-.234c-.07.044-.152.093-.237.141.048.078.1.156.152.234Zm-15.731 9.266.153.234.237-.141-.148-.234-.242.141Z"></path><path fill="#004228" d="m277.507 173.239.242-.141-.149-.234-.23.133.137.242Z"></path><path fill="#004228" d="m277.649 173.48.011-.007-.153-.234.142.241Zm-8.742 1.899c.048.082.096.156.145.238 2.6-1.524 5.193-3.062 7.003-4.139l-.149-.234c-2.207 1.315-4.696 2.79-6.996 4.139l-.003-.004Z"></path><path fill="#004228" d="m268.665 175.52.238-.145v.004c2.299-1.349 4.789-2.824 6.996-4.139l-.149-.234a1026.079 1026.079 0 0 1-6.996 4.135c.048.078.097.156.141.234l-.237.145h.007Zm7.401-4.7-.067.041s-.004 0-.007.004l.148.234v-.279h-.078.004Zm-.164.42.149.234c.078-.044.156-.093.23-.137l-.141-.238c-.078.048-.16.097-.238.141Z"></path><path fill="#004228" d="M275.902 171.24c.078-.048.16-.096.238-.141l-.148-.234c-.078.044-.16.093-.238.141l.148.234Zm-7.237 4.28c.048.082.097.156.145.238l.242-.141c-.049-.082-.097-.156-.145-.238-.078.048-.16.093-.242.141Z"></path><path fill="#004228" d="M268.665 175.52c.078-.044.16-.093.242-.141v-.004l-.238.145h-.004Z"></path><path fill="#004228" d="M268.665 175.52v.279h.078l.067-.037h.004c-.049-.082-.097-.156-.145-.238l-.004-.004Zm0-.004.238-.141c-.045-.078-.097-.156-.141-.234l-.234.138.141.237h-.004Zm-13.304-78.455-.03-.007.795 5.833.175.1c.044.026.089.056.133.086l-.847-6.205c-.067.06-.104.093-.115.1l-.111.097v-.004Z"></path><path fill="#004228" d="m255.037 96.968.784 5.752c.108.055.208.111.305.163l-.795-5.833-.111-.03c-.064-.014-.119-.037-.179-.052h-.004Zm1.089 5.915.045.32.275-.038-.015-.096c-.045-.026-.089-.06-.134-.086l-.175-.1h.004Zm.004.327c-.086-.052-.175-.097-.26-.145l.022.178.238-.033Z"></path><path fill="#004228" d="M255.87 103.065c.085.048.174.093.26.145h.037l-.045-.323c-.096-.052-.197-.108-.304-.164l.048.342h.004Zm-17.863-7.003.007-.123c-8.352-.665-13.289-6.204-11.053-16.704l-2.448-1.066s3.626-1.962 6.346-8.76a19.428 19.428 0 0 1 2.961-5.06 10.534 10.534 0 0 1-1.754-5.834c0-5.851 4.744-10.596 10.596-10.596 2.675 0 5.116.992 6.985 2.627 3.488.297 7.341 1.442 11.313 3.604 17.302 9.44 10.677 25.152 2.786 33.839-6.238 6.865-8.452 8.764-8.452 8.764l.275-.037.018.148c.524-.468 2.876-2.649 8.364-8.686 2.273-2.5 9.563-11.398 7.954-20.94-.914-5.43-4.555-9.915-10.815-13.33-3.816-2.08-7.631-3.302-11.332-3.63a10.87 10.87 0 0 0-7.096-2.633c-5.996 0-10.875 4.878-10.875 10.874 0 2.073.584 4.08 1.687 5.818a19.864 19.864 0 0 0-2.875 4.975c-2.642 6.606-6.183 8.6-6.22 8.62l-.501.27 2.764 1.204c-1.048 5.116-.457 9.214 1.753 12.179 1.966 2.634 5.179 4.22 9.311 4.607l.022-.164.275.037.004-.003Z"></path><path fill="#004228" d="M238.861 60.046s-.397 6.688 4.986 12.918c0 0 6.286-5.328 9.519-.984 3.172 4.268-1.702 10.272-8.501 12.2 0 0-.342 9.705 10.421 12.577 0 0 2.215-1.899 8.453-8.765 7.891-8.686 14.515-24.398-2.787-33.838-3.975-2.166-7.824-3.31-11.313-3.604a10.555 10.555 0 0 0-6.985-2.627c-5.851 0-10.595 4.745-10.595 10.596 0 2.155.642 4.161 1.753 5.833 2.478-3.058 5.045-4.306 5.045-4.306h.004Zm-5.015 3.83a10.24 10.24 0 0 1-1.505-5.36c0-5.689 4.629-10.318 10.317-10.318 2.501 0 4.916.907 6.799 2.556l.071.06.093.007c3.652.308 7.423 1.512 11.205 3.57 6.104 3.33 9.645 7.684 10.533 12.937 1.564 9.292-5.588 18.019-7.817 20.471-5.402 5.944-7.802 8.177-8.319 8.642-9.559-2.627-10.061-10.648-10.072-12.06 4.395-1.304 8.059-4.32 9.158-7.553.621-1.824.372-3.56-.713-5.023-.776-1.044-1.791-1.646-3.006-1.787-2.816-.323-5.862 1.895-6.698 2.549-5.06-6.008-4.748-12.447-4.745-12.513l.026-.476-.427.208c-.104.052-2.485 1.23-4.893 4.083l-.007.008Z"></path><path fill="#004228" d="M238.263 96.233c.725.048 1.483.067 2.27.04l-.015-.557c-.862.026-1.694.008-2.481-.055-4.106-.327-7.282-1.854-9.192-4.414-2.144-2.876-2.686-6.896-1.609-11.956l.049-.223-2.181-.947c1.073-.762 3.826-3.136 6.015-8.608a19.351 19.351 0 0 1 2.916-4.99c1.836-2.263 3.738-3.53 4.548-4.005.033 1.675.498 7.349 5.056 12.624l.182.208.212-.178c.033-.03 3.507-2.939 6.491-2.597 1.058.123 1.939.65 2.622 1.564.974 1.308 1.193 2.868.632 4.51-1.059 3.118-4.67 6.03-8.983 7.257l-.197.055-.008.205c0 .1-.215 9.845 10.451 12.802l-.026-.178.275-.037c-10.767-2.872-10.421-12.576-10.421-12.576 6.799-1.928 11.67-7.929 8.5-12.201-3.232-4.347-9.518.984-9.518.984-5.383-6.23-4.986-12.918-4.986-12.918s-2.567 1.249-5.045 4.306a19.552 19.552 0 0 0-2.961 5.06c-2.72 6.8-6.346 8.761-6.346 8.761l2.448 1.066c-2.236 10.5 2.701 16.04 11.053 16.704l-.007.123.275.037-.019.134Z"></path><path fill="#004228" d="m238.007 96.062-.275-.037-.023.163c.093.008.182.019.279.026l.022-.156-.003.004Z"></path><path fill="#004228" d="m238.263 96.233.019-.134-.275-.037-.023.156h.008c.089.007.182.007.271.015Zm17.027.52.041.3.03.008.111-.096s.049-.041.115-.1l-.018-.15-.275.038h-.004Zm-.253.215c.064.019.119.037.179.052l.111.03-.041-.3-.274.036.026.179-.001.003Zm-29.25 55.633.082.137c14.122-.215 25.346 2.27 32.037 4.28l.033-.278c-7.029-2.107-18.227-4.515-32.237-4.277l.082.138-.235.141.238-.141Z"></path><path fill="#004228" d="M257.906 157.018c-6.688-2.01-17.915-4.495-32.037-4.28.056.093.108.186.163.275 13.851-.197 24.904 2.196 31.836 4.284.012-.078.023-.156.03-.231a.21.21 0 0 1 .008-.048Z"></path><path fill="#004228" d="m258.21 156.821-.271-.081-.033.278.271.082.033-.279Z"></path><path fill="#004228" d="m258.177 157.096.078-.264s-.03-.007-.045-.014l-.033.278c-.011.089-.026.182-.037.275h.037v-.279.004Z"></path><path fill="#004228" d="M258.14 157.375c.011-.089.026-.182.037-.275l-.271-.082a.193.193 0 0 1-.008.048c-.007.075-.022.156-.03.231.075.022.153.044.227.067l.045.007v.004Zm-32.438-4.912h-.152v.275l.237-.141-.081-.137-.004.003Zm.167.275-.082-.137-.238.141h.32v-.004Z"></path><path fill="#004228" d="m225.549 152.742.001.279c.163 0 .323-.004.482-.008-.055-.093-.107-.186-.163-.275-.108 0-.212 0-.32.004Zm176.123 64.092v-31.647c-.093 0-.186.008-.279.008-.093 0-.186-.004-.279-.008v38.773h.008c.022-2.408.208-4.786.55-7.13v.004Zm-.558 7.126v.174h.004v-.171h-.008l.004-.003Z"></path><path fill="#004228" d="M401.672 185.187v-.271h-.558v.271c.093 0 .186.008.279.008.093 0 .186-.004.279-.008Zm-.275 38.918c.011-1.695.104-3.37.275-5.02v-2.247a51.364 51.364 0 0 0-.55 7.129l.278.141-.003-.003Z"></path><path fill="#004228" d="M401.46 224.134h.212v-5.052a51.945 51.945 0 0 0-.275 5.019c.022.011.04.022.063.03v.003Zm-.338-.171v.171h.278v-.029c-.093-.049-.185-.093-.278-.142Z"></path><path fill="#004228" d="M401.397 224.105v.029h.063c-.023-.011-.041-.022-.063-.029Zm-.283.167v-.138h-.004v.138h.004Zm0 .141v-.141.141Zm.279 0h.279v-.234l-.279.234Z"></path><path fill="#004228" d="M401.46 224.134a.41.41 0 0 0 .059.03l-.126.249.279-.234v-.045h-.212Zm-.067.279c0-.093 0-.186.004-.279h-.279v.138c.093.048.186.093.275.141Z"></path><path fill="#004228" d="M401.46 224.134h-.063c0 .093-.004.186-.004.279l.126-.249a.546.546 0 0 0-.059-.03Zm-.346.279h.279c-.093-.048-.186-.093-.275-.141v.141h-.004Z"></path></svg>