<svg xmlns:xlink="http://www.w3.org/1999/xlink" width="197" height="197" viewBox="0 0 197 197" fill="none" xmlns="http://www.w3.org/2000/svg" class=""><g clip-path="url(#clip0_3650_218200)" fill="none"><path d="M70.5687 106.262C74.9679 115.603 78.1092 126.382 78.1162 141.109V98.1659C78.1162 97.5543 78.1162 96.9427 78.1023 96.338C78.0814 94.816 78.0258 93.3079 77.9563 91.7998L65.4258 96.6369C67.2466 99.7365 68.991 102.913 70.5756 106.262H70.5687Z" fill="#F9F4E2" stroke="#004228" stroke-width="0.347492px" stroke-miterlimit="10"></path><path d="M86.5329 63.8408L74.8711 68.9906C76.5391 76.3783 77.5885 83.9953 77.9568 91.7931L78.1514 174.19H103.497V63.8408H86.5329Z" fill="#006A43" stroke="#004228" stroke-width="0.347492px" stroke-miterlimit="10"></path><path d="M72.4936 70.0403L59.5947 87.0396C57.8156 84.1276 56.0434 81.16 54.3615 78.0465L52.7422 78.7623L53.0132 101.419L65.4256 96.6234C63.5353 93.3987 61.5615 90.2434 59.5947 87.0326L72.5006 70.0264L72.4936 70.0403Z" fill="#006A43" stroke="#004228" stroke-width="0.347492px" stroke-miterlimit="10"></path><path d="M74.8703 68.9912L72.4934 70.0406L54.3613 78.0538C56.0432 81.1604 57.8154 84.128 59.5946 87.0469L59.6432 86.9843L59.5946 87.0538C61.5544 90.2647 63.5282 93.4199 65.4255 96.6446L77.956 91.8075C77.5877 84.0098 76.5383 76.3858 74.8703 69.0051V68.9912Z" fill="#009C6A" stroke="#004228" stroke-width="0.347492px" stroke-miterlimit="10"></path><path fill-rule="evenodd" clip-rule="evenodd" d="M77.964 94.232C77.9779 83.4597 79.4304 72.7917 82.2729 62.5129H82.3007L82.391 62.1863H82.3632C83.6003 57.7523 85.1223 53.3461 86.8806 49.0719H86.9501C85.171 53.4086 83.6281 57.8774 82.3771 62.367C79.4999 72.6944 78.0404 83.4111 78.0196 94.232H77.957H77.964ZM87.0544 48.648C94.0389 31.8503 104.999 16.6371 118.766 4.6347L118.836 4.5791L118.822 4.66945C115.924 23.4896 104.088 40.0024 87.1586 48.8495L87.0613 48.655L87.0544 48.648Z" fill="#009C6A"></path><path d="M118.585 5.02446C115.611 23.5597 103.935 39.8084 87.2695 48.593C94.1985 31.9898 105.019 16.9365 118.585 5.02446ZM119.079 4.13488L118.655 4.50322C104.88 16.5195 93.8927 31.6562 86.8039 48.8154C84.9969 53.1868 83.4471 57.6834 82.1614 62.298C79.3189 72.5143 77.7969 83.2796 77.7969 94.3993H78.2069C78.2069 83.3074 79.722 72.5838 82.5575 62.4023C83.8293 57.8293 85.3722 53.3675 87.1583 49.0378C103.887 40.3296 116.021 24.0323 118.995 4.68392L119.079 4.12793V4.13488ZM86.783 48.8988C86.783 48.8988 86.783 48.8501 86.7969 48.8223C86.7969 48.8223 86.8108 48.8015 86.8178 48.7876C86.8386 48.7528 86.8734 48.732 86.8942 48.7181L86.9846 48.8918H86.783V48.8988Z" fill="#004228"></path><path d="M133.777 79.1514V125.006C133.777 146.502 121.503 165.107 103.573 174.197L103.496 174.121V148.9L103.573 128.342C103.573 106.846 115.846 88.2418 133.777 79.1514Z" fill="#F9F4E2" stroke="#004228" stroke-width="0.347492px" stroke-linejoin="round"></path><path d="M74.8704 68.9903C74.7661 68.5456 74.6271 67.8992 74.509 67.3849C74.509 67.3849 74.4951 67.3224 74.4881 67.2946C74.4742 67.2251 74.4534 67.1486 74.4395 67.093C69.0533 44.7146 57.9684 24.5601 42.7969 8.2627V30.9887C42.7969 52.3594 47.9745 66.2591 54.3614 78.0529L72.1808 70.1857L74.8704 68.9973V68.9903Z" fill="#F9F4E2" stroke="#004228" stroke-width="0.347492px" stroke-miterlimit="10"></path><path d="M98.0075 173.551C98.2855 173.829 98.5496 174.1 98.8136 174.385H78.3047V162.111C85.8661 164.168 92.6213 168.172 98.0005 173.551H98.0075Z" fill="#009C6A"></path><path d="M77.9424 162.111V174.385H34.082C34.3461 174.107 34.6172 173.829 34.8952 173.551C42.9222 165.524 54.0142 160.555 66.2667 160.555C70.3115 160.555 74.2243 161.097 77.9424 162.111Z" fill="#E3FFDB"></path></g><defs><clipPath id="clip0_3650_218200"><rect width="197" height="197" fill="white"></rect></clipPath></defs></svg>