<svg viewBox="0 0 500 250" xmlns:xlink="http://www.w3.org/1999/xlink" xmlns="http://www.w3.org/2000/svg" width="500" height="250" fill="none"><path fill="#E8FEDF" d="M445.681 205.764c-6.031-.165-10.89-5.119-10.89-11.192 0-6.072 5.025-11.199 11.2-11.199 6.176 0 11.199 5.024 11.199 11.199 0 6.176-4.858 11.027-10.889 11.192v35.163c2.068-14.057 9.284-26.858 20.504-35.981l.503-.408v.652c0 17.02-7.451 32.95-20.467 43.852h41.62V119.091c-29.066 3.715-53.69 24.087-62.792 51.98l-.062.19-.199.021a81.762 81.762 0 0 0-38.461 14.498 82.352 82.352 0 0 0-26.052 30.308 429.1 429.1 0 0 1 84.791 32.752v-43.08l-.005.004Z"/><path fill="#FFFAEB" d="m375.174 41.929.549.586-.8-.07a73.033 73.033 0 0 0-6.147-.264 70.836 70.836 0 0 0-53.533 24.409h173.222V.685H356.544c1.524 15.522 7.963 29.776 18.63 41.244Z"/><path fill="#006A43" d="M446.305 248.691c12.797-10.646 20.19-26.192 20.38-42.845-12.797 10.651-20.19 26.197-20.38 42.845Z"/><path fill="#0B996E" d="M445.992 205.153c5.843 0 10.58-4.737 10.58-10.581 0-5.843-4.737-10.58-10.58-10.58-5.844 0-10.581 4.737-10.581 10.58 0 5.844 4.737 10.581 10.581 10.581Z"/><path fill="#FAF5E3" d="M357.622 215.861a430.372 430.372 0 0 0-34.123-7.414 434.256 434.256 0 0 0-13.701-2.167 435.301 435.301 0 0 0-30.956-3.257 437.048 437.048 0 0 0-55.552-.285 431.369 431.369 0 0 0-35.377 3.525 429.874 429.874 0 0 0-55.18 11.555 426.85 426.85 0 0 0-42.024 14.126 430.873 430.873 0 0 0-37.8 17.09H444.69a428.177 428.177 0 0 0-87.073-33.177l.004.004Z"/><path fill="#fff" d="M368.582 130.715c1.564-9.271 8.9-16.607 18.172-18.171-9.272-1.565-16.608-8.901-18.172-18.172-1.565 9.271-8.9 16.607-18.172 18.172 9.272 1.564 16.607 8.9 18.172 18.171ZM308.774 192.591l3.335 5.222c1.54 2.411 5.743 8.211 11.522 10.023a430.737 430.737 0 0 1 33.677 7.302c-.809-4.285-3.08-5.878-6.655-8.053l-.825-.5c-3.757-2.266-8.905-5.366-15.336-12.269-1.788-1.915-4.648-5.911-8.508-11.868a1612.423 1612.423 0 0 1-13.375 7.905l-3.835 2.234v.004Z"/><path fill="#0B996E" d="M286.598 174.155c.842-6.787.9-11.72.9-11.769.008-.652.004-1.3 0-1.953l-19.509-30.547.52-.335 39.927 62.52 3.86-2.246a1708.323 1708.323 0 0 0 13.35-7.889c-3.571-5.535-7.967-12.698-13.074-21.305-9.263-15.591-18.807-32.417-23.67-41.061-1.119-1.986-2.613-3.534-4.446-4.612-2.374-1.395-9.189-4.041-21.132 1.482l-.512.236.793-5.99c-.066 0-.132 0-.198.008-5.845.289-10.663 2.601-12.884 6.18-1.973 3.183-1.969 7.253.008 12.095 3.489-7.075 6.353-11.521 6.382-11.567l.52.335c-.028.045-3.038 4.718-6.646 12.111-4.066 8.314-7.244 16.62-9.453 24.695 3.137 4.602 6.312 9.601 9.437 14.856 15.567-.264 28.009 2.411 35.819 4.752l.008.004Z"/><path fill="#fff" d="m311.589 198.151-4.867-7.62a1301.8 1301.8 0 0 1-7.781 4.599c.537.879 1.048 1.725 1.531 2.514 2.44 4 5.97 7.001 9.441 8.029 3.683.52 7.385 1.098 11.047 1.713-4.669-2.464-8.021-7.121-9.371-9.235Z"/><path fill="#02835C" d="M288.117 162.39c0 .05-.057 5.193-.949 12.203-.041.338-.087.689-.136 1.04 4.041 6.601 8.272 13.532 11.587 18.968 2.882-1.692 5.759-3.397 7.773-4.594l-18.27-28.612v.995h-.005Z"/><path fill="#D7FEC8" d="m265.739 66.206-.029.528c-.004.075-.351 7.229 5.272 13.904.924-.727 4.313-3.191 7.442-2.832 1.354.157 2.477.821 3.34 1.986 1.206 1.626 1.482 3.554.793 5.58-1.222 3.592-5.297 6.944-10.176 8.393.017 1.569.574 10.477 11.191 13.4.574-.516 3.241-2.997 9.243-9.602 2.477-2.725 10.423-12.422 8.685-22.746-.982-5.837-4.92-10.67-11.703-14.374-4.198-2.287-8.388-3.624-12.45-3.967l-.103-.008-.079-.066a11.462 11.462 0 0 0-7.554-2.84c-6.32 0-11.464 5.143-11.464 11.463 0 2.118.578 4.17 1.672 5.957 2.675-3.17 5.321-4.479 5.437-4.537l.475-.23.008-.009Z"/><path fill="#E8FEDF" d="M191.455 181.701c1.366-2.262 2.803-4.33 4.4-6.605l.244-.347c2.832-4.02 5.503-7.822 7.228-12.38a30.397 30.397 0 0 0 1.358-4.71l.607.124a30.958 30.958 0 0 1-1.354 4.71c.813 3.398 1.998 7.233 3.439 11.096 2.472 6.659 7.839 19.192 16.033 28.53a436.38 436.38 0 0 1 25.4-.739c9.932 0 19.98.342 29.871 1.019 4.532-8.512 6.7-19.224 7.719-26.729.042-.301.079-.594.116-.888-7.699-2.315-19.984-4.978-35.374-4.759 5.66 9.565 9.293 16.834 9.33 16.908l-.553.277c-.037-.074-3.777-7.554-9.582-17.33a286.803 286.803 0 0 0-9.589-15.1c-6.048-8.855-11.864-16.091-17.292-21.512-6.7-6.691-12.826-10.625-18.205-11.694-14.011-2.783-22.172 17.837-30.057 37.78-3.017 7.633-6.138 15.521-9.511 21.771l22.077 7.918c.718-2.031 1.862-4.306 3.691-7.332l.004-.008Z"/><path fill="#fff" d="m271.762 93.517.008-.227.219-.062c4.793-1.358 8.805-4.598 9.982-8.062.619-1.824.375-3.558-.702-5.011-.755-1.02-1.738-1.602-2.914-1.738-3.319-.38-7.175 2.852-7.212 2.885l-.235.198-.203-.23c-5.065-5.858-5.581-12.166-5.618-14.028-.9.533-3.013 1.936-5.053 4.45a21.464 21.464 0 0 0-3.24 5.544c-2.432 6.08-5.491 8.719-6.684 9.565l2.424 1.053-.054.247c-1.197 5.619-.595 10.09 1.787 13.284 2.122 2.845 5.656 4.541 10.213 4.905.871.07 1.8.09 2.758.061l.016.62c-.875.024-1.717.004-2.522-.046l-1.156 8.723c11.121-4.991 17.854-2.96 20.665-1.511l-.871-6.39c-11.851-3.286-11.616-14.114-11.612-14.226l.004-.004ZM225.156 68.761a4.665 4.665 0 1 0 0-9.33 4.665 4.665 0 0 0 0 9.33Z"/><path fill="#D7FEC8" d="M196.284 175.559c-1.56 2.22-2.968 4.251-4.301 6.464-1.891 3.133-3.047 5.449-3.74 7.509-1.474 4.372-1.04 8.062-.173 15.414l.078.669a431.925 431.925 0 0 1 34.49-3.447c-7.992-9.263-13.259-21.466-15.753-28.133-1.857.231-5.515.719-10.601 1.528v-.004Z"/><path fill="#fff" d="M148.642 45.033c0-15.934 12.963-28.896 28.897-28.896a28.809 28.809 0 0 1 14.993 4.194A80.43 80.43 0 0 0 208.309.615H12.659C46.243 14.68 69.896 45.578 74.619 81.637a80.24 80.24 0 0 0 21.181-20.182l.268-.368.244.384a39.689 39.689 0 0 0 5.445 6.787c7.476 7.476 17.416 11.591 27.992 11.591s20.513-4.115 27.993-11.591c.392-.393.768-.789 1.127-1.181-6.498-5.511-10.226-13.524-10.226-22.048v.004Z"/><path fill="#FAF5E3" d="M169.951 40.27c0 9.898-3.62 19.38-10.196 26.745a28.33 28.33 0 0 0 17.784 6.295c15.591 0 28.277-12.685 28.277-28.277 0-9.788-4.937-18.713-13.21-23.93a80.638 80.638 0 0 1-22.915 14.526c.178 1.515.264 3.076.264 4.64h-.004Z"/><path fill="#0B996E" d="M149.261 45.033c0 8.347 3.65 16.194 10.019 21.586a39.473 39.473 0 0 0 10.052-26.35c0-1.618-.095-3.232-.289-4.797l-.029-.235.219-.09a80.07 80.07 0 0 0 22.816-14.383 28.195 28.195 0 0 0-14.514-4.008c-15.592 0-28.278 12.685-28.278 28.277h.004Z"/><path fill="#fff" d="m187.566 189.623-22.18-7.951c-3.084 5.606-6.114 9.334-9.251 11.377-2.353 1.532-4.595 2.956-6.568 4.215-13.664 8.706-19.377 12.351-16.706 19.885a430.601 430.601 0 0 1 54.672-11.447l-.079-.681c-.858-7.287-1.292-11.022.112-15.398Z"/><path fill="#D7FEC8" d="M116.682 221.999a428.798 428.798 0 0 1 15.58-4.685c-2.803-7.971 3.439-11.955 16.97-20.574 1.974-1.259 4.211-2.684 6.564-4.211 2.985-1.94 5.878-5.474 8.838-10.778-20.091 4.644-38.952 10.365-56.059 17.016l-.078.028c3.723 7.567 6.431 16.488 8.053 22.68l.137.524h-.005Z"/><path fill="#006A43" d="M11.62 152.26h113.765c-2.89-12.137-9.107-23.229-17.991-32.096-8.974-8.962-20.21-15.2-32.504-18.036l-.256-.057.017-.265a102.5 102.5 0 0 0-.586-19.6C69.481 45.871 45.572 14.746 11.618.86V152.26Z"/><path fill="#fff" d="M115.948 221.632c-1.614-6.18-4.318-15.088-8.034-22.618l-.767.289c-4.644 1.755-7.712 2.915-10.837 2.84-3.442-.086-6.865-1.705-12.202-5.771-5.383-4.103-9.804-4.693-12.566-4.471-2.312.19-3.872.971-4.446 1.305l22.705 36.612c.305.495.615.978.924 1.461a429.555 429.555 0 0 1 25.363-9.09l-.144-.557h.004Z"/><path fill="#E8FEDF" d="M20.453 238.058h-.214l-.07-.211a22.369 22.369 0 0 0-8.546-11.204v22.391h27.46c-3.876-6.601-10.964-10.795-18.625-10.981l-.005.005Z"/><path fill="#004228" d="M358.009 215.564h-.305c.912.239 1.825.479 2.737.726l-.277-.136c.038-.074.079-.149.116-.227-.768-.206-1.54-.409-2.312-.611l.037.202v.05l.004-.004ZM51.633 249.348a428.58 428.58 0 0 1 38.676-17.573c-.058-.087-.112-.178-.17-.265a432.693 432.693 0 0 0-38.65 17.561l-1.136.586h80.316v-.309h-79.04.004ZM445.682 249.038v-.194a428.51 428.51 0 0 0-84.791-32.752c-.046.095-.099.186-.144.281a427.736 427.736 0 0 1 84.633 32.665h.302Z"/><path fill="#004228" d="M52.917 249.038a430.884 430.884 0 0 1 37.8-17.09 426.85 426.85 0 0 1 42.024-14.126 429.732 429.732 0 0 1 55.18-11.555 431.349 431.349 0 0 1 35.378-3.525 437.79 437.79 0 0 1 25.519-.747c9.986 0 20.092.346 30.032 1.032a432.982 432.982 0 0 1 44.658 5.424 432.232 432.232 0 0 1 34.122 7.414c.916.239 1.825.479 2.741.727a428.15 428.15 0 0 1 84.332 32.45h.686a427.522 427.522 0 0 0-84.634-32.665l-.029.054-.277-.137c-.912-.247-1.82-.487-2.736-.722h-.017l-.297.045-.025-.132a429.13 429.13 0 0 0-33.809-7.335l-.132.28a13.635 13.635 0 0 1-1.469-.553 432.446 432.446 0 0 0-12.12-1.895l-.087.298a12.175 12.175 0 0 1-1.367-.496 432.273 432.273 0 0 0-29.189-3.034c-.012.025-.025.054-.041.079l-.062.115-.426-.231a436.119 436.119 0 0 0-29.858-1.02c-8.574 0-17.086.252-25.536.748l-.227.202-.153-.178a428.692 428.692 0 0 0-34.709 3.464l-.309.041a428.35 428.35 0 0 0-55.222 11.563 426.174 426.174 0 0 0-15.897 4.776v.016l-.297.075a425.28 425.28 0 0 0-25.862 9.267l-.26.17s-.02-.034-.033-.05a428.581 428.581 0 0 0-38.676 17.573h79.04v-.309h-77.76l.004-.013Z"/><path fill="#004228" d="M323.631 207.84s.008 0 .017.004l.045.017-.128.276a429.073 429.073 0 0 1 33.809 7.336 53.146 53.146 0 0 0-.062-.335 432.575 432.575 0 0 0-33.677-7.302l-.004.004ZM309.918 205.673s.012 0 .016.004l-.086.297c4.062.574 8.099 1.21 12.12 1.895a18.846 18.846 0 0 1-1.003-.483 429.724 429.724 0 0 0-11.047-1.713ZM279.353 202.445c-.053.099-.099.202-.152.297a432.138 432.138 0 0 1 29.189 3.034 15.249 15.249 0 0 1-.904-.438 438.986 438.986 0 0 0-28.133-2.897v.004ZM278.615 202.527c.024-.045.045-.091.07-.132a437.472 437.472 0 0 0-55.271-.281c.033.038.062.075.095.112l-.231.206c8.45-.495 16.962-.743 25.536-.743 10.035 0 19.992.343 29.858 1.02l-.119-.066.062-.112v-.004ZM188.148 205.611l.037.309a432.784 432.784 0 0 1 34.709-3.463l-.256-.293a433.598 433.598 0 0 0-34.49 3.447ZM187.533 205.698a430.601 430.601 0 0 0-54.672 11.447c.02.062.041.124.066.19l-.289.107.02.082a428.831 428.831 0 0 1 55.221-11.562l-.305.037-.033-.297-.008-.004ZM132.345 217.549c-.029-.078-.054-.157-.083-.235a426.366 426.366 0 0 0-15.579 4.685l.078.302a425.617 425.617 0 0 1 15.897-4.777l-.02-.082-.289.107h-.004ZM116.092 222.189a426.73 426.73 0 0 0-25.363 9.09c.046.07.091.145.136.215l-.26.169a427.74 427.74 0 0 1 25.863-9.267l-.302.074-.07-.281h-.004ZM445.682 205.454c-5.871-.165-10.581-4.974-10.581-10.882 0-5.907 4.876-10.889 10.89-10.889 6.015 0 10.89 4.875 10.89 10.889 0 6.015-4.71 10.721-10.58 10.882v.31c6.031-.166 10.89-5.119 10.89-11.192 0-6.072-5.024-11.199-11.2-11.199-6.175 0-11.199 5.024-11.199 11.199 0 6.176 4.858 11.026 10.89 11.192v-.31Z"/><path fill="#004228" d="M446.301 205.343v.111c5.87-.165 10.58-4.974 10.58-10.882 0-5.907-4.875-10.889-10.89-10.889-6.015 0-10.89 4.875-10.89 10.889 0 6.015 4.71 10.721 10.58 10.882v-.111h.62Zm-10.89-10.771c0-5.833 4.747-10.58 10.58-10.58s10.58 4.747 10.58 10.58-4.747 10.581-10.58 10.581-10.58-4.748-10.58-10.581ZM445.991 205.462h.31v-.008c-.103 0-.207.008-.31.008Z"/><path fill="#004228" d="M445.682 205.462h.309c-.103 0-.206-.004-.309-.008v.008Z"/><path fill="#004228" d="M446.301 205.343h-.619v.111c.103 0 .206.008.309.008.103 0 .207-.004.31-.008v-.111ZM445.682 250l.421-.343h-.421V250ZM467.308 205.186v-.653l-.503.409c-11.216 9.123-18.432 21.924-20.504 35.98v2.498c1.589-15.406 9.313-28.983 20.698-38.238 0 17.659-8.029 33.425-20.636 43.852h.483c13.015-10.902 20.467-26.832 20.467-43.852l-.005.004Z"/><path fill="#004228" d="M466.999 205.186c-11.385 9.255-19.109 22.832-20.698 38.238v5.614h.062c12.607-10.427 20.636-26.188 20.636-43.852Zm-20.694 43.501c.19-16.648 7.587-32.195 20.38-42.845-.19 16.653-7.587 32.199-20.38 42.845ZM445.306 249.348H130.673v.309h315.009v-.119c-.124-.066-.252-.128-.376-.19Z"/><path fill="#004228" d="M425.145 170.692a82.42 82.42 0 0 0-38.557 14.588 82.98 82.98 0 0 0-26.308 30.647c.083.021.161.041.244.066.021.004.041.012.062.017 12.235-24.496 36.331-42.008 64.79-45.029 9.065-27.782 33.561-48.563 63.395-52.237v130.608h-42.297c-.094.078-.189.161-.289.239l-.086.071h42.981V118.389l-.346.041c-29.388 3.621-54.326 24.121-63.589 52.257v.005Z"/><path fill="#004228" d="M386.948 185.784a81.758 81.758 0 0 1 38.461-14.498l.198-.021.062-.19c9.102-27.893 33.726-48.265 62.792-51.98v129.947h-41.619l-.372.31h42.296V118.74c-29.833 3.674-54.329 24.45-63.394 52.236-28.459 3.022-52.555 20.538-64.79 45.029.103.029.202.058.305.083a82.352 82.352 0 0 1 26.052-30.308l.009.004ZM130.673 249.038v.31h314.633l-.611-.31H130.673ZM360.441 216.29c.046-.095.099-.186.145-.28-.021-.005-.042-.013-.062-.017a5.516 5.516 0 0 1-.244-.066c-.037.074-.078.149-.115.227l.276.136ZM445.306 249.348c.124.066.252.128.376.19v-.19h-.376Z"/><path fill="#004228" d="m445.38 249.038.302.153v-.153h-.302ZM360.441 216.29c.103.029.202.058.305.083.046-.095.099-.186.145-.281-.103-.029-.202-.058-.306-.082-.045.094-.099.185-.144.28ZM445.681 249.191l-.301-.153h-.685l.611.31h.375v-.157Z"/><path fill="#004228" d="M360.746 216.373c-.103-.029-.202-.058-.305-.083l.276.136s.017-.037.029-.053ZM446.474 249.348h-.483l-.14.276c-.054-.029-.112-.057-.169-.086v.119h.421l.086-.07c.099-.078.19-.161.289-.239h-.004ZM446.363 249.038l-.062.05v.26h.173l.372-.31h-.483ZM446.301 249.088l.062-.05h-.062v.05Z"/><path fill="#004228" d="M445.682 249.538c.053.029.111.057.169.086l.14-.276h-.309v.19ZM355.863.066l.033.339c1.453 15.525 7.773 29.813 18.292 41.363a71.958 71.958 0 0 0-5.412-.203c-20.975 0-40.823 9.165-54.445 25.14l-.434.512h175.187V.066H355.863ZM488.77 66.904H314.562c13.061-15.315 32.5-25.029 54.209-25.029 2.081 0 4.137.09 6.172.264C364.548 30.965 357.7 16.446 356.197.376h132.569v66.528h.004Z"/><path fill="#004228" d="M374.947 42.14a72.631 72.631 0 0 0-6.171-.265c-21.71 0-41.149 9.714-54.21 25.029h174.208V.376H356.206c1.502 16.07 8.351 30.589 18.745 41.763h-.004Zm113.514 24.454H315.239a70.833 70.833 0 0 1 53.533-24.41c2.035 0 4.103.088 6.146.265l.801.07-.549-.586C364.503 30.465 358.063 16.21 356.54.689h131.921v65.905ZM126.078 152.499c-2.877-12.396-9.189-23.732-18.246-32.773-8.995-8.982-20.244-15.253-32.546-18.142a103.165 103.165 0 0 0-.582-19.262 80.901 80.901 0 0 0 21.33-20.133 40.232 40.232 0 0 0 5.284 6.51c7.592 7.592 17.689 11.774 28.43 11.774s20.834-4.182 28.43-11.774c.405-.404.793-.813 1.164-1.222-.074-.062-.153-.12-.231-.181-.004 0-.008-.009-.012-.013-.372.405-.752.805-1.14 1.193-7.22 7.22-17.193 11.683-28.211 11.683-11.018 0-20.991-4.463-28.211-11.683a40.07 40.07 0 0 1-5.486-6.84 80.884 80.884 0 0 1-21.677 20.53c.537 4.222.81 8.528.81 12.9 0 2.27-.075 4.524-.224 6.757 12.583 2.902 23.828 9.3 32.653 18.118 8.83 8.813 15.245 20.05 18.164 32.624H11.31V.31h197.528a80.95 80.95 0 0 1-16.034 20.19c.091.058.178.116.269.173A81.159 81.159 0 0 0 209.106.463l.26-.463H11v152.879h115.165l-.087-.38Z"/><path fill="#004228" d="M157.74 68.262c-7.476 7.476-17.416 11.591-27.992 11.591s-20.516-4.115-27.992-11.591a40.04 40.04 0 0 1-5.445-6.787l-.244-.384-.268.368A80.243 80.243 0 0 1 74.618 81.64C69.895 45.582 46.24 14.684 12.66.619h195.649a80.53 80.53 0 0 1-15.777 19.716c.066.041.136.078.202.12l.07.045A81.025 81.025 0 0 0 208.838.31H11.31V.4c33.627 13.573 58.37 44.55 63.064 81.77a80.887 80.887 0 0 0 21.677-20.53 40.065 40.065 0 0 0 5.486 6.84c7.22 7.22 17.197 11.683 28.211 11.683s20.987-4.462 28.211-11.682c.392-.393.772-.789 1.14-1.193-.079-.066-.153-.137-.232-.203-.359.392-.734.789-1.127 1.18v-.003Z"/><path fill="#004228" d="M169.642 40.27c0 10.2-3.831 19.5-10.131 26.551.079.066.161.128.244.194a40.073 40.073 0 0 0 10.196-26.746c0-1.564-.091-3.125-.264-4.64a80.583 80.583 0 0 0 22.915-14.526l-.194-.124-.079-.05a80.534 80.534 0 0 1-22.976 14.502c.194 1.585.289 3.195.289 4.834v.004Z"/><path fill="#004228" d="m169.018 35.241.029.236c.19 1.564.289 3.178.289 4.797 0 9.75-3.571 19.096-10.052 26.349.079.066.149.136.227.198l.004.004c6.3-7.05 10.131-16.355 10.131-26.552 0-1.638-.095-3.253-.289-4.834a80.555 80.555 0 0 0 22.977-14.501 6.27 6.27 0 0 0-.281-.165 79.98 79.98 0 0 1-22.816 14.382l-.219.09v-.004ZM11.31.4V152.57h114.467c-2.919-12.574-9.334-23.81-18.164-32.624-8.826-8.817-20.07-15.216-32.653-18.118.149-2.233.223-4.487.223-6.758 0-4.371-.272-8.677-.809-12.9C69.68 44.951 44.941 13.974 11.31.4Zm62.754 81.806a102.503 102.503 0 0 1 .587 19.6l-.017.265.256.057c12.293 2.836 23.53 9.074 32.505 18.036 8.883 8.867 15.1 19.959 17.99 32.096H11.619V.859C45.572 14.74 69.482 45.87 74.064 82.206ZM368.272 134.418h.31c0-12.083-9.796-21.879-21.879-21.879v.31c11.893 0 21.569 9.676 21.569 21.569ZM368.582 90.66h-.31c0 11.894-9.676 21.57-21.569 21.57v.309c12.083 0 21.879-9.795 21.879-21.878ZM368.582 134.418h.309c0-11.893 9.676-21.569 21.569-21.569v-.31c-12.083 0-21.878 9.796-21.878 21.879Z"/><path fill="#004228" d="M390.46 112.539v-.309c-11.893 0-21.569-9.676-21.569-21.57h-.309c0 12.084 9.795 21.879 21.878 21.879Z"/><path fill="#004228" d="M368.582 134.418c0-12.083 9.796-21.879 21.879-21.879-12.083 0-21.879-9.795-21.879-21.878 0 12.083-9.796 21.878-21.879 21.878 12.083 0 21.879 9.796 21.879 21.879Zm0-40.05c1.564 9.271 8.9 16.607 18.172 18.171-9.272 1.565-16.608 8.901-18.172 18.172-1.565-9.271-8.9-16.607-18.172-18.172 9.272-1.564 16.607-8.9 18.172-18.171ZM206.126 45.033c0 15.786-12.797 28.587-28.587 28.587a28.478 28.478 0 0 1-17.986-6.37c-.004.004-.008.013-.013.017-.061.07-.132.14-.198.215a28.931 28.931 0 0 0 18.197 6.452c15.934 0 28.896-12.962 28.896-28.897 0-9.944-4.986-19.018-13.358-24.36-.079.07-.157.145-.235.22 7.983 5.069 13.284 13.985 13.284 24.144v-.008ZM148.952 45.033c0-15.786 12.801-28.587 28.587-28.587a28.437 28.437 0 0 1 14.758 4.103c.024-.02.049-.04.07-.061.058-.05.111-.104.169-.157a28.78 28.78 0 0 0-14.993-4.194c-15.934 0-28.897 12.962-28.897 28.896 0 8.524 3.728 16.537 10.226 22.048.07-.074.14-.148.206-.223-6.192-5.243-10.122-13.073-10.122-21.82l-.004-.005Z"/><path fill="#004228" d="M192.602 21.107c8.277 5.218 13.21 14.143 13.21 23.93 0 15.592-12.685 28.277-28.277 28.277a28.332 28.332 0 0 1-17.784-6.295c-.07.079-.132.157-.202.235a28.478 28.478 0 0 0 17.986 6.37c15.79 0 28.587-12.801 28.587-28.587 0-10.159-5.301-19.076-13.284-24.145-.021.02-.042.037-.062.058-.058.054-.12.103-.178.157h.004ZM159.28 66.619a28.199 28.199 0 0 1-10.019-21.586c0-15.592 12.686-28.277 28.278-28.277a28.196 28.196 0 0 1 14.514 4.008c.082-.074.161-.144.243-.215a28.42 28.42 0 0 0-14.757-4.103c-15.786 0-28.587 12.801-28.587 28.587 0 8.748 3.934 16.578 10.122 21.821 0 0 0-.004.004-.008.07-.075.132-.157.198-.231l.004.004ZM192.573 20.719l.269.173c.078-.07.156-.144.235-.219-.091-.057-.178-.115-.268-.173-.079.07-.157.145-.236.219Z"/><path fill="#004228" d="M159.553 67.25c-.079-.066-.165-.128-.244-.194-.07.079-.14.153-.21.227.004 0 .008.009.012.013.074.062.153.12.231.181.066-.07.132-.14.198-.214l.013-.017v.004Z"/><path fill="#004228" d="M159.074 66.858c-.066.075-.14.149-.206.223.078.066.152.136.231.202.07-.074.14-.152.21-.227-.078-.066-.156-.136-.235-.202v.004ZM192.532 20.335c-.058.05-.112.103-.169.157-.025.02-.046.041-.071.062.091.058.186.111.281.165.079-.07.157-.145.235-.219a1.282 1.282 0 0 0-.07-.045c-.066-.042-.136-.079-.202-.12h-.004ZM159.511 66.825c-.07.079-.132.157-.202.236.079.065.161.127.244.193.07-.078.132-.156.202-.235-.078-.066-.165-.128-.244-.194Z"/><path fill="#004228" d="m192.408 20.979.194.124c.058-.054.12-.104.178-.157.02-.02.041-.037.061-.058-.09-.058-.177-.116-.268-.173-.078.074-.161.144-.243.214.024.017.053.033.078.05Z"/><path fill="#004228" d="M192.049 20.768c.095.058.186.112.281.165.082-.074.161-.144.243-.214a6.37 6.37 0 0 0-.281-.165c-.078.074-.161.144-.243.214ZM159.507 66.821c-.078-.066-.148-.136-.227-.198-.066.074-.132.157-.198.231 0 0 0 .004-.004.008.079.066.157.137.235.203a8.36 8.36 0 0 0 .203-.236l-.004-.004-.005-.004ZM225.156 69.385a5.29 5.29 0 0 0 5.284-5.284 5.29 5.29 0 0 0-5.284-5.284 5.29 5.29 0 0 0-5.284 5.284 5.29 5.29 0 0 0 5.284 5.284Zm0-10.263a4.974 4.974 0 1 1 0 9.949 4.974 4.974 0 0 1 0-9.949Z"/><path fill="#004228" d="M225.156 69.075a4.974 4.974 0 1 0 0-9.949 4.974 4.974 0 0 0 0 9.949Zm0-9.643a4.67 4.67 0 0 1 4.665 4.665 4.67 4.67 0 0 1-4.665 4.664 4.67 4.67 0 0 1-4.665-4.664 4.67 4.67 0 0 1 4.665-4.665ZM315.342 17.441h-.619v11.134h.619V17.44ZM315.342 29.194h-.619v11.133h.619V29.194Z"/><path fill="#004228" d="M314.723 28.575h-11.134v.619h11.134v-.62ZM326.475 28.575h-11.133v.619h11.133v-.62Z"/><path fill="#004228" d="M315.342 28.575h-.619v.619h.619v-.62ZM20.684 237.442a22.98 22.98 0 0 0-9.205-11.637L11 225.5v24.157h29.14l-.256-.458C36 242.202 28.656 237.715 20.68 237.447l.004-.005Zm-9.37 11.906V226.07a22.57 22.57 0 0 1 9.148 11.678c8.247.198 15.393 4.83 19.154 11.6H11.314Z"/><path fill="#004228" d="M20.462 237.748a22.61 22.61 0 0 0-9.148-11.678v23.278h28.302c-3.76-6.774-10.906-11.402-19.154-11.6Zm-8.838 11.29v-22.391a22.313 22.313 0 0 1 8.545 11.204l.07.206h.215c7.661.19 14.75 4.384 18.625 10.985H11.62l.005-.004ZM287.808 162.39c.004-.491 0-.982 0-1.474l-.31-.483v1.953c0 .049-.058 4.982-.9 11.769l.301.091c.863-6.911.909-11.856.909-11.856Z"/><path fill="#004228" d="M286.978 175.546c.016.029.037.058.053.091.05-.351.095-.702.137-1.04.891-7.014.949-12.153.949-12.203v-.995l-.309-.483v1.474s-.05 4.945-.909 11.856a.242.242 0 0 1 .05.016l-.087.293v.314l-.041-.004c-.037.281-.07.561-.112.846l.265-.161.004-.004ZM286.639 176.186c-1.118 8.008-3.314 18.089-7.62 26.234l.334.025c4.323-8.24 6.477-18.416 7.542-25.842l-.256-.417Z"/><path fill="#004228" d="M286.709 175.707v.004l.005-.004h-.005Z"/><path fill="#004228" d="m286.449 175.868.261-.161c.041-.289.074-.565.111-.846l-.05-.008-.251-.075c-.038.293-.075.587-.116.888-1.02 7.505-3.187 18.217-7.719 26.729l.202.012c.045 0 .086.009.132.009 4.305-8.145 6.502-18.226 7.62-26.234-.066-.103-.128-.211-.194-.314h.004ZM278.672 202.705l.426.231.061-.116c.013-.024.025-.053.042-.078l-.335-.025-.19-.012h-.004Z"/><path fill="#004228" d="M279.019 202.42c-.046.087-.087.173-.132.256l-.021.041.335.025c.053-.099.103-.198.152-.297l-.334-.025Z"/><path fill="#004228" d="M278.887 202.676c.046-.083.087-.173.132-.256-.045 0-.086-.008-.132-.008l-.202-.013c-.025.046-.046.091-.07.132l-.062.112.119.066.19.012.021-.041.004-.004ZM250.515 129.716l-.285.124c-.021-.045-.033-.087-.054-.128-3.967 8.137-7.088 16.261-9.288 24.17.074.111.149.219.227.326 2.626-9.507 6.254-18.052 9.404-24.492h-.004Z"/><path fill="#004228" d="M241.342 154.547c2.208-8.071 5.387-16.376 9.453-24.694 3.608-7.394 6.613-12.067 6.646-12.112l-.52-.335c-.029.046-2.893 4.492-6.382 11.567.083.207.165.413.26.624l-.285.123c-3.149 6.444-6.778 14.989-9.403 24.492.049.07.099.141.148.215.029.041.054.083.083.12Z"/><path fill="#004228" d="M250.354 129.337c-5.495-13.119 4.219-18.519 13.04-18.952.087-.005.174-.005.256-.009l.042-.309a4.1 4.1 0 0 0-.314.012c-6.048.297-11.051 2.716-13.379 6.473-2.155 3.476-2.097 7.905.169 13.164l.062-.132c.041-.082.078-.161.12-.243l.004-.004Z"/><path fill="#004228" d="M250.531 116.874c2.221-3.583 7.038-5.895 12.884-6.18.066 0 .132-.004.198-.008l.041-.31c-.087 0-.173.004-.256.009-8.822.433-18.535 5.833-13.04 18.952.061-.124.119-.248.181-.368-1.973-4.842-1.981-8.912-.008-12.095ZM250.51 129.716c-.057-.128-.103-.251-.157-.379l-.119.243-.062.132c.021.041.033.087.053.128l.285-.124Z"/><path fill="#004228" d="M250.536 128.969c-.062.12-.12.244-.182.368.054.128.099.251.157.379l.285-.123c-.091-.211-.174-.417-.26-.624ZM284.633 114.67l-.012.02c1.804 1.057 3.36 2.601 4.557 4.727 5.21 9.259 14.589 25.775 23.671 41.053 4.631 7.803 9.189 15.278 13.073 21.301 0 0 .004 0 .009-.004l.161.268c3.653 5.652 6.699 9.999 8.636 12.079 6.881 7.385 12.256 10.382 16.091 12.715 3.744 2.278 6.027 3.93 6.824 8.4.045.013.094.025.14.037l.19.05c-.793-4.665-3.179-6.432-6.993-8.752l-.826-.499c-3.727-2.246-8.83-5.321-15.199-12.161-1.788-1.916-4.682-5.965-8.603-12.034-3.596-5.564-8.05-12.817-13.235-21.552-9.259-15.584-18.799-32.41-23.666-41.05-1.139-2.027-2.663-3.62-4.52-4.747l.016.107-.305.042h-.009ZM263.968 110.364l.458-3.455c-.103-.008-.206-.021-.309-.029l-.421 3.187c.091 0 .177-.009.268-.009v.31l.004-.004Z"/><path fill="#004228" d="M325.988 182.452c3.86 5.957 6.721 9.953 8.508 11.869 6.432 6.902 11.575 10.002 15.336 12.268l.826.5c3.575 2.175 5.845 3.764 6.654 8.054.111.028.219.053.33.082-.796-4.471-3.079-6.122-6.823-8.401-3.84-2.332-9.21-5.329-16.092-12.714-1.94-2.081-4.982-6.423-8.636-12.079l.157.265c-.078.045-.165.099-.255.152l-.005.004ZM284.323 114.711l-.024-.198c-5.866-3.212-14.18-1.557-21.099 1.643l.727-5.487c-.103 0-.211.009-.314.013l-.793 5.99.512-.236c11.943-5.523 18.758-2.877 21.132-1.482 1.833 1.074 3.327 2.626 4.446 4.611 4.867 8.645 14.411 25.471 23.67 41.062 5.106 8.603 9.503 15.765 13.074 21.305.095-.058.185-.111.264-.157-3.885-6.027-8.442-13.498-13.074-21.3-9.077-15.283-18.456-31.795-23.67-41.054-1.197-2.126-2.753-3.666-4.557-4.727l-.029-.016-.265.037v-.004Z"/><path fill="#004228" d="m263.927 110.678-.727 5.486c6.919-3.199 15.229-4.859 21.099-1.643l-.054-.38c-2.811-1.449-9.544-3.48-20.665 1.511l1.156-8.723c-.099-.008-.202-.008-.302-.016h-.008l-.458 3.455v.31h-.041ZM284.621 114.694l.012-.02h-.041s.02.016.029.02ZM357.638 215.229c.021.112.046.219.062.335h.31v-.05l-.037-.202-.19-.05-.141-.037-.004.004Z"/><path fill="#004228" d="m357.395 215.609.297-.045h.016-.004c-.111-.029-.219-.054-.33-.083l.025.132-.004-.004ZM357.37 215.477c.111.029.219.054.33.083-.016-.116-.041-.223-.062-.335-.111-.029-.218-.058-.33-.082l.062.334ZM263.968 110.364l-.004-.31c-.091 0-.178.009-.268.009l-.042.309c.103 0 .211-.008.314-.012v.004ZM263.927 110.678l.041-.31c-.103 0-.21.008-.313.012l-.042.31c.103 0 .211-.008.314-.012Z"/><path fill="#004228" d="M263.972 110.673v-.309h-.004l-.041.309h.045ZM312.114 197.817l-3.335-5.222-.269.157 3.344 5.234c2.444 3.827 6.052 7.74 10.229 9.594l1.528.26c.008 0 .016 0 .024.004-5.779-1.812-9.981-7.612-11.521-10.023v-.004ZM287.812 160.338h.309v.483l18.535 29.025s.005 0 .009-.004l.074-.046h.087v.314l1.519 2.374-.157-.269.256-.148-39.927-62.52-.52.334 19.509 30.548v-.091h.31-.004Z"/><path fill="#004228" d="m311.85 197.982-3.344-5.234-.013.008-.156-.268-1.52-2.374.157.264c-.082.05-.169.104-.256.153l4.867 7.62c1.35 2.114 4.706 6.771 9.371 9.235.372.062.743.128 1.119.19-4.174-1.854-7.786-5.767-10.23-9.594h.005ZM306.393 190.007l.264-.157-18.535-29.025v.574l18.271 28.612v-.004ZM321.963 207.869c.479.21.966.396 1.47.553l.132-.281h-.008l-1.589-.272h-.005Z"/><path fill="#004228" d="M323.648 207.848s-.009 0-.017-.004c-.008 0-.016 0-.025-.004l-1.527-.26c.487.215.974.409 1.474.565h.008l.128-.276-.046-.017.005-.004Z"/><path fill="#004228" d="M322.079 207.576c-.372-.062-.743-.128-1.119-.19.326.173.661.334 1.003.483.529.091 1.061.177 1.59.272-.5-.156-.991-.35-1.474-.565ZM287.812 160.338h-.31v.091l.31.483v-.574ZM288.122 160.338h-.31l.31.487v-.487ZM288.122 160.825l-.31-.483v.574l.31.483v-.574ZM165.245 180.979v.305s.009-.008.009-.016l.099-.273.041.017c12.037-22.288 20.108-63.684 39.918-59.75 11.811 2.349 24.984 17.714 35.465 33.004.033-.128.074-.256.111-.384-13.651-19.873-25.598-30.952-35.514-32.921-14.526-2.882-22.774 17.982-30.754 38.16-3.042 7.694-6.192 15.653-9.581 21.899.045-.012.091-.021.136-.033l.07-.008ZM250.61 169.713v-.305h.169a286.983 286.983 0 0 0-9.437-14.857l-.037.136-.297-.083c3.575 5.235 6.832 10.449 9.602 15.117h.004l-.004-.008Z"/><path fill="#004228" d="m165.246 181.288.008-.016s-.004.012-.008.016ZM175.194 159.348c7.884-19.943 16.042-40.563 30.056-37.781 5.379 1.07 11.505 5.004 18.205 11.695 5.429 5.42 11.245 12.657 17.293 21.512 3.191 4.673 6.415 9.75 9.589 15.1l.264-.157c-2.77-4.664-6.027-9.882-9.602-15.117l-.297-.082c.021-.083.05-.165.07-.248-10.481-15.29-23.653-30.655-35.464-33.004-19.81-3.934-27.881 37.458-39.918 59.75l.293.107c3.368-6.25 6.489-14.134 9.511-21.771v-.004ZM155.966 192.789c-18.147 11.806-26.544 15.538-23.402 24.442h.012c.095-.024.19-.053.285-.078-2.675-7.534 3.042-11.179 16.706-19.885 1.973-1.259 4.215-2.683 6.568-4.215 3.141-2.043 6.167-5.771 9.251-11.377l-.161-.057a2.513 2.513 0 0 0-.186.045c-2.753 4.983-5.713 8.945-9.077 11.133l.004-.008Z"/><path fill="#004228" d="M155.796 192.529a724.286 724.286 0 0 1-6.563 4.211c-13.532 8.619-19.774 12.603-16.971 20.574l.297-.087c-3.141-8.904 5.255-12.636 23.402-24.442 3.361-2.188 6.325-6.151 9.078-11.133-.136.033-.272.062-.409.095-2.959 5.304-5.853 8.838-8.838 10.778l.004.004Z"/><path fill="#004228" d="M132.563 217.227c.025.07.046.141.07.215l.289-.107c-.024-.062-.041-.124-.066-.19-.095.024-.19.053-.285.078h-.012l.004.004Z"/><path fill="#004228" d="M132.262 217.314c.029.078.05.157.083.235l.289-.107c-.029-.074-.046-.14-.07-.215l-.298.087h-.004ZM241.004 154.6c.037-.128.074-.256.107-.388a9.448 9.448 0 0 0-.227-.326l-.112.384c.075.112.153.219.228.33h.004Z"/><path fill="#004228" d="M241.342 154.547c-.029-.042-.054-.083-.083-.12-.049-.07-.099-.14-.148-.215-.037.128-.075.256-.108.388l.298.083.037-.136h.004Z"/><path fill="#004228" d="M241.004 154.6c-.075-.111-.153-.218-.227-.33-.025.083-.05.165-.07.248l.297.082ZM250.609 169.713l-.264.157c5.8 9.775 9.544 17.251 9.581 17.33l.554-.277c-.038-.074-3.67-7.34-9.33-16.908-.177 0-.355 0-.532.008v-.31h-.009ZM196.061 174.968c.099-.016.199-.033.298-.045 2.716-3.86 5.325-7.575 7.067-11.951l-.103-.425.301-.07.301-.07a.514.514 0 0 1 .021.086 31.09 31.09 0 0 0 1.354-4.71l-.607-.124a30.653 30.653 0 0 1-1.358 4.71c-1.725 4.558-4.4 8.36-7.228 12.38l-.244.347.252.178v-.009l-.045-.297h-.009Z"/><path fill="#004228" d="m203.55 163.467-.124-.495c-1.742 4.376-4.351 8.091-7.068 11.951.145-.021.285-.046.426-.066 2.604-3.699 5.052-7.241 6.766-11.385v-.005ZM187.958 189.412c.731-2.171 1.928-4.516 3.761-7.554 1.407-2.332 2.91-4.487 4.388-6.588l-.252-.178c-1.597 2.275-3.034 4.343-4.4 6.605-1.829 3.026-2.973 5.305-3.691 7.331l.293.104-.099.276v.004Z"/><path fill="#004228" d="M188.243 189.528c.693-2.06 1.845-4.376 3.74-7.509 1.337-2.208 2.741-4.24 4.301-6.465-.041.009-.082.013-.124.021h-.049v-.309c-1.478 2.101-2.981 4.256-4.388 6.588-1.833 3.038-3.03 5.383-3.761 7.554v.017c-1.548 4.57-1.036 8.367-.116 16.223.104-.016.207-.029.306-.041l-.078-.669c-.863-7.352-1.301-11.047.173-15.414l-.004.004Z"/><path fill="#004228" d="m187.949 189.429-.103.289-.281-.099c-1.403 4.375-.97 8.111-.111 15.397l.079.682c.099-.013.198-.029.297-.046h.008c-.921-7.856-1.432-11.653.111-16.223ZM187.875 205.962l.31-.037c-.103.008-.206.02-.305.037h-.005Z"/><path fill="#004228" d="m187.842 205.652.037.31c.104-.017.207-.029.306-.042l-.037-.309c-.103.012-.207.029-.306.041Z"/><path fill="#004228" d="M187.843 205.652h-.009a7.618 7.618 0 0 0-.297.046l.033.297.306-.037-.038-.31.005.004ZM203.946 162.493c-.013.029-.021.062-.033.095-.05.136-.112.264-.165.401.763 3.112 1.853 6.662 3.236 10.415.021 0 .05-.004.07-.009l.037.306c3.6 9.693 9.127 20.611 15.939 28.442a4.48 4.48 0 0 0 .231-.016c.054 0 .103-.004.157-.009-8.194-9.337-13.561-21.87-16.034-28.529-1.436-3.863-2.625-7.698-3.438-11.096Z"/><path fill="#004228" d="M207.129 174.002c-.074.009-.161.021-.244.029 2.494 6.667 7.757 18.865 15.753 28.133l.392-.025c-6.811-7.831-12.339-18.75-15.938-28.442l.037.305ZM206.666 173.437c.112-.013.215-.029.314-.042-1.383-3.748-2.473-7.298-3.236-10.415l-.199.483c.781 3.101 1.85 6.519 3.121 9.97v.004ZM223.046 202.635l.227-.203-.379.025.152.178Z"/><path fill="#004228" d="M223.03 202.139c.083.095.165.198.248.293l.231-.206c-.033-.037-.062-.074-.095-.112-.05 0-.103.005-.157.009a4.48 4.48 0 0 0-.231.016h.004Z"/><path fill="#004228" d="M223.277 202.432a18.987 18.987 0 0 1-.247-.293l-.392.025c.086.099.169.198.256.293l.379-.025h.004ZM203.318 162.547c.033.14.071.285.104.425l.198-.495-.302.07Z"/><path fill="#004228" d="m203.62 162.477.124.507c.054-.136.111-.264.165-.4.012-.029.021-.062.033-.095-.008-.029-.016-.058-.021-.087l-.301.071v.004Z"/><path fill="#004228" d="m203.426 162.972.124.495c.066-.161.136-.322.198-.483-.041-.169-.087-.342-.124-.507-.062.165-.132.33-.198.495ZM89.537 229.979l-11.435-18.436-11.435-18.436s1.763-1.259 4.846-1.511c3.084-.252 7.493.504 12.777 4.533 5.284 4.029 8.644 5.622 12.02 5.709 3.295.082 6.61-1.272 11.753-3.208l.277-.136.012.029.104-.037c19.876-7.728 39.666-13.243 56.373-17.09.045-.083.09-.161.136-.244.02-.041.041-.082.066-.12-20.327 4.673-39.399 10.448-56.679 17.165l-1.428.541c-4.574 1.729-7.604 2.881-10.605 2.798-3.298-.082-6.621-1.663-11.843-5.643-5.54-4.218-10.122-4.825-12.991-4.594-3.134.256-4.93 1.515-5.004 1.569l-.235.169 23.022 37.115c.285.463.578.917.867 1.371.1-.037.194-.079.293-.116a67.02 67.02 0 0 1-.895-1.416l.004-.012Z"/><path fill="#004228" d="M108.575 198.767c17.107-6.651 35.964-12.372 56.059-17.016.066-.12.136-.244.202-.368-16.706 3.852-36.496 9.367-56.372 17.09l-.104.038c.046.09.091.185.137.28l.078-.029v.005ZM90.73 231.279c-.31-.483-.624-.966-.925-1.461L67.1 193.206c.574-.334 2.135-1.115 4.446-1.304 2.762-.223 7.183.367 12.566 4.47 5.338 4.066 8.76 5.685 12.203 5.771 3.129.075 6.196-1.081 10.836-2.84l.768-.289-.124-.252.277-.136c-5.144 1.94-8.459 3.29-11.753 3.208-3.38-.083-6.737-1.68-12.021-5.709-5.284-4.029-9.693-4.785-12.776-4.533-3.084.252-4.847 1.511-4.847 1.511l11.435 18.436 11.435 18.436c.293.479.594.945.896 1.416a.238.238 0 0 1 .053-.021c.079-.033.161-.062.24-.095l-.004.004ZM90.602 231.659c-.058-.087-.112-.177-.17-.264-.099.037-.194.078-.293.115.058.087.112.178.17.265.099-.038.194-.079.293-.116Z"/><path fill="#004228" d="M90.602 231.659c-.1.037-.194.078-.293.116.012.016.02.033.033.049l.26-.169v.004ZM90.861 231.49c-.045-.07-.09-.145-.136-.215-.078.033-.16.062-.24.095a.297.297 0 0 1-.053.021c.058.086.112.177.17.264l.26-.169v.004ZM164.837 181.383c.136-.033.272-.066.409-.095v-.305l-.071.008c-.045.012-.09.021-.136.033a.992.992 0 0 1-.066.12l-.136.243v-.004Z"/><path fill="#004228" d="m165.229 181.61-.087-.029.103-.289v-.004c-.066.124-.136.244-.202.368.062-.013.124-.029.186-.046ZM165.039 181.656c.066-.124.136-.244.202-.368-.132.029-.272.062-.408.095-.066.124-.137.244-.203.368.137-.033.273-.062.409-.095ZM196.107 175.27v.004h.004l-.004-.004ZM196.359 175.451c-.025.037-.05.07-.075.108 5.086-.81 8.744-1.293 10.601-1.528-.029-.074-.058-.157-.086-.231l-.025-.07a341.66 341.66 0 0 0-10.242 1.469l-.173.244v.008Z"/><path fill="#004228" d="m196.784 174.853-.174.247-.074.104a337.318 337.318 0 0 1 10.242-1.47c-.037-.099-.07-.198-.108-.297a337.65 337.65 0 0 0-9.882 1.416h-.004ZM196.358 174.919l-.297.045.045.297v.009l.248-.351h.004ZM196.363 175.451l.173-.243c-.14.02-.281.045-.425.066l.252.177Z"/><path fill="#004228" d="M196.784 174.853c-.141.02-.281.045-.426.066l-.247.351c.144-.025.285-.046.425-.066l.074-.104.174-.247ZM196.107 175.274v.309h.049c.041-.012.083-.016.124-.024.025-.038.05-.071.074-.108l-.251-.177h.004ZM207.054 173.387a.417.417 0 0 0-.07.008c.037.1.07.199.107.298l-.037-.306ZM206.778 173.734l.025.07c.029.074.057.153.086.231.083-.012.165-.02.244-.029l-.037-.305c-.099.012-.207.025-.314.041l-.004-.008Z"/><path fill="#004228" d="M206.778 173.734c.107-.012.214-.029.313-.041-.037-.099-.07-.198-.107-.298-.099.013-.202.025-.314.042.038.099.071.198.108.297ZM116.385 222.094c.1-.033.199-.062.298-.095l-.136-.524c-1.623-6.192-4.327-15.117-8.054-22.68l-.289.112c3.669 7.447 6.357 16.211 8.041 22.651.046.181.091.359.14.536Z"/><path fill="#004228" d="m116.092 222.189.277-.091c.004 0 .012 0 .016-.004-.045-.177-.095-.359-.14-.536-1.684-6.44-4.372-15.204-8.042-22.651l-.288.111c3.715 7.53 6.419 16.438 8.033 22.618l.144.557v-.004ZM116.765 222.317v-.016c-.103.033-.202.062-.301.095l.301-.075v-.004Z"/><path fill="#004228" d="M116.386 222.094c.025.099.053.198.078.302.099-.033.198-.062.297-.095l-.078-.302c-.099.033-.198.062-.297.095Z"/><path fill="#004228" d="M116.385 222.094s-.012 0-.016.004l-.277.091.07.281.302-.074c-.025-.099-.05-.203-.079-.302ZM108.348 198.486l-.276.136.289-.111-.013-.029v.004ZM108.497 198.795c-.045-.09-.091-.185-.136-.28l-.289.111.136.281.289-.112ZM107.914 199.014l.289-.111-.136-.281-.276.136.123.252v.004ZM187.764 189.033l-22.077-7.918-.148.277 22.122 7.93c.033-.095.07-.194.103-.294v.005ZM165.385 181.668l22.181 7.951c.033-.095.057-.194.09-.289v-.004l-22.122-7.93-.025.045c-.041.078-.086.153-.128.231l.004-.004ZM165.352 180.999l-.099.273c.046-.087.091-.174.141-.26l-.042-.017v.004Z"/><path fill="#004228" d="m165.539 181.396.148-.277-.293-.107a9.537 9.537 0 0 1-.14.26l-.008.016.293.104v.004Z"/><path fill="#004228" d="m165.514 181.437.024-.045-.293-.104v.009l.066.293c-.029.008-.057.012-.086.02l.161.058c.041-.078.086-.153.128-.231ZM187.958 189.412l.099-.276-.293-.103c-.033.095-.074.194-.103.293l.293.103s0-.013.004-.017ZM187.949 189.429l-.293-.103v.004c-.033.099-.062.194-.091.289l.281.099.103-.289Z"/><path fill="#004228" d="m165.245 181.297-.103.284.087.029c.029-.008.058-.012.086-.02l-.066-.293h-.004ZM300.477 197.644c-.483-.789-.995-1.635-1.532-2.514l-.268.157c.536.883 1.053 1.729 1.535 2.518 1.932 3.166 4.859 6.196 8.265 7.67.47.066.945.128 1.412.194h.028c-3.471-1.028-7.001-4.025-9.44-8.029v.004Z"/><path fill="#004228" d="M300.213 197.805c-.483-.789-.999-1.639-1.536-2.518h-.004l-.074.041h-.083v-.31l-.264.161c.599.983 1.164 1.912 1.697 2.783 1.993 3.269 4.706 5.89 7.542 7.372l.986.137c-3.401-1.47-6.332-4.5-8.264-7.67v.004ZM309.757 206.271l.086-.297c-.483-.07-.97-.132-1.453-.198.454.198.908.363 1.367.495Z"/><path fill="#004228" d="M309.918 205.673h-.029c-.471-.066-.941-.128-1.412-.194.45.194.904.363 1.37.499l.087-.297s-.012 0-.016-.004v-.004Z"/><path fill="#004228" d="M307.49 205.338c.302.157.603.306.904.438l1.453.198c-.462-.136-.92-.305-1.37-.499l-.987-.137ZM298.516 195.018l-.157-.264c.087-.05.174-.103.26-.153-3.319-5.436-7.546-12.367-11.587-18.968a1.335 1.335 0 0 1-.017.115c-.016.12-.037.248-.054.368 4.046 6.609 8.265 13.515 11.551 18.902h.004Z"/><path fill="#004228" d="M286.895 176.599c3.984 6.51 8.12 13.284 11.352 18.584l.265-.161c-3.286-5.387-7.505-12.297-11.551-18.902-.02.157-.045.322-.07.483l.004-.004ZM286.714 175.707c.082.136.169.273.252.409.016-.12.037-.248.053-.368.004-.037.009-.074.017-.115-.017-.029-.037-.058-.054-.091l-.264.161-.004.004Z"/><path fill="#004228" d="M286.714 175.707c-.021.157-.045.318-.066.479.087.136.169.277.256.417.025-.161.045-.322.07-.483-.082-.136-.169-.273-.252-.409l-.008-.004ZM286.449 175.868c.066.103.128.211.194.314.021-.157.046-.318.066-.475l-.26.161ZM308.609 192.331l.165.26 3.835-2.233a1635.362 1635.362 0 0 0 13.375-7.906 13.724 13.724 0 0 1-.161-.251s0-.009-.004-.009a1550.11 1550.11 0 0 1-13.363 7.897l-3.847 2.242Z"/><path fill="#004228" d="m308.444 192.071.165.26 3.848-2.242c4.301-2.505 9.804-5.771 13.362-7.897a11.412 11.412 0 0 0-.169-.26 1484.99 1484.99 0 0 1-13.35 7.889l-3.86 2.246.004.004ZM326.087 182.036l-.161-.269s-.004 0-.008.004c.054.087.111.174.169.26v.005Z"/><path fill="#004228" d="M325.819 182.192s0 .009.004.009l.161.251c.091-.053.177-.107.256-.152l-.157-.265c-.087.05-.177.108-.264.157Z"/><path fill="#004228" d="M325.819 182.192c.087-.053.182-.107.264-.157a8.789 8.789 0 0 0-.169-.26 5.14 5.14 0 0 1-.264.157c.054.087.111.174.169.26ZM308.341 192.488l.169.26.264-.157-.165-.26-.268.157Z"/><path fill="#004228" d="m308.341 192.488.268-.157-.165-.26-.256.148.153.269ZM308.498 192.756l.012-.008-.169-.26.157.268ZM298.784 194.866c.054.09.108.173.161.264a1301.8 1301.8 0 0 0 7.781-4.599l-.165-.26c-2.452 1.461-5.218 3.1-7.773 4.599l-.004-.004Z"/><path fill="#004228" d="m298.516 195.022.264-.161v.005c2.555-1.499 5.321-3.138 7.773-4.599l-.165-.26c-2.01 1.197-4.887 2.906-7.773 4.594.054.087.107.174.157.26l-.264.161h.008ZM306.739 189.8l-.074.046s-.005 0-.009.004l.165.26v-.31h-.086.004ZM306.558 190.267l.165.26c.086-.05.173-.103.256-.153l-.157-.264c-.087.054-.178.107-.264.157Z"/><path fill="#004228" d="M306.558 190.267c.086-.054.177-.107.264-.157l-.165-.26a6.54 6.54 0 0 0-.264.157l.165.26ZM298.516 195.022c.054.091.107.174.161.265l.268-.157c-.053-.091-.107-.174-.161-.264-.086.053-.177.103-.268.156Z"/><path fill="#004228" d="M298.516 195.022c.087-.049.178-.103.268-.156v-.005l-.264.161h-.004ZM298.516 195.022v.31h.087l.074-.041h.004c-.053-.091-.107-.174-.161-.265l-.004-.004ZM298.516 195.018l.264-.157c-.049-.086-.107-.173-.157-.26-.086.05-.173.104-.26.153l.157.264h-.004ZM283.733 107.846l-.033-.008.884 6.481c.066.037.132.074.194.111.049.029.099.062.148.095l-.941-6.894a4.018 4.018 0 0 1-.128.112l-.124.107v-.004Z"/><path fill="#004228" d="m283.374 107.743.871 6.39c.12.062.231.124.339.182l-.884-6.482-.124-.033c-.07-.016-.132-.041-.198-.057h-.004ZM284.584 114.315l.049.355.306-.042-.017-.107c-.049-.029-.099-.066-.148-.095a8.382 8.382 0 0 0-.194-.111h.004ZM284.588 114.678c-.095-.058-.194-.108-.289-.161l.025.198.264-.037Z"/><path fill="#004228" d="M284.299 114.517c.095.053.194.103.289.161h.041l-.049-.359c-.108-.058-.219-.12-.339-.182l.054.38h.004ZM264.451 106.735l.008-.136c-9.28-.739-14.766-6.894-12.281-18.56l-2.72-1.184s4.029-2.18 7.051-9.734a21.62 21.62 0 0 1 3.29-5.623 11.704 11.704 0 0 1-1.949-6.48c0-6.503 5.272-11.774 11.773-11.774 2.973 0 5.685 1.102 7.761 2.918 3.876.33 8.157 1.602 12.57 4.005 19.225 10.489 11.864 27.947 3.096 37.598-6.931 7.629-9.391 9.738-9.391 9.738l.305-.041.021.165c.582-.52 3.195-2.943 9.292-9.651 2.527-2.779 10.626-12.665 8.838-23.266-1.015-6.035-5.061-11.018-12.016-14.812-4.24-2.311-8.479-3.67-12.591-4.033a12.078 12.078 0 0 0-7.885-2.927c-6.662 0-12.082 5.42-12.082 12.083 0 2.304.648 4.533 1.874 6.465a22.062 22.062 0 0 0-3.195 5.527c-2.935 7.34-6.87 9.557-6.911 9.577l-.557.302 3.071 1.337c-1.164 5.685-.508 10.238 1.949 13.532 2.183 2.927 5.754 4.69 10.345 5.119l.024-.182.306.041.004-.004Z"/><path fill="#004228" d="M265.4 66.718s-.441 7.43 5.54 14.353c0 0 6.985-5.92 10.576-1.094 3.526 4.743-1.89 11.414-9.445 13.557 0 0-.38 10.782 11.579 13.973 0 0 2.461-2.109 9.392-9.738 8.768-9.651 16.128-27.109-3.096-37.598-4.417-2.407-8.694-3.678-12.57-4.005a11.73 11.73 0 0 0-7.761-2.918c-6.502 0-11.773 5.272-11.773 11.773 0 2.394.714 4.624 1.948 6.481 2.754-3.397 5.606-4.784 5.606-4.784h.004Zm-5.573 4.256a11.38 11.38 0 0 1-1.671-5.957c0-6.32 5.143-11.463 11.463-11.463 2.778 0 5.462 1.007 7.555 2.84l.078.066.103.008c4.058.342 8.248 1.68 12.451 3.967 6.782 3.699 10.716 8.537 11.703 14.374 1.738 10.324-6.209 20.021-8.686 22.746-6.002 6.604-8.669 9.085-9.243 9.601-10.621-2.918-11.178-11.83-11.191-13.4 4.884-1.448 8.954-4.8 10.176-8.392.689-2.026.413-3.954-.793-5.58-.862-1.16-1.989-1.83-3.339-1.986-3.129-.36-6.514 2.105-7.443 2.831-5.623-6.675-5.276-13.829-5.272-13.903l.029-.528-.475.23c-.115.059-2.761 1.367-5.436 4.538l-.009.008Z"/><path fill="#004228" d="M264.736 106.925c.805.054 1.647.075 2.522.046l-.016-.62a25.17 25.17 0 0 1-2.758-.061c-4.561-.364-8.091-2.06-10.213-4.905-2.382-3.195-2.984-7.661-1.787-13.284l.054-.247-2.424-1.053c1.193-.846 4.252-3.484 6.684-9.565a21.508 21.508 0 0 1 3.24-5.544c2.039-2.514 4.153-3.921 5.053-4.45.037 1.862.553 8.165 5.618 14.027l.203.231.235-.198c.037-.033 3.897-3.265 7.212-2.885 1.176.136 2.154.722 2.914 1.738 1.082 1.453 1.325 3.187.702 5.011-1.177 3.464-5.189 6.7-9.982 8.062l-.219.062-.008.227c0 .112-.239 10.94 11.612 14.226l-.029-.199.306-.041c-11.963-3.191-11.579-13.973-11.579-13.973 7.554-2.143 12.966-8.81 9.445-13.557-3.592-4.83-10.576 1.094-10.576 1.094-5.982-6.923-5.54-14.353-5.54-14.353s-2.853 1.387-5.606 4.784a21.757 21.757 0 0 0-3.29 5.623c-3.022 7.554-7.051 9.734-7.051 9.734l2.72 1.184c-2.485 11.666 3.001 17.821 12.281 18.56l-.008.136.306.042-.021.148Z"/><path fill="#004228" d="m264.451 106.735-.306-.041-.024.182c.103.008.202.02.309.029l.025-.174-.004.004Z"/><path fill="#004228" d="m264.736 106.925.02-.148-.305-.042-.025.174h.009c.099.008.202.008.301.016ZM283.655 107.503l.045.335.033.008.124-.108s.054-.045.128-.111l-.021-.165-.305.041h-.004ZM283.374 107.743c.07.02.132.041.198.057l.124.033-.045-.334-.306.041.029.199v.004ZM250.874 169.556l.091.153c15.691-.239 28.162 2.522 35.596 4.756l.037-.31c-7.81-2.341-20.252-5.016-35.819-4.751l.091.152-.26.157.264-.157Z"/><path fill="#004228" d="M286.561 174.465c-7.431-2.234-19.906-4.995-35.597-4.756.062.103.12.206.182.306 15.389-.219 27.67 2.439 35.373 4.759.013-.087.025-.173.033-.256 0-.016.005-.037.009-.053ZM286.9 174.246c-.1-.029-.203-.062-.302-.091l-.037.31c.099.028.202.061.301.09l.038-.309Z"/><path fill="#004228" d="m286.863 174.551.086-.293s-.033-.008-.049-.016l-.037.309c-.013.099-.029.203-.042.306h.042v-.31.004Z"/><path fill="#004228" d="M286.821 174.861c.013-.099.029-.202.042-.306-.099-.028-.203-.062-.302-.09a.243.243 0 0 1-.008.053c-.008.083-.025.174-.033.256l.252.075.049.008v.004ZM250.779 169.404h-.169v.305l.264-.157-.091-.153-.004.005ZM250.965 169.709l-.091-.153-.264.157h.355v-.004Z"/><path fill="#004228" d="M250.61 169.713v.31c.181 0 .359-.004.536-.008-.061-.104-.119-.207-.181-.306-.12 0-.235 0-.355.004ZM446.301 240.927v-35.163c-.103 0-.207.008-.31.008-.103 0-.206-.004-.309-.008v43.08h.008a58.63 58.63 0 0 1 .611-7.922v.005ZM445.681 248.844v.194h.005v-.19h-.009l.004-.004Z"/><path fill="#004228" d="M446.301 205.764v-.302h-.619v.302c.103 0 .206.008.309.008.103 0 .207-.004.31-.008ZM445.995 249.005a57.99 57.99 0 0 1 .306-5.577v-2.497c-.384 2.6-.59 5.246-.611 7.921.103.054.206.104.31.157l-.005-.004Z"/><path fill="#004228" d="M446.065 249.038h.236v-5.614a57.99 57.99 0 0 0-.306 5.577c.025.012.045.025.07.033v.004ZM445.69 248.848v.19h.31v-.033c-.104-.054-.207-.103-.31-.157Z"/><path fill="#004228" d="M445.995 249.005v.033h.07c-.025-.012-.045-.025-.07-.033ZM445.681 249.191v-.153h-.004v.153h.004ZM445.991 249.348h.31v-.26l-.31.26ZM446.065 249.038a.415.415 0 0 0 .067.033l-.141.277.31-.26v-.05h-.236Z"/><path fill="#004228" d="M445.991 249.348c0-.103 0-.207.004-.31h-.309v.153c.103.054.206.103.305.157Z"/><path fill="#004228" d="M446.065 249.038h-.07c0 .103-.004.207-.004.31l.141-.277a.519.519 0 0 0-.067-.033Z"/><path fill="#004228" d="M445.682 249.348h.309c-.103-.054-.206-.103-.305-.157v.157h-.004Z"/></svg>