<svg xmlns:xlink="http://www.w3.org/1999/xlink" width="197" height="197" viewBox="0 0 197 197" fill="none" xmlns="http://www.w3.org/2000/svg" class=""><g clip-path="url(#clip0_3650_218201)" fill="none"><path d="M82.7283 133.76C79.7119 136.961 76.3651 140.376 72.6952 144.019C72.8871 143.842 73.0722 143.673 73.2436 143.517C76.4592 140.618 79.5855 137.332 82.7283 133.76Z" fill="#006A43" stroke="#004228" stroke-width="0.347492px" stroke-miterlimit="10"></path><path d="M107.233 102.504C111.364 96.2961 117.836 90.9357 125.201 90.2604C123.259 84.6183 120.009 79.3437 115.654 74.9895C108.2 67.527 98.533 63.5042 88.443 63.6581C78.353 63.8121 69.0222 67.7078 61.8922 74.6351C54.7006 81.6191 50.8227 90.7627 50.9694 100.38L50.9893 101.687L73.5569 107.077L73.5238 104.908C73.3866 95.9164 80.7201 88.2075 89.5315 88.073C95.5493 87.9812 102.642 94.5803 102.774 103.225C102.822 106.331 101.316 110.156 98.3358 114.81L102.463 109.673L107.233 102.504Z" fill="#006A43" stroke="#004228" stroke-width="0.347492px" stroke-miterlimit="10"></path><path d="M65.7921 150.776C63.2714 153.212 60.634 155.741 57.8659 158.362C58.558 157.712 59.2502 157.069 59.963 156.404C61.8616 154.652 63.8612 152.689 65.792 150.769L65.7921 150.776Z" fill="#006A43" stroke="#004228" stroke-width="0.347492px" stroke-miterlimit="10"></path><path d="M75.8242 158.261L47.5391 168.09L47.532 168.076L47.5183 168.09L47.6138 174.351L129.835 173.097L129.463 148.741L102.028 149.159L98.8755 150.25L75.8242 158.261Z" fill="#006A43" stroke="#004228" stroke-width="0.347492px" stroke-miterlimit="10"></path><path d="M65.7929 150.776C68.2038 148.439 70.505 146.193 72.6891 144.019C70.8043 145.765 68.3673 148.221 65.7929 150.776Z" fill="#F9F4E2"></path><path d="M93.5261 120.799C89.8079 125.38 86.2532 129.744 82.7209 133.753C89.7318 126.313 94.9741 120.04 98.3349 114.81L93.5261 120.799Z" fill="#F9F4E2"></path><path d="M57.8661 158.361C54.6041 161.414 51.4733 164.402 47.5183 168.042L47.5327 168.076L48.0673 167.581C51.487 164.388 54.7555 161.314 57.873 158.361L57.8661 158.361Z" fill="#F9F4E2"></path><path d="M196.929 23.2181C188.713 29.5365 182.411 37.9039 178.448 47.3547L172.861 49.2958C156.931 54.8283 145.467 67.8619 142.11 83.3574L140.59 91.7005C136.959 90.616 131.751 90.056 126.332 90.1874C125.95 90.1932 125.575 90.2267 125.193 90.2603C126.473 93.9803 127.186 97.8618 127.245 101.746C127.403 112.135 121.614 122.656 116.73 129.654C111.82 136.693 105.426 143.623 98.7486 149.202L102.022 149.152L108.998 146.731C137.228 136.924 159.915 118.256 175.167 94.7526C188.77 73.7973 196.468 48.9981 196.929 23.2181Z" fill="#F9F4E2" stroke="#004228" stroke-width="0.347492px" stroke-linejoin="round"></path><path d="M116.738 129.661C121.622 122.664 127.411 112.135 127.253 101.754C127.194 97.8691 126.481 93.9876 125.201 90.2677C117.837 90.9431 111.357 96.3036 107.233 102.511L102.463 109.68L98.3361 114.817C94.9754 120.054 89.733 126.327 82.722 133.76C79.5791 137.325 76.4529 140.618 73.2373 143.517C73.0591 143.68 72.874 143.849 72.6889 144.019C70.5048 146.193 68.2037 148.438 65.7927 150.776C63.8618 152.689 61.8623 154.659 59.9637 156.411C59.2509 157.069 58.5588 157.719 57.8667 158.369C54.7492 161.322 51.4806 164.395 48.061 167.589L47.5264 168.084L47.5266 168.098L75.8186 158.269L98.8698 150.257L102.016 149.16L98.7427 149.21C105.421 143.631 111.814 136.701 116.725 129.661L116.738 129.661Z" fill="#009C6A" stroke="#004228" stroke-width="0.347492px" stroke-miterlimit="10"></path><path d="M143.229 3.99948C127.715 19.5345 121.029 43.1992 127.683 66.1669C136.984 47.0567 142.381 25.9 143.222 3.99959L143.229 3.99948Z" fill="#E3FFDB" stroke="#004228" stroke-width="0.347492px" stroke-miterlimit="10"></path><path d="M47.5185 168.091C47.5185 168.091 78.0962 139.96 89.4406 126.359C89.4406 126.359 113.232 98.0611 127.675 66.1666" stroke="#004228" stroke-width="0.347492px" stroke-miterlimit="10" fill="none"></path><path d="M47.6292 174.352C47.8111 186.269 38.313 196.062 26.3954 196.243C26.2136 184.326 35.7117 174.533 47.6292 174.352Z" fill="#E3FFDB" stroke="#004228" stroke-width="0.347492px" stroke-miterlimit="10"></path></g><defs><clipPath id="clip0_3650_218201"><rect width="197" height="197" fill="white"></rect></clipPath></defs></svg>