<svg xmlns:xlink="http://www.w3.org/1999/xlink" width="124" height="119" viewBox="0 0 124 119" fill="none" xmlns="http://www.w3.org/2000/svg"><g id="Group 7" fill="none"><path id="Vector" d="M78.6543 84.5542L65.467 97.7415V97.8429H65.2109C65.6697 96.4559 65.9204 94.9728 65.9204 93.4311C65.9204 92.1721 65.7551 90.9505 65.4403 89.7822L69.2226 86.0053C71.9006 83.3219 75.1174 80.1105 78.5849 76.6429C87.5952 67.6327 98.2912 56.9314 105.626 49.6016V57.5769L78.6543 84.5542Z" fill="#FF6C3D"></path><g id="Group" fill="none"><path id="Vector_2" d="M121.459 71.0947V81.7907C121.459 90.6569 114.284 97.8374 105.418 97.8374V87.136C105.418 78.2698 112.593 71.0947 121.459 71.0947Z" fill="#FAF5E3"></path><path id="Vector_3" d="M78.4465 44.4157L98.1047 24.7948L91.319 18.0091L121.433 17.9824V48.1232L114.162 40.8521C114.162 40.8521 110.641 44.373 105.419 49.601C98.0833 56.9308 87.3874 67.6321 78.3771 76.6423C74.9096 80.1099 71.6928 83.3213 69.0148 86.0047L60.9168 94.092C60.7461 93.4465 60.1753 91.4567 59.6365 91.8354C54.0191 95.7724 56.6811 95.7404 50.8823 95.7404C43.1203 95.7404 41.5733 91.8354 37.6043 93.4305V93.5852C37.6203 95.0682 37.8657 96.4873 38.3085 97.8263H20.6774L0.400391 118.103V85.9833C5.59635 80.7874 10.9737 75.41 15.4548 70.9289H51.9759L78.4465 44.4157Z" fill="#FAF5E3"></path><path id="Vector_4" d="M109.99 111.776V118.599H100.895V106.65L105.44 102.104L109.985 106.65V111.776H109.99ZM106.432 106.623C106.432 106.079 105.989 105.636 105.445 105.636C104.901 105.636 104.458 106.079 104.458 106.623C104.458 107.167 104.901 107.61 105.445 107.61C105.989 107.61 106.432 107.167 106.432 106.623Z" fill="#0B996E"></path><path id="Vector_5" d="M105.634 109.066C106.647 109.066 107.467 108.245 107.467 107.233C107.467 106.22 106.647 105.399 105.634 105.399C104.622 105.399 103.801 106.22 103.801 107.233C103.801 108.245 104.622 109.066 105.634 109.066Z" fill="#FFE7E0"></path><path id="Vector_6" d="M105.419 97.8315V97.8422H78.4473V84.5535L105.419 57.5762V82.8464V87.1355V93.5424V93.5691V95.7403V97.8315Z" fill="#D7FEC8"></path><path id="Vector_7" d="M98.1055 24.8003L78.4473 44.4159V44.3732V32.7116V32.5623V18.02L91.3198 18.0146L98.1055 24.8003Z" fill="#D7FEC8"></path><path id="Vector_8" d="M78.447 84.5537V97.8423H65.2598V97.741L78.447 84.5537Z" fill="#FFE7E0"></path><path id="Vector_9" d="M78.4468 44.3735V44.4162L51.8535 70.9294V44.3735V32.7119H78.4468V44.3735Z" fill="#D7FEC8"></path><path id="Vector_10" d="M78.4468 44.416L51.9762 70.9293H51.8535L78.4468 44.416Z" fill="#FFE7E0"></path><path id="Vector_11" d="M78.4472 84.5533L65.26 97.7405V97.8419H65.0039C65.4627 96.4549 65.7134 94.9719 65.7134 93.4301C65.7134 92.1712 65.548 90.9495 65.2333 89.7812L69.0156 86.0043C71.6936 83.321 74.9104 80.1095 78.3779 76.642C87.3881 67.6317 98.0841 56.9304 105.419 49.6006V57.5759L78.4472 84.5533Z" fill="#0B996E"></path><path id="Vector_12" d="M51.8533 44.373V70.929H24.8652V59.5021V51.4995C25.334 49.6661 24.8652 48.4434 24.8652 44.373H43.1364H51.8533Z" fill="#D7FEC8"></path></g><g id="Group_2" fill="none"><path id="Vector_13" d="M25.041 44.373L25.0784 65.4823V70.929" stroke="#2C2C2C" stroke-width="0.727453px" stroke-miterlimit="10" fill="none"></path><path id="Vector_14" d="M105.627 95.741V93.5698V93.5432V87.1362V82.8472V57.5769V49.6016" stroke="#2C2C2C" stroke-width="0.727453px" stroke-miterlimit="10" fill="none"></path><path id="Vector_15" d="M105.627 87.136C105.627 78.2698 112.802 71.0947 121.668 71.0947V81.7907C121.668 90.6569 114.493 97.8374 105.627 97.8374" stroke="#2C2C2C" stroke-width="0.727453px" stroke-miterlimit="10" fill="none"></path><path id="Vector_16" d="M110.167 118.328H105.627H100.9V111.761V106.639L105.44 102.1L110.034 106.5L110.167 111.761V118.328Z" stroke="#2C2C2C" stroke-width="0.727453px" stroke-miterlimit="10" fill="none"></path><path id="Vector_17" d="M105.634 102.466L105.627 97.8421V97.8314V95.7402" stroke="#2C2C2C" stroke-width="0.727453px" stroke-miterlimit="10" fill="none"></path><path id="Vector_18" d="M105.634 109.066C106.647 109.066 107.467 108.245 107.467 107.233C107.467 106.22 106.647 105.399 105.634 105.399C104.622 105.399 103.801 106.22 103.801 107.233C103.801 108.245 104.622 109.066 105.634 109.066Z" stroke="#2C2C2C" stroke-width="0.727453px" stroke-miterlimit="10" fill="none"></path><path id="Vector_19" d="M78.6543 32.7119H52.0664V44.3735V70.9294" stroke="#2C2C2C" stroke-width="0.727453px" stroke-miterlimit="10" fill="none"></path><path id="Vector_20" d="M78.6546 44.4583V18.0198L91.5271 18.0091L121.641 17.9824V48.1232L114.37 40.8521C114.37 40.8521 110.849 44.373 105.627 49.6009C98.2915 56.9308 87.5955 67.6321 78.5852 76.6423C75.1177 80.1099 71.9009 83.3213 69.2229 86.0047L64.043 91.1793" stroke="#2C2C2C" stroke-width="0.727453px" stroke-miterlimit="10" fill="none"></path><path id="Vector_21" d="M78.6543 97.8421V84.5535V84.5215" stroke="#2C2C2C" stroke-width="0.727453px" stroke-miterlimit="10" fill="none"></path><path id="Vector_22" d="M105.626 97.8428H78.6543H65.467H65.2109" stroke="#2C2C2C" stroke-width="0.727453px" stroke-miterlimit="10" fill="none"></path><g id="Vector_23" fill="none"><path d="M78.6863 112.884V117.594H69.34H34.3927H25.041V112.884" fill="#0B996E"></path><path d="M78.6863 112.884V117.594H69.34H34.3927H25.041V112.884" stroke="#2C2C2C" stroke-width="0.727453px" stroke-miterlimit="10" fill="none"></path></g><path id="Vector_24" d="M44.6781 22.5225V31.5595C44.6781 35.6298 41.376 38.964 37.3003 38.964H21.2963L12.3554 47.9048V38.964H7.85297C5.81513 38.964 3.97467 38.1051 2.64101 36.7714C1.30201 35.4377 0.480469 33.5973 0.480469 31.5595V8.1723C0.480469 6.13446 1.30734 4.29401 2.64101 2.95501C3.96934 1.62668 5.81513 0.799805 7.84763 0.799805H37.3003C41.376 0.799805 44.6781 4.10196 44.6781 8.1723V22.5225Z" fill="#FAF5E3" stroke="#2C2C2C" stroke-width="0.727453px" stroke-miterlimit="10"></path><path id="Vector_25" d="M30.0994 97.8262H25.0795H20.8864L0.609375 118.103" stroke="#2C2C2C" stroke-width="0.727453px" stroke-miterlimit="10" fill="none"></path><path id="Vector_26" d="M52.0659 44.3731L24.7792 44.373" stroke="#2C2C2C" stroke-width="0.727453px" stroke-miterlimit="10" fill="none"></path><path id="Vector_27" d="M105.626 57.5762L78.6541 84.5535L65.4668 97.7408" stroke="#2C2C2C" stroke-width="0.727453px" stroke-miterlimit="10" fill="none"></path><g id="Vector_28" fill="none"><path d="M78.6863 113.617C78.6863 113.121 78.6757 112.625 78.6543 112.129C77.9395 97.9547 66.2192 86.6826 51.8637 86.6826C37.5081 86.6826 25.7932 97.9547 25.0784 112.129C25.0517 112.625 25.041 113.127 25.041 113.617" fill="#0B996E"></path><path d="M78.6863 113.617C78.6863 113.121 78.6757 112.625 78.6543 112.129C77.9395 97.9547 66.2192 86.6826 51.8637 86.6826C37.5081 86.6826 25.7932 97.9547 25.0784 112.129C25.0517 112.625 25.041 113.127 25.041 113.617" stroke="#2C2C2C" stroke-width="0.727453px" stroke-miterlimit="10" fill="none"></path></g><path id="Vector_29" d="M0.609375 118.104V118.323V118.104ZM0.609375 118.104V91.1799V85.984L15.6638 70.9296H52.0888L98.319 24.8008L91.528 18.0151V18.0098" stroke="#2C2C2C" stroke-width="0.727453px" stroke-miterlimit="10" fill="none"></path><path id="Vector_30" d="M51.864 86.6767C58.0842 86.6767 63.3655 82.6383 65.2113 77.0369C65.6701 75.6499 65.9208 74.1669 65.9208 72.6252C65.9208 71.3662 65.7554 70.1446 65.4407 68.9763C65.27 68.3308 65.0513 67.7013 64.7899 67.0931C62.64 62.0839 57.6628 58.5684 51.864 58.5684C44.1021 58.5684 37.8125 64.8633 37.8125 72.6199V72.7746C37.8285 74.2576 38.0739 75.6766 38.5167 77.0156C40.3625 82.6277 45.6384 86.6767 51.864 86.6767Z" fill="#0B996E" stroke="#2C2C2C" stroke-width="0.727453px" stroke-miterlimit="10"></path></g><path id="Vector_31" d="M119.784 8.09775C121.873 8.09775 123.566 6.40437 123.566 4.31548C123.566 2.22658 121.873 0.533203 119.784 0.533203C117.695 0.533203 116.002 2.22658 116.002 4.31548C116.002 6.40437 117.695 8.09775 119.784 8.09775Z" fill="#FAF5E3" stroke="#2C2C2C" stroke-width="0.727453px" stroke-miterlimit="10"></path></g></svg>