<svg xmlns:xlink="http://www.w3.org/1999/xlink" xmlns="http://www.w3.org/2000/svg" width="121" height="128" viewBox="0 0 121 128" fill="none"><path d="M60.1969 58.5354V75.4257C60.1917 79.4107 58.6271 83.023 56.0807 85.6954C49.397 79.332 40.3559 75.4257 30.4012 75.4257C38.6285 75.4257 45.3017 68.7578 45.3017 60.5252C45.3017 52.2927 38.6338 45.6247 30.4012 45.6247C22.1687 45.6247 15.5007 52.2927 15.5007 60.5252C15.5007 68.7578 22.1687 75.4257 30.4012 75.4257C20.4465 75.4257 11.4002 79.332 4.72174 85.6954C2.17007 83.0177 0.605469 79.395 0.605469 75.4047V45.651C0.605469 37.4132 7.28391 30.7295 15.527 30.7295H45.2807C49.7382 30.7295 53.7338 32.6826 56.4692 35.7803C54.1538 38.4055 52.7467 41.855 52.7467 45.63C52.7467 51.1429 55.7446 55.9574 60.1969 58.5354Z" fill="#D7FEC8"></path><path d="M112.338 75.4257V127.572L86.2649 101.499L112.338 75.4257Z" fill="#0B996E"></path><path d="M112.338 75.4257L86.2649 101.499L71.3644 116.399L45.2912 90.3262C49.5335 90.321 53.361 88.5464 56.0754 85.6954C58.6218 83.023 60.1864 79.4107 60.1917 75.4257H112.338Z" fill="#FAF5E3"></path><path d="M112.338 127.572H30.396L56.4692 101.499L71.3697 116.399L86.2649 101.499L112.338 127.572Z" fill="#D7FEC8"></path><path d="M82.5424 30.7295C90.7697 30.7295 97.4429 37.3974 97.4429 45.63C97.4429 53.8625 90.775 60.5305 82.5424 60.5305L75.0922 67.9807V60.5305H67.6419C64.9275 60.5305 62.3863 59.8059 60.1917 58.5354C55.7394 55.9574 52.7414 51.1481 52.7414 45.63C52.7414 41.855 54.1433 38.4108 56.4639 35.7856C59.1889 32.6879 63.1896 30.7347 67.6419 30.7347H82.5424V30.7295ZM89.9927 45.441C89.9927 43.3828 88.3231 41.7185 86.2702 41.7185C84.2173 41.7185 82.5477 43.3881 82.5477 45.441C82.5477 47.4939 84.2173 49.1635 86.2702 49.1635C88.3231 49.1635 89.9927 47.4939 89.9927 45.441ZM78.8199 45.63C78.8199 43.5718 77.1503 41.9075 75.0974 41.9075C73.0445 41.9075 71.3749 43.5771 71.3749 45.63C71.3749 47.6829 73.0445 49.3525 75.0974 49.3525C77.1503 49.3525 78.8199 47.6829 78.8199 45.63ZM67.6472 45.63C67.6472 43.5718 65.9776 41.9075 63.9247 41.9075C61.8718 41.9075 60.2022 43.5771 60.2022 45.63C60.2022 47.6829 61.8718 49.3525 63.9247 49.3525C65.9776 49.3525 67.6472 47.6829 67.6472 45.63Z" fill="#D7FEC8"></path><path d="M86.2649 49.1635C88.3208 49.1635 89.9874 47.4969 89.9874 45.441C89.9874 43.3851 88.3208 41.7185 86.2649 41.7185C84.2091 41.7185 82.5424 43.3851 82.5424 45.441C82.5424 47.4969 84.2091 49.1635 86.2649 49.1635Z" fill="#FAF5E3"></path><path d="M75.0922 49.3525C77.1481 49.3525 78.8147 47.6859 78.8147 45.63C78.8147 43.5741 77.1481 41.9075 75.0922 41.9075C73.0363 41.9075 71.3697 43.5741 71.3697 45.63C71.3697 47.6859 73.0363 49.3525 75.0922 49.3525Z" fill="#FAF5E3"></path><path d="M63.9194 49.3525C65.9753 49.3525 67.6419 47.6859 67.6419 45.63C67.6419 43.5741 65.9753 41.9075 63.9194 41.9075C61.8636 41.9075 60.1969 43.5741 60.1969 45.63C60.1969 47.6859 61.8636 49.3525 63.9194 49.3525Z" fill="#FAF5E3"></path><mask id="mask0_5792_23701" maskUnits="userSpaceOnUse" x="0" y="30" width="61" height="56" style="mask-type: luminance;" fill="none"><path d="M60.1969 58.5353V75.4257C60.1917 79.4107 58.6271 83.023 56.0807 85.6954C49.397 79.332 40.3559 75.4257 30.4012 75.4257C38.6285 75.4257 45.3017 68.7578 45.3017 60.5252C45.3017 52.2927 38.6338 45.6247 30.4012 45.6247C22.1687 45.6247 15.5007 52.2927 15.5007 60.5252C15.5007 68.7578 22.1687 75.4257 30.4012 75.4257C20.4465 75.4257 11.4002 79.332 4.72174 85.6954C2.17007 83.0177 0.605469 79.395 0.605469 75.4047V45.651C0.605469 37.4132 7.28391 30.7295 15.527 30.7295H45.2807C49.7382 30.7295 53.7338 32.6826 56.4692 35.7803C54.1538 38.4055 52.7467 41.855 52.7467 45.63C52.7467 51.1429 55.7446 55.9574 60.1969 58.5353Z" fill="#FFFFFF"></path></mask><g mask="url(#mask0_5792_23701)" fill="none"><path d="M67.6001 66.2324C79.0452 66.2324 88.3232 56.9543 88.3232 45.5093C88.3232 34.0642 79.0452 24.7861 67.6001 24.7861C56.155 24.7861 46.877 34.0642 46.877 45.5093C46.877 56.9543 56.155 66.2324 67.6001 66.2324Z" fill="#0B996E"></path></g><path d="M56.4686 101.499L30.3953 127.572V90.326H45.2958L56.4686 101.499Z" fill="#0B996E"></path><path d="M56.0801 85.6952C53.3656 88.5409 49.5381 90.3208 45.2958 90.326H15.5211C11.2683 90.326 7.43557 88.5462 4.71588 85.6952C11.3996 79.3318 20.4407 75.4256 30.3953 75.4256C40.35 75.4256 49.3964 79.3318 56.0748 85.6952H56.0801Z" fill="#FAF5E3"></path><path d="M30.3953 75.4308C38.6247 75.4308 45.2958 68.7596 45.2958 60.5303C45.2958 52.301 38.6247 45.6298 30.3953 45.6298C22.166 45.6298 15.4949 52.301 15.4949 60.5303C15.4949 68.7596 22.166 75.4308 30.3953 75.4308Z" fill="#FAF5E3"></path><path d="M30.3953 0.933594C30.3953 9.16089 37.0633 15.8341 45.2958 15.8341C37.0685 15.8341 30.3953 22.502 30.3953 30.7346C30.3953 22.5073 23.7274 15.8341 15.4949 15.8341C23.7222 15.8341 30.3953 9.16614 30.3953 0.933594Z" fill="#0B996E"></path><path d="M0.599609 97.7763C17.07 97.7763 30.3953 111.102 30.3953 127.572C13.925 127.572 0.599609 114.247 0.599609 97.7763Z" fill="#0B996E"></path><path d="M30.3953 127.572H112.338M30.3953 127.572V90.326M30.3953 127.572L56.4686 101.499M30.3953 127.572C30.3953 111.102 17.07 97.7763 0.599609 97.7763C0.599609 114.247 13.925 127.572 30.3953 127.572ZM112.338 127.572V75.4256M112.338 127.572L86.2643 101.499M112.338 75.4256H60.1963M112.338 75.4256L86.2643 101.499M60.1963 75.4256V58.5352M60.1963 75.4256C60.1911 79.4106 58.6265 83.0228 56.0801 85.6952M60.1963 58.5352C62.3857 59.8005 64.9321 60.5303 67.6466 60.5303H75.0968V67.9806L82.5471 60.5303C90.7744 60.5303 97.4476 53.8624 97.4476 45.6298C97.4476 37.3973 90.7796 30.7293 82.5471 30.7293H67.6466C63.1943 30.7293 59.1935 32.6825 56.4686 35.7802C54.1532 38.4053 52.7461 41.8496 52.7461 45.6246C52.7461 51.1374 55.744 55.952 60.1963 58.5299V58.5352ZM56.0801 85.6952C53.3656 88.5409 49.5381 90.3208 45.2958 90.326M56.0801 85.6952C49.3964 79.3318 40.3553 75.4256 30.4006 75.4256C20.4459 75.4256 11.3996 79.3318 4.72113 85.6952M45.2958 90.326H15.5211C11.2683 90.326 7.43557 88.5462 4.71588 85.6952C2.16421 83.0176 0.599609 79.3948 0.599609 75.4046V45.6508C0.599609 37.413 7.27806 30.7293 15.5211 30.7293H45.2748C49.7324 30.7293 53.7279 32.6825 56.4633 35.7802M45.2958 90.326L56.4686 101.499M15.5001 15.8341C23.7274 15.8341 30.4006 9.16614 30.4006 0.933594M30.3953 0.933594C30.3953 9.16089 37.0633 15.8341 45.2958 15.8341M45.2958 15.8341C37.0685 15.8341 30.3953 22.502 30.3953 30.7346M45.2958 15.8341H82.5418C98.9964 15.8341 112.338 29.1752 112.338 45.6298V67.9753M30.3953 30.7293C30.3953 22.502 23.7274 15.8288 15.4949 15.8288M56.4686 101.499L71.3691 116.399L86.2643 101.499M112.338 67.9753L119.788 60.5303M112.338 67.9753L104.887 60.5303M60.1963 64.8724C52.4101 61.8902 46.8814 54.3454 46.8814 45.5091C46.8814 40.4372 48.7033 35.7907 51.7275 32.1889M45.2958 60.5303C45.2958 68.7596 38.6247 75.4308 30.3953 75.4308C22.166 75.4308 15.4949 68.7596 15.4949 60.5303C15.4949 52.301 22.166 45.6298 30.3953 45.6298C38.6247 45.6298 45.2958 52.301 45.2958 60.5303ZM67.6413 45.6298C67.6413 47.6857 65.9747 49.3523 63.9188 49.3523C61.863 49.3523 60.1963 47.6857 60.1963 45.6298C60.1963 43.5739 61.863 41.9073 63.9188 41.9073C65.9747 41.9073 67.6413 43.5739 67.6413 45.6298ZM78.8141 45.6298C78.8141 47.6857 77.1475 49.3523 75.0916 49.3523C73.0357 49.3523 71.3691 47.6857 71.3691 45.6298C71.3691 43.5739 73.0357 41.9073 75.0916 41.9073C77.1475 41.9073 78.8141 43.5739 78.8141 45.6298ZM89.9868 45.4408C89.9868 47.4967 88.3202 49.1633 86.2643 49.1633C84.2084 49.1633 82.5418 47.4967 82.5418 45.4408C82.5418 43.3849 84.2084 41.7183 86.2643 41.7183C88.3202 41.7183 89.9868 43.3849 89.9868 45.4408Z" stroke="#2C2C2C" stroke-width="0.734873px" stroke-miterlimit="10" fill="none"></path></svg>