<svg viewBox="0 0 500 239" xmlns:xlink="http://www.w3.org/1999/xlink" xmlns="http://www.w3.org/2000/svg" width="500" height="239" fill="none"><path d="M454.589 197.715c-2.409 20.101-17.952 36.265-37.733 39.636h75.465c-19.781-3.371-35.324-19.535-37.732-39.636Z" fill="#006A43"></path><path d="M499.193 124.041v-21.387l-10.696 10.695 10.696 10.692ZM498.735 102.196h-21.387l10.692 10.696 10.695-10.696ZM477.348 124.498h21.387l-10.695-10.691-10.692 10.691ZM476.891 102.654v21.387l10.691-10.692-10.691-10.695ZM454.589 15.418c-8.374 8.49-12.979 19.716-12.979 31.65 0 11.935 4.605 23.162 12.974 31.652 8.374-8.49 12.979-19.717 12.979-31.651 0-11.935-4.605-23.161-12.974-31.651Z" fill="#D7FEC8"></path><path d="M430.219 152.627c-6.336-3.349-13.493-5.145-20.714-5.197.052 7.45 1.956 14.81 5.512 21.301a45.083 45.083 0 0 0 7.692 10.256c8.442 8.442 19.634 13.121 31.556 13.207a45.043 45.043 0 0 0-24.046-39.562v-.005Z" fill="#0B996E"></path><path d="M363.162 23.429a39.444 39.444 0 0 0-13.156 8.727 39.9 39.9 0 0 0-8.961 13.747h90.737c-6.591-8.533-15.984-14.36-26.52-16.445l-.177-.034-.064-.168c-3.177-8.326-8.728-15.44-16.052-20.576-7.493-5.253-16.307-8.033-25.488-8.033-9.686 0-18.892 3.06-26.627 8.853l-.134.1-.16-.048a44.622 44.622 0 0 0-13.302-2.024 44.391 44.391 0 0 0-33.542 15.28h74.982l-1.541.625.005-.004Z" fill="#FAF5E3"></path><path d="M408.853 146.783h.324c7.256 0 14.46 1.744 20.865 5.033V79.501H340.98v67.817h31.621a5.24 5.24 0 0 1 5.232 5.232v16.009h36.364a45.799 45.799 0 0 1-5.339-21.457v-.323l-.005.004Zm-.466-22.427c-12.435 0-22.552 10.117-22.552 22.552h-.648c0-12.435-10.117-22.552-22.552-22.552v-.648c12.435 0 22.552-10.117 22.552-22.552h.648c0 12.435 10.117 22.552 22.552 22.552v.648Z" fill="#F9FFF6"></path><path d="M385.511 105.032c-1.636 9.694-9.306 17.364-19 19 9.694 1.636 17.364 9.306 19 19 1.636-9.694 9.306-17.364 19-19-9.694-1.636-17.364-9.306-19-19Z" fill="#D7FEC8"></path><path d="M340.657 168.887h-.324V147.97h-63.57a4.59 4.59 0 0 0-4.584 4.584v70.398a4.593 4.593 0 0 0 4.584 4.584h95.838c.108 0 .216 0 .328-.013a4.594 4.594 0 0 0 4.256-4.571v-53.746h-36.524v-.324l-.004.005Z" fill="#FAF5E3"></path><path d="M372.601 147.97H340.98v20.593h36.205v-16.009a4.587 4.587 0 0 0-4.584-4.584Z" fill="#006A43"></path><path d="M276.763 228.183a4.587 4.587 0 0 0-4.584 4.584 4.59 4.59 0 0 0 4.584 4.584h96.192a4.59 4.59 0 0 0 4.584-4.584 4.587 4.587 0 0 0-4.584-4.584v-.013a4.559 4.559 0 0 1-.354.013h-95.838Z" fill="#FFFFFF"></path><path d="M249.851 232.767a5.239 5.239 0 0 1 5.231-5.231h19.165a5.227 5.227 0 0 1-2.715-4.584v-70.398a5.235 5.235 0 0 1 5.231-5.231h63.307l-19.89-25.03a39.91 39.91 0 0 0-19.022-13.182 39.938 39.938 0 0 0-12.344-1.951h-1.161a23.78 23.78 0 0 1-6.298-.85 36.932 36.932 0 0 1-.664 1.726 31.348 31.348 0 0 1-6.742 10.001 31.453 31.453 0 0 1-10.001 6.746 31.277 31.277 0 0 1-12.25 2.469 31.332 31.332 0 0 1-22.25-9.215 31.43 31.43 0 0 1-6.746-10.001 34.399 34.399 0 0 1-.665-1.726c-2.041.561-4.161.85-6.302.85h-1.161c-4.191 0-8.343.656-12.34 1.947a39.927 39.927 0 0 0-19.017 13.186l-54.299 68.313c-6.837 8.602-8.171 20.554-3.397 30.451 4.778 9.898 14.965 16.29 25.95 16.29h46.184v-.065h-.324v-31.198l-44.889-8.33.116-.635 25.522 4.735 24.046-26.199c-2.05-8.892-3.811-18.599-1.2-30.788l.635.134c-2.599 12.137-.816 21.805 1.234 30.671.216.924.432 1.839.648 2.749 2.564 10.8 4.985 20.999-1.01 33.249l18.024 4.113c10.152 2.318 17.261 11.166 17.36 21.564h14.745a5.235 5.235 0 0 1-2.715-4.584l.004.004Z" fill="#D7FEC8"></path><path d="M340.307 111.895c0-2.659-.134-5.352-.401-8.003a78.603 78.603 0 0 0-1.187-7.769 77.094 77.094 0 0 0-1.93-7.497 77.739 77.739 0 0 0-5.913-14.028 79.934 79.934 0 0 0-3.915-6.448 79.128 79.128 0 0 0-9.547-11.572 79.436 79.436 0 0 0-5.02-4.606v2.642a78.655 78.655 0 0 0 1.584 15.772 77.111 77.111 0 0 0 1.929 7.497 78.661 78.661 0 0 0 2.624 7.186 79.763 79.763 0 0 0 3.289 6.837 79.113 79.113 0 0 0 3.915 6.449 77.662 77.662 0 0 0 4.502 6.021 78.266 78.266 0 0 0 5.046 5.555 79.158 79.158 0 0 0 5.05 4.618v-2.659h-.026v.005Z" fill="#0B996E"></path><path d="m231.075 85.626-3.729-8.818c-.185-.44-.375-.88-.565-1.317a3.673 3.673 0 0 1-2.659-2.119l-4.908-11.183a5.065 5.065 0 0 1-.427-2.038 5.077 5.077 0 0 1 5.072-5.071 25.92 25.92 0 0 0 20.083-9.505l.574-.699v10.2h34.927a5.076 5.076 0 0 1 5.068 5.071c0 .708-.143 1.394-.428 2.037l-4.907 11.184a3.645 3.645 0 0 1-2.573 2.102l-4.294 10.152a22.316 22.316 0 0 1-5.46 7.747l.06.13a23.034 23.034 0 0 0 14.33 12.107c2.076.6 4.234.906 6.41.906h1.161c4.247 0 8.442.661 12.478 1.964h7.882a60.693 60.693 0 0 1-3-4.053 61.206 61.206 0 0 1-2.983-4.912 58.467 58.467 0 0 1-2.508-5.21 57.89 57.89 0 0 1-1.998-5.477 59.539 59.539 0 0 1-1.468-5.71 60.56 60.56 0 0 1-.902-5.922 61.064 61.064 0 0 1-.306-6.094v-15.94c0-24.435-19.876-44.311-44.311-44.311-24.434 0-44.311 19.876-44.311 44.31v15.94c0 2.03-.103 4.08-.306 6.095a60.27 60.27 0 0 1-.902 5.918 58.705 58.705 0 0 1-3.466 11.188 59.413 59.413 0 0 1-8.486 14.174h7.869a40.643 40.643 0 0 1 12.487-1.964h1.161a23.1 23.1 0 0 0 6.414-.906 23.035 23.035 0 0 0 14.325-12.107l.065-.13c-.237-.22-.462-.432-.665-.634a22.331 22.331 0 0 1-4.795-7.114l-.009.009Z" fill="#006A43"></path><path d="M251.698 98.644c2.936 0 5.78-.574 8.456-1.71a21.6 21.6 0 0 0 6.086-3.875 21.711 21.711 0 0 0 5.477-7.683l4.429-10.476.177-.03a2.985 2.985 0 0 0 2.261-1.757l4.908-11.183a4.426 4.426 0 0 0-4.049-6.198h-35.574v-9.065c-5.059 5.767-12.302 9.056-20.01 9.064a4.43 4.43 0 0 0-4.425 4.425c0 .617.126 1.217.372 1.774l4.912 11.183a3.02 3.02 0 0 0 2.339 1.77l.181.026.074.164c.215.492.431.988.638 1.485l3.73 8.818a21.664 21.664 0 0 0 5.477 7.683 21.643 21.643 0 0 0 6.086 3.876 21.552 21.552 0 0 0 8.46 1.709h-.005Zm0-9.997c-1.786 0-3.513-.35-5.132-1.036l.251-.595c1.541.651 3.181.984 4.881.984 1.701 0 3.337-.332 4.878-.984l.25.595a13.089 13.089 0 0 1-5.132 1.036h.004Zm11.663-19.816h-.647v-6.5h.647v6.5Zm-7.195-9.301h13.743v.647h-13.743v-.647Zm-16.579 9.301h-.647v-6.5h.647v6.5Zm-8.503-8.654v-.647h9.302c3.107 0 6.081 1.32 8.162 3.626 2.08 2.304 3.09 5.4 2.771 8.49l-1.062 10.372h2.853v.647h-3.57l1.135-11.089a10.357 10.357 0 0 0-2.607-7.989 10.355 10.355 0 0 0-7.678-3.414h-9.302l-.004.004Z" fill="#FAF5E3"></path><path d="M229.906 117.575a30.701 30.701 0 0 0 9.798 6.608 30.626 30.626 0 0 0 11.994 2.417c4.161 0 8.197-.816 11.995-2.417a30.714 30.714 0 0 0 9.798-6.608 30.662 30.662 0 0 0 6.604-9.794c.229-.543.445-1.1.639-1.657a23.687 23.687 0 0 1-14.382-12.306 22.252 22.252 0 0 1-14.649 5.469c-3.017 0-5.952-.591-8.711-1.761a22.32 22.32 0 0 1-5.947-3.716 23.698 23.698 0 0 1-14.382 12.31c.194.548.406 1.1.639 1.657a30.695 30.695 0 0 0 6.608 9.794l-.004.004Z" fill="#FAF5E3"></path><path d="M271.532 232.767c0-1.972 1.1-3.69 2.715-4.584h-19.165a4.59 4.59 0 0 0-4.583 4.584 4.586 4.586 0 0 0 4.583 4.584h19.165a5.227 5.227 0 0 1-2.715-4.584Z" fill="#006A43"></path><path d="m220.315 216.417-22.337-5.097v25.966h-.323v.065h39.519c-.099-10.091-7.001-18.681-16.855-20.934h-.004Z" fill="#FAF5E3"></path><path d="M87.249 78.237A114.19 114.19 0 0 0 68.875 97.06l-.1.125h-.272c-25.25 0-48.99 9.746-66.94 27.456H158.67v-71.84c-7.256.021-14.507.73-21.56 2.102v23.334H87.24h.009Z" fill="#D7FEC8"></path><path d="M136.472 55.032C118.857 58.56 102.149 66.35 88.056 77.59h48.416V55.032Z" fill="#006A43"></path><path d="M136.471 10.174h-67.42v20.463c0 7.644 6.216 13.86 13.86 13.86v.647c-7.644 0-13.86 6.215-13.86 13.86v18.59h17.965c14.338-11.607 31.431-19.63 49.451-23.218V10.174h.004Z" fill="#FAF5E3"></path><path d="M113.259 192.194c-.173-24.421-20.006-44.25-44.427-44.427v44.427h44.427Z" fill="#006A43"></path><path d="M23.748 192.518c0 24.676 20.08 44.755 44.76 44.755s44.574-19.902 44.751-44.431H68.184v-45.075c-24.53.177-44.436 20.183-44.436 44.751ZM57.6 44.816a14.557 14.557 0 0 1 11.128 11.127 14.557 14.557 0 0 1 11.127-11.127c-5.525-1.187-9.888-5.534-11.106-11.046h-.038c-1.222 5.512-5.581 9.859-11.106 11.046H57.6Z" fill="#0B996E"></path><path d="M68.184 147.12v-21.789c-36.792.177-66.69 30.076-66.863 66.863h21.788c.173-24.779 20.3-44.897 45.08-45.074h-.005ZM34.53 34.198c6.634 0 12.012-5.378 12.012-12.012S41.164 10.174 34.53 10.174s-12.012 5.378-12.012 12.012 5.378 12.012 12.012 12.012Z" fill="#FFFFFF"></path><path d="M113.582 192.194v.648c-.172 24.745-20.286 44.755-45.074 44.755-24.789 0-45.084-20.183-45.084-45.079v.324h-.32c.178 24.887 20.473 45.079 45.404 45.079 24.93 0 45.402-20.369 45.402-45.403s-20.191-45.221-45.079-45.398v.323c24.638.173 44.579 20.11 44.751 44.751Z" fill="#004228"></path><path d="M113.259 192.194h.323c-.172-24.637-20.109-44.578-44.75-44.751v.324c24.42.173 44.25 20.006 44.427 44.427ZM68.508 237.273c-24.68 0-44.76-20.074-44.76-44.755 0-24.68 19.902-44.574 44.436-44.751v-.324c-24.745.173-44.76 20.287-44.76 45.075 0 24.788 20.188 45.079 45.084 45.079 24.896 0 44.897-20.006 45.074-44.755h-.323c-.177 24.529-20.183 44.431-44.751 44.431Z" fill="#004228"></path><path d="M68.184 147.443v-.323c-24.78.172-44.902 20.295-45.08 45.074h.32v.324c0-24.788 20.01-44.898 44.76-45.075ZM236.937 93.296a22.06 22.06 0 0 1-5.559-7.8l-3.73-8.818c-.207-.496-.423-.988-.639-1.48a3.326 3.326 0 0 1-2.589-1.96l-4.912-11.183a4.748 4.748 0 0 1 4.351-6.651 26.26 26.26 0 0 0 20.333-9.621v9.62h35.251a4.747 4.747 0 0 1 4.347 6.652l-4.908 11.183a3.34 3.34 0 0 1-2.503 1.947l-4.36 10.311a22.142 22.142 0 0 1-5.559 7.8l.294-.138.103.216a22.312 22.312 0 0 0 5.46-7.748l4.295-10.152a3.641 3.641 0 0 0 2.572-2.102l4.908-11.183a5.075 5.075 0 0 0-4.64-7.109h-34.927v-10.2l-.574.7c-4.951 6.034-12.271 9.495-20.084 9.504a5.076 5.076 0 0 0-4.644 7.109l4.907 11.183a3.677 3.677 0 0 0 2.659 2.12c.19.436.38.876.566 1.316l3.729 8.818a22.329 22.329 0 0 0 5.46 7.748l.108-.216.289.143-.004-.009Z" fill="#004228"></path><path d="M251.698 98.968a21.937 21.937 0 0 0 14.503-5.452l-.039-.078.294-.138a22.077 22.077 0 0 0 5.559-7.8l4.359-10.31a3.326 3.326 0 0 0 2.504-1.947l4.907-11.184a4.747 4.747 0 0 0-4.346-6.651h-35.251v-9.621a26.261 26.261 0 0 1-20.334 9.62 4.748 4.748 0 0 0-4.351 6.652l4.912 11.184a3.329 3.329 0 0 0 2.59 1.96c.216.491.427.983.639 1.48l3.729 8.818a22.143 22.143 0 0 0 5.56 7.8l.289.142-.039.077a21.956 21.956 0 0 0 14.511 5.451l.004-.003Zm-14.545-5.91a21.729 21.729 0 0 1-5.478-7.683l-3.729-8.817c-.211-.497-.423-.993-.639-1.485l-.073-.164-.181-.026a3.027 3.027 0 0 1-2.34-1.77l-4.912-11.183a4.387 4.387 0 0 1-.371-1.774 4.43 4.43 0 0 1 4.424-4.425 26.55 26.55 0 0 0 20.01-9.064v9.064h35.575a4.426 4.426 0 0 1 4.049 6.199l-4.908 11.183a2.985 2.985 0 0 1-2.262 1.757l-.177.03-4.428 10.476a21.664 21.664 0 0 1-5.477 7.682 21.655 21.655 0 0 1-14.542 5.586c-2.935 0-5.784-.574-8.46-1.71a21.655 21.655 0 0 1-6.086-3.876h.005Z" fill="#004228"></path><path d="M251.699 99.291c3.021 0 5.952-.591 8.705-1.757a22.385 22.385 0 0 0 5.944-3.712c-.004-.012-.013-.025-.017-.034l-.13-.263a21.935 21.935 0 0 1-14.502 5.451 21.965 21.965 0 0 1-14.512-5.451l-.129.267s-.013.022-.017.035a22.263 22.263 0 0 0 14.658 5.477v-.013Z" fill="#004228"></path><path d="M193.537 108.8a59.58 59.58 0 0 0 3.41-4.558 58.384 58.384 0 0 0 5.46-10.07 59.692 59.692 0 0 0 1.994-5.447 59.262 59.262 0 0 0 2.663-17.632v-15.94c0-24.65 19.984-44.634 44.634-44.634 24.651 0 44.635 19.984 44.635 44.634v15.94c0 2.046.103 4.07.306 6.065a58.886 58.886 0 0 0 2.357 11.567 59.542 59.542 0 0 0 1.99 5.447 57.325 57.325 0 0 0 2.495 5.184 60.103 60.103 0 0 0 2.965 4.886 59.629 59.629 0 0 0 3.414 4.558h-7.614c.302.104.6.212.898.324h7.402l-.436-.531a60.035 60.035 0 0 1-3.392-4.532 59.823 59.823 0 0 1-2.948-4.86 57.488 57.488 0 0 1-2.482-5.154 58.467 58.467 0 0 1-1.977-5.417 58.19 58.19 0 0 1-1.45-5.645 59.243 59.243 0 0 1-1.2-11.888v-15.94c0-24.792-20.17-44.958-44.958-44.958-24.788 0-44.958 20.17-44.958 44.959v15.94a59.778 59.778 0 0 1-1.2 11.886 58.748 58.748 0 0 1-5.909 16.217 60.489 60.489 0 0 1-2.953 4.86 59.516 59.516 0 0 1-3.392 4.536l-.436.531h7.394c.297-.112.595-.22.897-.324h-7.605l-.004-.004Z" fill="#004228"></path><path d="M202.087 108.476h-7.868a60.092 60.092 0 0 0 2.995-4.053 60.533 60.533 0 0 0 2.983-4.912 60.844 60.844 0 0 0 2.508-5.21 58.909 58.909 0 0 0 3.466-11.188 60.67 60.67 0 0 0 .902-5.917c.202-2.015.306-4.066.306-6.094v-15.94c0-24.435 19.877-44.311 44.311-44.311s44.311 19.876 44.311 44.31v15.94c0 2.03.103 4.08.306 6.095.203 1.986.505 3.976.902 5.922a59.531 59.531 0 0 0 3.466 11.188 59.02 59.02 0 0 0 2.508 5.21 60.285 60.285 0 0 0 2.982 4.912 60.513 60.513 0 0 0 3 4.053h-7.881l.064.017c.298.095.592.203.885.306h7.614a59.629 59.629 0 0 1-3.414-4.558 59.962 59.962 0 0 1-2.965-4.886 57.336 57.336 0 0 1-2.495-5.183 59.092 59.092 0 0 1-4.347-17.015 60.116 60.116 0 0 1-.306-6.065v-15.94c0-24.65-19.984-44.634-44.634-44.634-24.651 0-44.635 19.984-44.635 44.635v15.94c0 2.045-.104 4.07-.306 6.064a58.886 58.886 0 0 1-2.357 11.567 58.415 58.415 0 0 1-1.994 5.448 58.396 58.396 0 0 1-5.46 10.069 59.58 59.58 0 0 1-3.41 4.558h7.605c.298-.103.596-.211.894-.306.017-.005.034-.009.051-.017l.013-.005ZM320.431 122.09l19.902 25.043v-.523l-19.648-24.723a40.574 40.574 0 0 0-17.545-12.768h-.95a40.341 40.341 0 0 1 18.241 12.971Z" fill="#004228"></path><path d="M301.258 108.804a40.385 40.385 0 0 0-12.444-1.964h-1.161c-2.258 0-4.437-.319-6.5-.915l.306.104-.104.285a23.78 23.78 0 0 0 6.298.85h1.161c4.2 0 8.352.656 12.344 1.951a39.97 39.97 0 0 1 19.022 13.182l19.89 25.03h.263v-.19l-19.902-25.043a40.39 40.39 0 0 0-18.241-12.97h-.932v-.32Z" fill="#004228"></path><path d="M287.657 106.512c-2.179 0-4.338-.306-6.409-.906a23.054 23.054 0 0 1-14.33-12.107l-.061-.13-.177.164a.462.462 0 0 1-.073.06l.021.044a23.372 23.372 0 0 0 14.223 12.18v-.008l.306.103c2.063.596 4.247.92 6.5.92h1.161c4.278 0 8.469.677 12.444 1.964v-.328h.035a40.536 40.536 0 0 0-12.479-1.964h-1.161v.008Z" fill="#004228"></path><path d="M280.734 106.124c.035-.104.078-.203.112-.307a23.373 23.373 0 0 1-14.222-12.18l-.021-.043c-.082.073-.169.147-.255.22a23.678 23.678 0 0 0 14.382 12.306l.004.004Z" fill="#004228"></path><path d="M266.602 93.598c.022-.022.048-.039.074-.06.065-.056.116-.108.177-.164l-.104-.216-.293.138.146.302Z" fill="#004228"></path><path d="M266.205 93.516c.087-.073.173-.147.255-.22l-.293.138.038.078v.004Z" fill="#004228"></path><path d="m266.205 93.516.13.263.017.035c.086-.073.168-.142.255-.22l-.147-.302c-.082.073-.168.146-.255.22v.004ZM301.258 108.8c.31.104.621.216.932.324h.95c-.298-.113-.596-.22-.898-.324h-.984Z" fill="#004228"></path><path d="M301.258 109.124h.932c-.311-.108-.617-.22-.932-.32v.32ZM301.297 108.476h-.035v.328h.984c-.293-.103-.587-.207-.885-.306-.021-.009-.043-.013-.064-.017v-.005ZM229.448 118.032a31.384 31.384 0 0 0 10.005 6.747 31.276 31.276 0 0 0 12.246 2.469c4.247 0 8.369-.833 12.249-2.469a31.401 31.401 0 0 0 10.001-6.747 31.355 31.355 0 0 0 6.742-10c.242-.566.462-1.149.665-1.727l-.294-.078c-.009 0-.013-.004-.022-.008a27.655 27.655 0 0 1-.651 1.683 31.19 31.19 0 0 1-6.673 9.897 31.243 31.243 0 0 1-9.902 6.678 31.053 31.053 0 0 1-12.124 2.443c-4.303 0-8.395-.872-12.12-2.443a31.288 31.288 0 0 1-16.579-16.575 33.177 33.177 0 0 1-.647-1.683c-.009 0-.013.004-.022.008-.095.031-.194.052-.293.078.202.57.422 1.148.664 1.727a31.363 31.363 0 0 0 6.747 10h.008Z" fill="#004228"></path><path d="M280.095 107.781a30.673 30.673 0 0 1-6.604 9.794 30.735 30.735 0 0 1-9.798 6.608 30.628 30.628 0 0 1-11.995 2.417c-4.16 0-8.196-.816-11.994-2.417a30.712 30.712 0 0 1-9.798-6.608 30.714 30.714 0 0 1-6.609-9.794 31.694 31.694 0 0 1-.638-1.657c-.104.03-.203.069-.311.099.198.566.414 1.127.647 1.683a31.27 31.27 0 0 0 6.678 9.898 31.196 31.196 0 0 0 9.901 6.677 31.048 31.048 0 0 0 12.12 2.443c4.299 0 8.395-.872 12.124-2.443a31.29 31.29 0 0 0 9.902-6.677 31.129 31.129 0 0 0 6.673-9.898 30.65 30.65 0 0 0 .652-1.683c-.104-.03-.207-.065-.311-.099-.199.557-.41 1.113-.639 1.657Z" fill="#004228"></path><path d="M281.062 106.232c.099.03.194.052.293.078l.104-.285-.306-.104c-.035.104-.074.203-.113.307.009 0 .013.004.022.008v-.004ZM280.846 105.813v.009c.099.03.203.069.307.099l-.307-.104v-.004Z" fill="#004228"></path><path d="M280.846 105.822c-.034.103-.073.203-.112.306.103.03.203.069.311.099.034-.103.077-.202.112-.306-.104-.03-.203-.069-.307-.099h-.004ZM202.817 178.572c2.654 11.179 4.946 20.831-1.01 32.916-.004.013-.013.022-.017.035l.323.073c6.41-13.044 3.242-23.541.458-35.467l-.264.29c.169.72.337 1.441.51 2.153Z" fill="#004228"></path><path d="m202.484 175.75.238.22-.151.164c2.784 11.926 5.952 22.423-.458 35.466l.324.074c5.991-12.25 3.574-22.449 1.01-33.248-.216-.907-.432-1.826-.647-2.75-2.051-8.865-3.838-18.538-1.235-30.671l-.634-.134c-2.612 12.189-.851 21.896 1.199 30.788l.117-.125.237.22v-.004Z" fill="#004228"></path><path d="m202.307 176.419-.09-.38-23.761 25.889.375.069 23.476-25.578Z" fill="#004228"></path><path d="m202.217 176.039-.052-.216-.039-.168-24.046 26.199.376.069 23.761-25.889v.005Z" fill="#004228"></path><path d="m202.571 176.129-.091-.38-.263.29.09.379.264-.289ZM202.722 175.965l-.238-.22.091.38.151-.164-.004.004Z" fill="#004228"></path><path d="m202.217 176.039.263-.29-.237-.22-.117.126.039.168.052.216ZM197.978 210.655v-5.106l-19.142-3.552-.259.28 19.078 3.54v5.097l.073-.319.25.06Z" fill="#004228"></path><path d="m197.581 211.229.074-.315v-5.097l-19.078-3.54-.138.147-.475-.436.121-.134-25.522-4.735-.121.635 44.889 8.33v31.202h.324v-26.04l-.074-.017Z" fill="#004228"></path><path d="m197.978 211.32-.323-.074v26.04h.323V211.32ZM178.46 201.923l-.259.281.376.073.259-.28-.376-.074Z" fill="#004228"></path><path d="m178.439 202.424.138-.147-.376-.073.259-.281-.375-.069-.121.134.475.436ZM201.789 211.523l-3.811-.872v.332l3.988.911-.289-.147c.039-.073.074-.151.112-.229v.005ZM220.462 215.787l-18.025-4.113c-.017.034-.03.069-.047.103a4.626 4.626 0 0 1-.1.199l18.098 4.131c9.941 2.27 17.011 11.066 17.11 21.248h.324c-.1-10.393-7.208-19.246-17.36-21.564v-.004Z" fill="#004228"></path><path d="m220.388 216.102-18.098-4.13c-.013.021-.021.047-.034.069l-.29-.147-3.988-.911v.333l22.337 5.097c9.858 2.253 16.76 10.842 16.855 20.934h.324c-.1-10.178-7.17-18.979-17.11-21.249l.004.004Z" fill="#004228"></path><path d="M202.1 211.631s.009-.022.018-.031l-.324-.073-.112.229.289.146c.043-.086.086-.177.129-.267v-.004Z" fill="#004228"></path><path d="m202.1 211.631-.129.267.324.073c.034-.064.064-.129.099-.198.017-.035.03-.069.047-.104l-.323-.073s-.009.022-.018.03v.005ZM201.967 211.898l.289.147c.013-.022.021-.048.034-.069l-.323-.074v-.004ZM197.728 210.595l-.073.319.323.073v-.332l-.25-.06ZM197.655 210.914l-.074.315.074.017v-.332ZM197.655 211.246l.323.074v-.333l-.323-.073v.332ZM276.763 227.86h95.838v-.324h-95.838v.324ZM276.763 227.86v.323h95.838v-.323h-95.838ZM250.175 232.767a4.907 4.907 0 0 1 4.907-4.907h19.89a5.21 5.21 0 0 1-.721-.324h-19.164a5.239 5.239 0 0 0-5.232 5.231 5.234 5.234 0 0 0 2.715 4.584h.777a4.904 4.904 0 0 1-3.163-4.584h-.009Z" fill="#004228"></path><path d="M250.499 232.767a4.59 4.59 0 0 1 4.583-4.584h19.165c.228-.125.474-.233.72-.323h-19.889a4.904 4.904 0 0 0-1.744 9.491h1.74a4.59 4.59 0 0 1-4.584-4.584h.009ZM272.179 232.767a4.593 4.593 0 0 1 4.584-4.584h-1.744a4.905 4.905 0 0 0-3.168 4.584 4.903 4.903 0 0 0 3.168 4.584h1.744a4.587 4.587 0 0 1-4.584-4.584Z" fill="#004228"></path><path d="M271.855 232.767a4.904 4.904 0 0 1 3.169-4.584h-.777a5.23 5.23 0 0 0-2.715 4.584 5.24 5.24 0 0 0 2.715 4.584h.777a4.902 4.902 0 0 1-3.169-4.584ZM275.019 228.183h1.744c-.432 0-.85-.056-1.252-.155a4.767 4.767 0 0 0-.492.155Z" fill="#004228"></path><path d="M274.967 227.86c-.25.09-.492.198-.72.323h.777c.159-.06.323-.112.492-.155a5.72 5.72 0 0 1-.544-.168h-.005ZM377.509 222.952a4.902 4.902 0 0 1-3.488 4.692c.186.039.367.09.548.147 1.917-.782 3.264-2.672 3.264-4.839v-53.746h-.324v53.746ZM372.601 147.323H340.98v.103l.013.017-.013.009v.194h31.621a4.912 4.912 0 0 1 4.908 4.912v16.009h.324v-16.009a5.237 5.237 0 0 0-5.232-5.231v-.004Z" fill="#004228"></path><path d="M377.185 222.952a4.594 4.594 0 0 1-4.584 4.584v.324c.117 0 .238 0 .354-.013v-.311c.367 0 .721.039 1.066.108a4.906 4.906 0 0 0 3.488-4.692v-53.746h-.324v53.746ZM340.329 147.646h-63.566a4.912 4.912 0 0 0-4.912 4.912v70.399a4.902 4.902 0 0 0 3.168 4.583h1.744a4.587 4.587 0 0 1-4.584-4.583v-70.399a4.59 4.59 0 0 1 4.584-4.584h63.57v-.315l-.009-.008.005-.005ZM372.601 147.646H340.98v.324h31.621a4.593 4.593 0 0 1 4.584 4.584v16.009h.324v-16.009a4.91 4.91 0 0 0-4.908-4.912v.004Z" fill="#004228"></path><path d="M372.955 228.17v-.323a5.21 5.21 0 0 1-.354.013v.323c.121 0 .238 0 .354-.013ZM271.532 152.554v70.398a5.24 5.24 0 0 0 2.715 4.584h.777a4.903 4.903 0 0 1-3.169-4.584v-70.398a4.912 4.912 0 0 1 4.912-4.912h63.566l-.259-.324h-63.307a5.236 5.236 0 0 0-5.231 5.232l-.004.004ZM340.98 147.426v.026l.013-.009-.013-.017Z" fill="#004228"></path><path d="M340.333 147.655v-.009h-.005l.005.009ZM340.333 147.646v-.323h-.263l.258.323h.005ZM275.511 227.696c.402-.1.82-.156 1.252-.156h-1.744c.16.061.324.113.492.156Z" fill="#004228"></path><path d="M275.019 227.536h-.777c.229.125.475.233.721.324.177-.065.358-.121.544-.169a4.767 4.767 0 0 1-.492-.155h.004ZM276.763 227.86v-.324c-.432 0-.85.056-1.252.155.402.104.816.169 1.252.169Z" fill="#004228"></path><path d="M276.763 228.183v-.323c-.432 0-.85.06-1.252.168.402.099.82.155 1.252.155Z" fill="#004228"></path><path d="M274.967 227.86h1.796c-.432 0-.85-.061-1.252-.169a5.816 5.816 0 0 0-.544.169ZM274.967 227.86c.177.064.359.121.544.168a4.963 4.963 0 0 1 1.252-.168h-1.796ZM251.698 88c-1.7 0-3.34-.332-4.881-.984l-.251.596a13.107 13.107 0 0 0 5.132 1.035 13.1 13.1 0 0 0 5.132-1.035l-.25-.596a12.45 12.45 0 0 1-4.877.984h-.005ZM248.068 63.587a10.337 10.337 0 0 1 2.607 7.99l-1.135 11.088h3.57v-.647h-2.853l1.062-10.372a11.016 11.016 0 0 0-2.771-8.49 11.012 11.012 0 0 0-8.162-3.626h-9.302v.647h9.302c2.922 0 5.723 1.243 7.678 3.415l.004-.005ZM269.909 59.526h-13.743v.647h13.743v-.647ZM263.361 62.327h-.647v6.5h.647v-6.5Z" fill="#004228"></path><path d="M239.591 62.327h-.647v6.5h.647v-6.5ZM340.656 115.227h-.025l-.208.25-.09-.077v31.21l.323.406v-31.793.004ZM340.656 105.071V79.177h89.71v72.803c.051.026.099.052.151.077l.172.095V78.854h-90.356v23.105c.077.621.151 1.243.216 1.869.043.414.073.828.107 1.243Z" fill="#004228"></path><path d="M340.98 147.323V79.501h89.062v72.31c.108.057.216.108.324.165V79.177h-89.71v25.894c.195 2.27.298 4.558.298 6.824h-.298v2.93l.178.152-.178.215v31.824l.242.302h.082v.005ZM340.656 168.563V147.97h-.323v20.917h.323v-.324Z" fill="#004228"></path><path d="M340.98 147.97h-.324v20.593h.324V147.97ZM340.333 114.554c.108.09.216.185.323.271v-2.93h-.323v2.659ZM340.631 115.227h.026v-.035l-.026.035ZM340.484 147.323h.172v-.303l-.323-.41v.523l.151.19ZM340.656 147.02v.303h.242l-.242-.303ZM340.484 147.323l-.151-.19v.19h.151ZM340.898 147.323l.082.103v-.103h-.082ZM340.98 147.646v-.194l-.237.194h.237ZM340.656 147.715l-.168.134-.082-.103-.073-.091v.315h.323v-.255Z" fill="#004228"></path><path d="m340.743 147.646-.087.069v.255h.324v-.324h-.237ZM340.656 147.323h-.172l.172.22v-.22Z" fill="#004228"></path><path d="m340.743 147.646.237-.194v-.026l-.082-.103h-.242v.22l.087.103ZM340.406 147.746l.082.103.168-.134v-.069h-.323v.009l.073.091ZM340.743 147.646h-.087v.069l.087-.069Z" fill="#004228"></path><path d="m340.743 147.646-.087-.103v.103h.087ZM340.333 147.646h.323v-.103l-.172-.22h-.151v.323ZM414.365 168.887h-36.532v.323h36.714c-.031-.056-.065-.112-.095-.168-.031-.052-.056-.104-.082-.155h-.005ZM377.833 168.563v.324h36.532a12.696 12.696 0 0 0-.172-.324h-36.365.005ZM340.656 168.887v.323h36.529v-.323H340.656ZM377.185 168.563H340.98v.324h36.205v-.324ZM377.833 168.887h-.324v.323h.324v-.323Z" fill="#004228"></path><path d="M377.833 168.563h-.324v.324h.324v-.324ZM377.509 168.887h-.324v.323h.324v-.323ZM377.509 168.563h-.324v.324h.324v-.324ZM340.98 168.563h-.324v.324h.324v-.324ZM68.508 147.115h.324v-21.827h-.324v21.827ZM.669 192.518v.324h22.436v-.324H.997c0-35.19 26.93-64.092 61.308-67.226h-2.883C26.299 129.747.673 158.195.673 192.518H.67ZM113.263 192.518v-.324H68.836v-44.427h-.324v44.755h44.755l-.004-.004Z" fill="#004228"></path><path d="M113.259 192.842v-.324H68.503v-44.755h-.323v45.075h45.074l.005.004ZM1.32 192.194c.178-36.791 30.076-66.69 66.864-66.863v21.789h.324v-21.823H62.3C27.926 128.43.993 157.332.993 192.522H23.1v-.323H1.312l.009-.005Z" fill="#004228"></path><path d="M23.424 192.518h-.323v.324h.319v-.324h.004ZM68.508 147.439h.324v-.324h-.324v.324ZM68.832 147.767v-.324h-.324v.324h.324ZM113.263 192.518h.324v-.324h-.324v.324ZM113.263 192.518v.324h.324v-.319h-.324v-.005ZM68.184 147.767h.324v-.324h-.324v.324Z" fill="#004228"></path><path d="M68.184 147.12v.323h.324v-.323h-.324ZM23.424 192.194h-.32v.324h.325v-.324h-.005ZM.781 124.969c17.317-17.365 41.268-28.103 67.727-28.103h.112a114.745 114.745 0 0 1 18.124-18.63h-.505A114.87 114.87 0 0 0 68.46 96.543c-25.664.013-49.78 10.026-67.908 28.198l-.552.552h59.418a63.53 63.53 0 0 1 2.883-.323H.78ZM158.998 52.477v72.492H68.827v.323h90.495V52.153h-.324c-7.364 0-14.723.708-21.883 2.094v.328a114.523 114.523 0 0 1 21.883-2.098Z" fill="#004228"></path><path d="M158.998 52.477c-7.489 0-14.8.725-21.883 2.098v.328a114.495 114.495 0 0 1 21.559-2.102v71.84H1.567c17.951-17.71 41.69-27.456 66.94-27.456h.273l.099-.125a114.193 114.193 0 0 1 18.374-18.823h-.505a114.394 114.394 0 0 0-18.124 18.629h-.112c-26.459 0-50.405 10.738-67.726 28.103h61.52a68.489 68.489 0 0 1 6.206-.285h.324v.285h90.171V52.477h-.009Z" fill="#004228"></path><path d="M136.472 54.704c-18.271 3.648-34.954 11.65-48.934 22.89h.518c14.093-11.24 30.805-19.031 48.416-22.557v-.333Z" fill="#004228"></path><path d="M136.472 54.372c-18.025 3.587-35.118 11.61-49.452 23.217h.518c13.98-11.235 30.663-19.242 48.934-22.889v-.332.004ZM68.508 125.003v.285h.323v-.324h-6.526c-.967.087-1.93.195-2.883.324h2.883a68.855 68.855 0 0 1 6.207-.285h-.004ZM68.508 124.679c-2.094 0-4.161.1-6.207.285h6.526v-.285h-.324.005Z" fill="#004228"></path><path d="M68.508 125.003c-2.094 0-4.161.1-6.207.285h6.207v-.285ZM68.728 77.913V58.999h-.324v19.238h17.83l.389-.324H68.728ZM68.728 9.85h68.067v44.457l.324-.06V9.527H68.404v21.11h.324V9.85ZM136.795 54.968v22.945H87.65c-.103.086-.211.168-.315.25-.03.022-.056.048-.086.074h49.87V54.903c-.086.017-.173.03-.259.047-.021 0-.043.009-.065.013v.005Z" fill="#004228"></path><path d="M136.795 77.913V54.968l-.323.064V77.59H88.056l-.406.324h49.145ZM69.052 10.173h67.419v44.199l.264-.052c.021 0 .043-.008.06-.013V9.85H68.728v20.787h.324V10.173ZM87.016 77.59H69.05V58.998h-.323v18.914h17.895c.1-.082.198-.169.302-.25.03-.026.06-.048.09-.074ZM68.71 33.77h.04c-.005-.025-.013-.051-.022-.082-.004.026-.013.052-.022.082h.005ZM87.132 77.913h-.505l-.388.324h.505l.388-.324Z" fill="#004228"></path><path d="m136.795 54.635.324-.06v-.328l-.324.06v.328ZM136.856 54.955c.086-.018.172-.03.259-.048v-.328c-.108.022-.216.039-.324.06v.333l.065-.013v-.004ZM87.335 78.168c.104-.087.212-.169.315-.25h-.518l-.388.323h.505c.03-.022.056-.048.086-.073Z" fill="#004228"></path><path d="m136.472 55.032.323-.064v-.333l-.323.065v.332ZM88.056 77.59h-.518c-.134.107-.272.215-.406.323h.518l.406-.324Z" fill="#004228"></path><path d="M136.472 54.372v.332l.323-.065v-.328l-.06.013-.263.052v-.004ZM87.016 77.59c-.03.025-.06.046-.09.072-.105.082-.2.169-.303.25h.505c.134-.107.272-.215.406-.323h-.518ZM34.53 34.84c6.98 0 12.66-5.68 12.66-12.659 0-6.98-5.68-12.66-12.66-12.66s-12.66 5.68-12.66 12.66 5.68 12.66 12.66 12.66Zm0-24.995c6.811 0 12.336 5.52 12.336 12.336 0 6.816-5.525 12.336-12.336 12.336s-12.336-5.525-12.336-12.336c0-6.81 5.52-12.336 12.336-12.336Z" fill="#004228"></path><path d="M34.53 34.517c6.811 0 12.336-5.525 12.336-12.336 0-6.81-5.525-12.336-12.336-12.336s-12.336 5.52-12.336 12.336c0 6.816 5.52 12.336 12.336 12.336Zm0-24.348c6.621 0 12.012 5.387 12.012 12.012 0 6.626-5.386 12.012-12.012 12.012s-12.012-5.386-12.012-12.012c0-6.625 5.386-12.012 12.012-12.012ZM54.545 44.816c6.798 0 12.478-4.787 13.86-11.17v-3.014c0 7.645-6.216 13.86-13.86 13.86v.648c7.644 0 13.86 6.215 13.86 13.859h.323c0-7.834-6.35-14.183-14.183-14.183ZM82.911 45.14v-.324c-7.834 0-14.183 6.349-14.183 14.183h.324c0-7.644 6.215-13.86 13.859-13.86ZM69.052 30.633v3.012c1.38 6.384 7.06 11.17 13.859 11.17v-.323c-7.644 0-13.86-6.215-13.86-13.86Z" fill="#004228"></path><path d="M82.911 44.816c-6.798 0-12.478-4.787-13.86-11.17v.124h-.302c1.222 5.512 5.581 9.859 11.106 11.046a14.557 14.557 0 0 0-11.127 11.127A14.557 14.557 0 0 0 57.6 44.816c5.524-1.187 9.888-5.534 11.105-11.046h-.302v-.125c-1.381 6.384-7.061 11.17-13.86 11.17 7.835 0 14.184 6.35 14.184 14.184 0-7.834 6.35-14.183 14.183-14.183ZM68.728 30.633h-.324v3.012a14.13 14.13 0 0 0 .324-3.013Z" fill="#004228"></path><path d="M69.052 30.633h-.324c0 1.035.112 2.041.324 3.012v-3.013Z" fill="#004228"></path><path d="M68.71 33.77c.005-.026.014-.051.022-.082.005.026.013.052.022.082h.302v-.125a14.137 14.137 0 0 1-.324-3.013 14.13 14.13 0 0 1-.323 3.013v.125h.302ZM408.387 124.032v-.324c-12.435 0-22.552-10.117-22.552-22.552h-.324c0 12.634 10.243 22.876 22.876 22.876ZM362.635 124.032c12.634 0 22.876-10.242 22.876-22.876h-.324c0 12.435-10.117 22.552-22.552 22.552v.648c12.435 0 22.552 10.117 22.552 22.552h.324c0-12.633-10.242-22.876-22.876-22.876Z" fill="#004228"></path><path d="M385.511 146.908h.324c0-12.435 10.117-22.552 22.552-22.552v-.324c-12.633 0-22.876 10.243-22.876 22.876Z" fill="#004228"></path><path d="M385.511 101.156c0 12.634-10.242 22.876-22.876 22.876 12.634 0 22.876 10.243 22.876 22.876 0-12.633 10.243-22.876 22.876-22.876-12.633 0-22.876-10.242-22.876-22.876Zm0 41.876c-1.636-9.694-9.306-17.364-19-19 9.694-1.636 17.364-9.306 19-19 1.636 9.694 9.306 17.364 19 19-9.694 1.636-17.364 9.306-19 19ZM454.265 192.514c-12.414-.086-23.64-5.154-31.785-13.299a45.575 45.575 0 0 1-7.748-10.328v.323h-.19a45.84 45.84 0 0 0 7.705 10.234c8.563 8.564 19.919 13.307 32.009 13.394 0-.108.004-.216.004-.324h.005ZM430.37 152.342c12.888 6.812 22.099 19.648 23.895 34.759v-2.253a45.69 45.69 0 0 0-23.571-32.695v.189h-.324Z" fill="#004228"></path><path d="M454.265 187.101c-1.796-15.111-11.007-27.943-23.895-34.759h-.324v-.164a45.179 45.179 0 0 0-20.864-5.071c0 7.765 1.95 15.068 5.382 21.456h.173v.324a45.424 45.424 0 0 0 7.747 10.328c8.145 8.145 19.372 13.213 31.785 13.299v-5.413h-.004Zm-31.556-8.114a45.23 45.23 0 0 1-7.692-10.256c-3.556-6.491-5.46-13.851-5.512-21.3 7.221.051 14.378 1.847 20.714 5.196 14.718 7.783 23.929 22.937 24.046 39.563-11.922-.082-23.114-4.765-31.556-13.208v.005Z" fill="#004228"></path><path d="M409.177 146.783h-.323v.324a45.795 45.795 0 0 0 5.339 21.456h.367a45.193 45.193 0 0 1-5.383-21.456 45.17 45.17 0 0 1 20.865 5.071v-.362a45.859 45.859 0 0 0-20.865-5.033ZM430.37 151.98v.362h.324v-.189c-.056-.031-.112-.065-.173-.095l-.151-.078ZM430.046 152.342h.324c-.108-.056-.216-.107-.324-.164v.164Z" fill="#004228"></path><path d="M430.046 152.178c.108.057.216.108.324.164v-.362c-.108-.056-.216-.108-.324-.164v.362ZM414.732 168.887h-.367c.026.051.052.103.082.155.031.056.065.112.095.168h.19v-.323ZM414.732 168.563h-.172c.056.108.112.216.172.324v-.324Z" fill="#004228"></path><path d="M414.56 168.563h-.367c.056.108.112.216.172.324h.367c-.06-.108-.112-.216-.172-.324ZM454.589 79.177c-8.866-8.865-13.299-20.489-13.299-32.108 0-11.62 4.433-23.243 13.303-32.113 17.735 17.735 17.735 46.486 0 64.222h.324v.133c8.58-8.628 13.302-20.07 13.302-32.242 0-12.215-4.756-23.7-13.393-32.338l-.229-.228-.229.228c-8.641 8.641-13.397 20.127-13.397 32.342s4.722 23.614 13.298 32.243v-.134h.324l-.004-.005Z" fill="#004228"></path><path d="M454.589 14.956c-8.87 8.87-13.303 20.49-13.303 32.113 0 11.623 4.433 23.243 13.298 32.108 17.736-17.735 17.736-46.486 0-64.221h.005Zm0 63.76c-8.37-8.49-12.975-19.717-12.975-31.651 0-11.935 4.605-23.162 12.979-31.652 8.373 8.49 12.975 19.717 12.975 31.652 0 11.934-4.606 23.16-12.979 31.65ZM454.589 192.518c.138 24.965 20.416 45.157 45.411 45.157v-.324c-24.724 0-44.95-20.114-45.088-44.833h-.323Z" fill="#004228"></path><path d="M454.58 192.842h-.324c-.311 24.572-20.463 44.513-45.079 44.513v.648h90.819v-.324h-90.819c24.888 0 45.092-20.019 45.403-44.833v-.004Z" fill="#004228"></path><path d="M454.589 192.518v.324h-.005c-.311 24.814-20.515 44.833-45.402 44.833H500c-24.995 0-45.273-20.192-45.411-45.157Zm0 5.197c2.408 20.101 17.955 36.265 37.732 39.636h-75.465c19.777-3.371 35.324-19.535 37.733-39.636Z" fill="#004228"></path><path d="M454.589 192.523h-.324c0 .103-.005.211-.005.319h.324c0-.108.005-.212.005-.319Z" fill="#004228"></path><path d="M454.589 192.842v-.319c0 .107-.005.215-.005.319h.005ZM454.589 192.514h.323v-.251h-.323v.251ZM454.588 192.514v-.251h-.323v.251H454.588ZM454.589 192.518h.323v-.004h-.323v.004Z" fill="#004228"></path><path d="m454.912 146.939-.095.094-.457-.457.552-.553V79.311c-.03.03-.065.065-.095.1l-.229.228-.228-.228c-.03-.03-.065-.065-.095-.1v105.537c.41 2.426.634 4.903.647 7.416v-45.325Z" fill="#004228"></path><path d="M454.588 192.264h.324a45.993 45.993 0 0 0-.647-7.42v2.253c.203 1.696.315 3.418.323 5.162v.005Z" fill="#004228"></path><path d="M454.588 192.263a45.043 45.043 0 0 0-.323-5.162v5.162h.323ZM454.588 79.635l.229-.229c.03-.03.065-.065.095-.099v-.134h-.647v.134c.03.03.065.065.095.1l.228.228ZM335.054 110.16a78.556 78.556 0 0 1-5.063-5.577 78.643 78.643 0 0 1-8.455-12.522 78.98 78.98 0 0 1-3.307-6.867 78.38 78.38 0 0 1-4.571-14.748 78.698 78.698 0 0 1-1.187-7.804 79.89 79.89 0 0 1-.405-8.037v-3.336a78.433 78.433 0 0 1 5.572 5.067 80.424 80.424 0 0 1 5.067 5.576 79.306 79.306 0 0 1 4.519 6.043 78.874 78.874 0 0 1 3.932 6.475 77.655 77.655 0 0 1 5.944 14.084 78.144 78.144 0 0 1 1.934 7.531 79.681 79.681 0 0 1 1.191 7.804c.039.406.073.812.108 1.222v-3.121a81.657 81.657 0 0 0-.98-5.965 78.579 78.579 0 0 0-4.588-14.81 79.19 79.19 0 0 0-3.319-6.897 80.128 80.128 0 0 0-3.95-6.5 82.152 82.152 0 0 0-4.536-6.068 79.672 79.672 0 0 0-10.687-10.688l-.531-.435v4.022c0 2.715.138 5.43.406 8.067a78.484 78.484 0 0 0 3.133 15.397 79.527 79.527 0 0 0 2.646 7.247 79.922 79.922 0 0 0 3.319 6.893 78.999 78.999 0 0 0 8.49 12.569 80.445 80.445 0 0 0 5.085 5.602 78.986 78.986 0 0 0 5.508 5.007v-.423a79.436 79.436 0 0 1-5.279-4.813l.004.005Z" fill="#004228"></path><path d="M335.283 109.931a79.242 79.242 0 0 1-5.046-5.555 77.645 77.645 0 0 1-4.502-6.021 79.079 79.079 0 0 1-3.915-6.449 77.49 77.49 0 0 1-5.913-14.023 78.917 78.917 0 0 1-1.929-7.498 78.854 78.854 0 0 1-1.183-7.769 78.853 78.853 0 0 1-.401-8.002v-2.642a79.32 79.32 0 0 1 5.02 4.606 79.365 79.365 0 0 1 5.045 5.555 81.074 81.074 0 0 1 4.502 6.017 79.95 79.95 0 0 1 3.915 6.448 79.047 79.047 0 0 1 3.289 6.841 76.313 76.313 0 0 1 2.624 7.187 78.253 78.253 0 0 1 1.93 7.497 80 80 0 0 1 1.187 7.769c.267 2.651.401 5.344.401 8.003h.026v-6.816c-.035-.405-.069-.815-.108-1.221a78.678 78.678 0 0 0-3.125-15.336 77.645 77.645 0 0 0-5.944-14.084 77.78 77.78 0 0 0-3.932-6.474 79.324 79.324 0 0 0-4.519-6.043 79.292 79.292 0 0 0-10.639-10.644v3.337c0 2.715.133 5.395.405 8.037a78.882 78.882 0 0 0 1.187 7.803 78.789 78.789 0 0 0 1.934 7.532 77.839 77.839 0 0 0 5.944 14.084 78.329 78.329 0 0 0 8.455 12.522 79.294 79.294 0 0 0 5.063 5.576 79.565 79.565 0 0 0 5.279 4.813v-.423a79.277 79.277 0 0 1-5.05-4.619v-.008Z" fill="#004228"></path><path d="M340.631 111.895h.025v-6.824c-.034-.415-.069-.829-.107-1.243a69.402 69.402 0 0 0-.216-1.869v3.12c.19 2.245.298 4.519.298 6.816ZM340.631 115.227c-.1-.082-.199-.168-.298-.25v.423l.09.077.208-.25ZM340.656 105.071v6.824h.298c0-2.266-.103-4.554-.298-6.824ZM340.838 114.977c-.061-.048-.121-.104-.177-.152v.367l.177-.215Z" fill="#004228"></path><path d="m340.656 114.825-.323-.271v.423c.099.082.198.168.298.25l.025-.035v-.367ZM340.631 111.895c0-2.297-.104-4.571-.298-6.816v6.816h.298ZM181.753 22.656h-.647v11.49h.647v-11.49ZM181.753 10.519h-.647v11.49h.647v-11.49ZM193.239 22.009h-11.486v.647h11.486v-.647ZM181.106 22.009h-11.49v.647h11.49v-.647ZM181.753 22.009h-.647v.647h.647v-.647ZM349.548 31.699a40.53 40.53 0 0 0-9.276 14.416l-.164.436h92.973l-.389-.518c-6.668-8.892-16.298-14.986-27.127-17.175-3.233-8.373-8.84-15.53-16.221-20.709C381.743 2.82 372.8 0 363.481 0c-9.772 0-19.065 3.069-26.882 8.883a45.276 45.276 0 0 0-13.337-2.007c-13.32 0-25.893 5.848-34.491 16.043l-.449.531h73.139a40.132 40.132 0 0 0-11.913 8.244v.005Zm-60.531-8.568c8.214-9.738 20.511-15.927 34.245-15.927 4.67 0 9.168.716 13.402 2.041A44.592 44.592 0 0 1 363.485.328c19.108 0 35.415 11.969 41.846 28.815 11.028 2.18 20.606 8.417 27.107 17.088h-91.859a39.95 39.95 0 0 1 9.202-14.3 39.958 39.958 0 0 1 13.264-8.796h-74.024l-.004-.004Z" fill="#004228"></path><path d="M349.777 31.927a39.99 39.99 0 0 0-9.203 14.3h91.859c-6.5-8.671-16.078-14.904-27.106-17.088C398.896 12.293 382.589.324 363.481.324A44.59 44.59 0 0 0 336.66 9.24 44.9 44.9 0 0 0 323.258 7.2c-13.735 0-26.027 6.19-34.246 15.927h74.024a40.128 40.128 0 0 0-13.264 8.796l.005.005Zm-60.057-9.12a44.385 44.385 0 0 1 33.542-15.28c4.523 0 8.999.683 13.303 2.025l.159.047.134-.099C344.593 3.708 353.8.648 363.485.648c9.185 0 17.999 2.775 25.488 8.032 7.324 5.136 12.875 12.25 16.052 20.576l.065.168.177.035c10.531 2.084 19.923 7.911 26.519 16.445h-90.737a39.932 39.932 0 0 1 8.961-13.748 39.52 39.52 0 0 1 13.156-8.727l1.541-.626h-74.982l-.005.004ZM476.567 102.33l-.229-.229.458-.457.229.228h22.034l.229-.228.229.228.228.229-.228.229v22.034l.228.229-.228.229-.229.229-.229-.229h-22.034l-.324.324h23.139v-23.597h-23.597v23.139l.324-.324V102.33Z" fill="#004228"></path><path d="m498.735 102.196.324-.324h-22.034l.323.324h21.387ZM498.735 124.498h-21.387l-.323.324h22.034l-.324-.324ZM476.891 102.654l-.324-.324v22.034l.324-.323v-21.387ZM476.701 125.146h-.458v-.458l-21.331 21.331v.919l21.789-21.792ZM488.497 113.349l10.696-10.695v-.458l-10.925 10.925.229.228Z" fill="#004228"></path><path d="m488.268 113.121 10.925-10.925h-.458l-10.695 10.696.228.229ZM487.811 113.578l-10.92 10.92h.457l10.692-10.691-.229-.229Z" fill="#004228"></path><path d="m487.582 113.349-10.691 10.692v.457l10.92-10.92-.229-.229ZM454.817 147.029l.095-.091v-.919l-.557.553.462.457ZM476.701 125.146l.324-.324h-.458v-.458l-.324.324v.458h.458Z" fill="#004228"></path><path d="m476.891 124.498-.324.324h.458l.323-.324h-.457Z" fill="#004228"></path><path d="M476.891 124.498v-.457l-.324.323v.458l.324-.324ZM488.268 113.578l10.925 10.92v-.457l-10.696-10.692-.229.229ZM488.04 112.892l-10.692-10.696h-.457l10.92 10.925.229-.229Z" fill="#004228"></path><path d="m499.193 124.498-10.925-10.92-.228.229 10.695 10.691h.458ZM487.811 113.121l-10.92-10.925v.458l10.691 10.695.229-.228ZM477.025 101.872l-.229-.228-.458.457.229.229v-.458h.458Z" fill="#004228"></path><path d="M476.891 102.196h.457l-.323-.324h-.458l.324.324Z" fill="#004228"></path><path d="m476.891 102.196-.324-.324v.458l.324.324v-.458ZM488.227 113.065l-.229.229.229.229.229-.229-.229-.229Z" fill="#004228"></path><path d="m487.998 112.836-.229.229.229.229.229-.229-.229-.229ZM488.084 113.401l-.229.229.229.229.229-.229-.229-.229Z" fill="#004228"></path><path d="m487.856 113.173-.229.228.229.229.229-.229-.229-.228ZM255.082 237.675v.324h21.681a5.18 5.18 0 0 1-1.796-.324h-19.889.004ZM237.826 237.675h-86.355a29.145 29.145 0 0 1-26.243-16.471 29.136 29.136 0 0 1 3.431-30.792l54.299-68.314a40.424 40.424 0 0 1 18.232-12.97h-.95a40.574 40.574 0 0 0-17.537 12.768l-54.299 68.313c-6.992 8.797-8.352 21.016-3.47 31.138 4.886 10.117 15.301 16.656 26.532 16.656h103.612c-.63 0-1.234-.117-1.796-.324h-15.46l.004-.004ZM377.863 232.767a4.908 4.908 0 0 1-4.908 4.908h-96.192v.324h96.192a5.24 5.24 0 0 0 5.231-5.232 5.233 5.233 0 0 0-3.617-4.972 5.726 5.726 0 0 1-.539.19 4.906 4.906 0 0 1 3.828 4.782h.005Z" fill="#004228"></path><path d="M372.955 228.17v.013a4.59 4.59 0 0 1 4.584 4.584 4.587 4.587 0 0 1-4.584 4.584h-96.192v.324h96.192a4.91 4.91 0 0 0 4.908-4.908 4.902 4.902 0 0 0-3.829-4.782c-.336.095-.69.16-1.053.185h-.026ZM151.471 237.351c-10.985 0-21.172-6.392-25.95-16.289-4.774-9.898-3.44-21.849 3.397-30.452l54.299-68.313a39.927 39.927 0 0 1 19.017-13.186 40.094 40.094 0 0 1 12.34-1.947h1.161c2.141 0 4.261-.289 6.302-.85l-.103-.285.306-.104a23.412 23.412 0 0 1-6.505.915h-1.161c-4.273 0-8.464.678-12.439 1.964v.324h-.941a40.372 40.372 0 0 0-18.232 12.97l-54.299 68.314a29.133 29.133 0 0 0 22.812 47.263h46.184v-.324H151.471ZM237.822 237.351c0 .073.004.143.004.216v.108h15.461a5.264 5.264 0 0 1-.721-.324h-14.744Z" fill="#004228"></path><path d="M214.574 106.836h1.161c2.258 0 4.442-.319 6.505-.915l.306-.104v.009a23.364 23.364 0 0 0 14.218-12.18l.022-.044c-.022-.021-.048-.038-.069-.06-.065-.056-.121-.112-.182-.168l-.064.13a23.033 23.033 0 0 1-14.326 12.106c-2.076.6-4.234.907-6.414.907h-1.161c-4.239 0-8.443.66-12.487 1.964h.048v.323a40.392 40.392 0 0 1 12.439-1.964l.004-.004Z" fill="#004228"></path><path d="M237.04 93.818c-.082-.073-.168-.142-.25-.22l-.021.043a23.37 23.37 0 0 1-14.218 12.181c.034.099.073.203.112.306a23.68 23.68 0 0 0 14.382-12.31h-.005ZM255.082 237.351v.324h19.89a5.21 5.21 0 0 1-.721-.324h-19.169ZM237.174 237.351h-39.519v.324h39.523v-.108c0-.073 0-.143-.004-.216ZM236.643 93.153l-.108.216.182.169c.021.021.047.038.069.06l.147-.302-.29-.143ZM236.937 93.296c.082.073.168.147.254.22l.039-.078-.289-.142h-.004Z" fill="#004228"></path><path d="m237.058 93.784.129-.268c-.082-.073-.168-.142-.254-.22l-.147.302.25.22c.004-.013.013-.021.017-.034h.005ZM202.135 108.8h-.993c-.302.104-.6.211-.898.324h.95c.311-.108.626-.22.941-.324Z" fill="#004228"></path><path d="M202.135 108.8c-.315.104-.626.216-.941.324h.941v-.324ZM202.087 108.476s-.034.009-.051.018c-.303.099-.596.202-.894.306h.993v-.324h-.048ZM222.352 106.223c-.034-.103-.073-.203-.112-.306l-.306.103c.03.095.069.19.103.285.099-.026.194-.052.294-.077.008 0 .013-.005.021-.009v.004ZM222.551 105.822v-.009l-.307.104c.104-.031.207-.065.311-.1l-.004.005Z" fill="#004228"></path><path d="M222.352 106.223c.104-.03.207-.065.311-.099-.035-.099-.078-.203-.112-.306-.104.03-.203.069-.311.099.035.103.073.203.112.306ZM237.822 237.351h-.324c0 .073.004.143.004.216v.108h.324v-.108c0-.073 0-.143-.004-.216Z" fill="#004228"></path><path d="M237.498 237.351h-.324c0 .073.005.143.005.216v.108h.323v-.108c0-.073 0-.143-.004-.216ZM253.287 237.675a5.158 5.158 0 0 0 1.795.324v-.324h-1.795ZM253.339 237.351h-.777c.229.125.47.233.721.324h1.795c-.613 0-1.2-.117-1.739-.324Z" fill="#004228"></path><path d="M255.082 237.675v-.324h-1.739a4.845 4.845 0 0 0 1.739.324ZM274.967 237.675a5.185 5.185 0 0 0 1.796.324v-.324h-1.796ZM276.763 237.675v-.324h-1.744a4.876 4.876 0 0 0 1.744.324Z" fill="#004228"></path><path d="M275.019 237.351h-.777c.229.125.475.233.721.324h1.796c-.613 0-1.2-.117-1.744-.324h.004ZM372.955 227.847v.013c.371 0 .73.043 1.075.121a4.85 4.85 0 0 0 .539-.19 5.726 5.726 0 0 0-.548-.147 4.827 4.827 0 0 1-1.066.198v.005Z" fill="#004228"></path><path d="M372.955 227.847a4.828 4.828 0 0 0 1.066-.199 5.126 5.126 0 0 0-1.066-.108v.311-.004Z" fill="#004228"></path><path d="M372.955 228.171h.022a5.285 5.285 0 0 0 1.053-.186 4.892 4.892 0 0 0-1.075-.121v-.013.324-.004Z" fill="#004228"></path></svg>